/* XPM */
static char *result[] = {
/* columns rows colors chars-per-pixel */
"50 50 245 2 ",
"   c #030202",
".  c #0C0304",
"X  c #06040B",
"o  c #0B0509",
"O  c #050909",
"+  c #0C0C0B",
"@  c #130205",
"#  c #1C0206",
"$  c #150309",
"%  c #1D030B",
"&  c #130B0D",
"*  c #1A0C08",
"=  c #17140C",
"-  c #1F0510",
";  c #160F11",
":  c #0D1213",
">  c #091314",
",  c #131313",
"<  c #1B1416",
"1  c #111718",
"2  c #1B161A",
"3  c #171919",
"4  c #1C1C1C",
"5  c #240306",
"6  c #2B0206",
"7  c #240807",
"8  c #2B0905",
"9  c #24050C",
"0  c #2B050B",
"q  c #25080C",
"w  c #2B080C",
"e  c #340206",
"r  c #3B0205",
"t  c #330903",
"y  c #3D0B07",
"u  c #33040A",
"i  c #3B020A",
"p  c #33090C",
"a  c #381109",
"s  c #250611",
"d  c #2A0411",
"f  c #250A10",
"g  c #310610",
"h  c #320811",
"j  c #221E1E",
"k  c #321B11",
"l  c #1F201F",
"z  c #3B2619",
"x  c #161E22",
"c  c #1D1E22",
"v  c #291C21",
"b  c #1D2121",
"n  c #232423",
"m  c #2A2525",
"M  c #292728",
"N  c #252A2A",
"B  c #2C2C2C",
"V  c #2B312F",
"C  c #3B2E32",
"Z  c #2F3332",
"A  c #313030",
"S  c #333333",
"D  c #383837",
"F  c #363939",
"G  c #3B3B3B",
"H  c #430206",
"J  c #4C0305",
"K  c #4D0905",
"L  c #430309",
"P  c #4B030A",
"I  c #430908",
"U  c #4C0A09",
"Y  c #540506",
"T  c #5C0305",
"R  c #530805",
"E  c #5B0C05",
"W  c #54030A",
"Q  c #5C0409",
"!  c #550B09",
"~  c #5D0B0A",
"^  c #441108",
"/  c #56150A",
"(  c #630405",
")  c #6B0505",
"_  c #640A06",
"`  c #6D0D05",
"'  c #630509",
"]  c #6B0409",
"[  c #640B0A",
"{  c #6B0B09",
"}  c #740606",
"|  c #790407",
" . c #730C05",
".. c #7C0D06",
"X. c #74080A",
"o. c #7C0C09",
"O. c #6D1207",
"+. c #64140B",
"@. c #66160A",
"#. c #6A1309",
"$. c #761105",
"%. c #7B1306",
"&. c #7B130A",
"*. c #781808",
"=. c #6C1511",
"-. c #6B2106",
";. c #463227",
":. c #433C3B",
">. c #60372B",
",. c #3E4140",
"<. c #444444",
"1. c #484948",
"2. c #4C4B4C",
"3. c #51484A",
"4. c #4D5353",
"5. c #545353",
"6. c #575A5A",
"7. c #675F61",
"8. c #676264",
"9. c #677470",
"0. c #870905",
"q. c #8B0B06",
"w. c #840909",
"e. c #9B0D07",
"r. c #841405",
"t. c #8D1306",
"y. c #801806",
"u. c #8D1B06",
"i. c #841409",
"p. c #8C1409",
"a. c #83190C",
"s. c #8B1C0A",
"d. c #961304",
"f. c #951806",
"g. c #9E1A05",
"h. c #93140D",
"j. c #9C140B",
"k. c #931C0B",
"l. c #9A1C09",
"z. c #951D12",
"x. c #B20E07",
"c. c #A31305",
"v. c #A31C05",
"b. c #AC1A04",
"n. c #A61309",
"m. c #A31C0B",
"M. c #AC1C0A",
"N. c #BB1C06",
"B. c #B41E0C",
"V. c #BB1C09",
"C. c #872206",
"Z. c #8B230A",
"A. c #93220C",
"S. c #9C230B",
"D. c #982909",
"F. c #9F3106",
"G. c #A42105",
"H. c #AD2D06",
"J. c #A3240A",
"K. c #AC220B",
"L. c #A52C0A",
"P. c #AD2A0A",
"I. c #B22506",
"U. c #B62B04",
"Y. c #B5240C",
"T. c #BB240A",
"R. c #B42A0A",
"E. c #BB2B0B",
"W. c #BA3C07",
"Q. c #BD350B",
"!. c #B52B10",
"~. c #AB3210",
"^. c #C51E06",
"/. c #C31908",
"(. c #D31A07",
"). c #E31909",
"_. c #C32305",
"`. c #CC2506",
"'. c #C32A06",
"]. c #CC2B06",
"[. c #C5230B",
"{. c #C32C0C",
"}. c #CD2C0A",
"|. c #DB2C06",
" X c #D3220A",
".X c #D52A08",
"XX c #D42B0A",
"oX c #DB2C0B",
"OX c #C83906",
"+X c #C5310B",
"@X c #CB320A",
"#X c #C43A0A",
"$X c #CC3A09",
"%X c #D23506",
"&X c #D83A07",
"*X c #D3330B",
"=X c #DB330A",
"-X c #D33A0B",
";X c #C23411",
":X c #CD3311",
">X c #D53510",
",X c #E42B07",
"<X c #E62E09",
"1X c #EE2E0B",
"2X c #F92A0B",
"3X c #E53607",
"4X c #ED3A06",
"5X c #E3340A",
"6X c #EC330B",
"7X c #E33C0C",
"8X c #EB3C0A",
"9X c #FE3B05",
"0X c #F23D0A",
"qX c #F93908",
"wX c #EE3611",
"eX c #AA4404",
"rX c #CD410A",
"tX c #DB440A",
"yX c #D8480A",
"uX c #DA4511",
"iX c #E54607",
"pX c #EB4306",
"aX c #E24807",
"sX c #ED4B07",
"dX c #EC440A",
"fX c #EB4B09",
"gX c #FD4D05",
"hX c #F64709",
"jX c #F44A09",
"kX c #FE4B0A",
"lX c #E95508",
"zX c #F45206",
"xX c #FF5205",
"cX c #F3540B",
"vX c #FD530B",
"bX c #F85A09",
"nX c #E64211",
"mX c #FA4610",
"MX c #EF610A",
"NX c #FD6906",
"BX c #FE6108",
"VX c #FD7E07",
"CX c #FF790B",
"ZX c #FC8608",
"AX c #FA9009",
/* pixels */
".XL.E L 0 7 7 9 9 8 9 #.7XE 9 w 0 0 0 g u u { qX9XgXsXj.U u i P ' 8Xc.e w q 9 s s 9 s s q q 0 ^ o.lX",
"yXv.%.$.R L 8 u L r H G.=XP q w 0 w 0 w u 6 { wX/.|.U.w.>XQ.;XuXyXoXq.9 0 q 9 9 s 9 9 9 q 9 K t.+XAX",
"ZX4X|.OXg.| X.d.b.U.rXNXzXk.r 5 5 5 0 8 6 r I.2X( q.0XR.Z.*.[ P.dXXXe.r 9 9 9 9 q 9 9 8 9 Y U.lXVXZX",
"r.u.].bXzX,X4XbXzX$X#XU.U.-X+XG.i.T H i ..'.1X2X).,XQ.J 6 0 9 6 ^.gX%X( e 7 7 9 7 q 9 i *.yXbX&XG.$.",
"5 # i _ I.sXNXfX$.e i 6 6 L X.J.@X8X-X%X7Xv.Q o.(.6X! u i p y u P.kXiX-XK. .E J e r ] Y.cX$X] H u 7 ",
"q q q 7 6 u.bXOXi q 7 9 9 % 9 5 u &.%XmXw.5 6 s L '.! u p p 0 ! Q.q.T &.m.{.7XoX`.`.iXuXd.r s f 9 9 ",
"9 9 9 0 7 J &X&Xi 7 9 9 9 q 9 9 9 5 ! N.e 0 0 u # J.j.6 u u L ~.&.6 q s 0 L T t.|.NXzX} 6 q 9 9 0 9 ",
"% 9 % 7 q # %.=XL 9 w 9 q 9 7 9 9 6 E j.6 9 9 0 %  .dXJ.s.S.aX#Xi 8 s 9 0 s q 0 | pX].H 7 9 9 9 % 9 ",
"% - - q 0 9 L ]._ 7 9 9 9 9 5 9 9 6  .i.5 9 9 0 - ! bXdX%XcXNXu.0 0 0 9 9 9 w q r '.Y.5 q s s 9 - % ",
"- - - 7 9 % I 5XM.e # 7 7 9 s % 9 r m.i.% s 9 s $ +.Y.J H o.nXr.9 u s 9 9 q 9 w 6 A.l.9 0 9 9 s % - ",
"% % % 9 9 5 *.jX*XE.&.P 0 9 5 6 J d.5X{ % d 9 9 $ =.#.5 w 6 {.&.7 s 0 9 9 9 9 w 9 p.Y.6 0 7 % % - % ",
"% % # % w Q {.f.i / K.$XY.k.p.m._.jX9Xo.5 9 9 # . 7 8 5 p 9 m.#.# q q q 0 9 w w 5 v.].e 0 9 9 7 * % ",
"q 7 5 6 ( _.-X6 * % % E.J._ O.i.M.0X9Xe.5 d # 2 M G N j # 5 j.#.% 8 q 9 s q 0 0 J iXsX' 7 9 9 9 7 5 ",
"e i ` S.tXNXMX! # % i m.r % % 5 e  .XX[.e # 3 S S 2.S F B % N.A.e e 0 0 d w u _ *XjXvX=X` 6 6 9 6 i ",
"_.@XdX8X%XOX].R.p.k.$XL.6 9 s d s 6 r m.~ 1 G B A 6.G B F 4 C.gX+Xv.] W U Y X.1X_.( P ..`.B.X.{ d.B.",
"u.r.] H 6 e 6 u ~ a.#XY.i 0 % 9 0 0 9 L t : A D D 2.D S B 4 * y.Z.*X6X%Xb.T.1XV.i 9 q # r m.8XqXV.g.",
"9 # % % - % - % % % # k.Q 9 6 d s 9 w 6   , D G B 5.A D G 4   % - i i.XXvXjX X) 9 h g g q 6 g.=XJ 6 ",
"d 9 9 s 9 - - - - % % [ p.5 9 9 9 9 w %   4 S A n 5.D Z G n   @ p 0 0 i j.jX`.H w p d w 6 7 ! Y.L g ",
"0 0 9 7 % % % % % % # i T.{ % 5 9 9 0 # X 3 B D B 5.G D S , O . u p p w i *XXXu p g w w u d J `.P 7 ",
"d 0 q 9 9 9 9 % 9 9 5 % M.wX{ L I e i # N D S :.:.,.D G S D A & 9 p w p 6 Y.|.u p d p h h 0 ! |.( u ",
"p u 9 9 9 % $ % % % $ L @X=XE.n.n.B.E , A D S S G G S D G G G 3 $ 0 p i 5 l.9XP w u p p h y ..4Xr.u ",
"Y L i e i i i r L L $.}.s.6 d 0 0 { k N B B S S G 2.G ,.<.A S B 4 5 6 6 J m.{.j.e 0 u i L T x.kX|.} ",
"@X^.K.v.Y.g.z.z.z.V.2X&.$ $ 9 0 9 X N B M G 2.D S <.G G G A M S B ; r.R.XXs.%.oXB.! L Y ] x.5XfXjXdX",
"qXY.XXqX%.w 0 6 5 # h.=.9 . # 0 $ 4 B B S B B S n B M B D G M B S N -.S.E @ i I g.oXN.x. X{.O.P ~ $X",
"/.r h.M.$ $ # - 7 o ~ X.$ & o o = A B b M S n B , 2.l n n ,.S n n S 1 X X $ 9 0 6 o.6XaXmX| u 6 s | ",
"jXtXhX4XJ.s.{ 5 # 5 e.h.. c & 1 3 j 4 B S n 4 B 3 8.V b , = S G 4 n 4 , + 4 o 7 i Y &.Z.9X,X}.G.w./.",
"gXpXN.g.p.i.{.Z.l K u.a + n , < , : Z Z >   & , b 9.F 1 +     V G , , 3 , B 3 . 6 R m @.c.c.n.(.9X9X",
"9Xc.H r u 9 W T.;.j O : 3 B , , , G D O 8 @   o S 6.,.:   * a   Z 2.3 , + B n : + < B 6 r i i Q x.5X",
"M.h.9 h p w W T.z N , + m D O < D ,.+ -.b.e . C 5.:.5.3.O -.^.6 o S ,.4 O B B , + B n 5 h g h i P T ",
"~ V.P i r T _.C.: A , : B D   D D . C..XW $ < C 7.3.7.3.2 / } t 7   A ,.  n G , + D n . 0 u u w w w ",
"U bXiXE.OXsXeX= , A 4 + G B m 4.+ r =Xf.6 5 * v :.8.3.j < O.( 5 d 5   F G < G + , D 3 & $ 0 0 0 0 p ",
"J.#XZ.s.E t & : , M A + G Z <.m 6 %.hX| 6 9 & ; 2 c 4 ; & s._ 9 s 9 # < 1.B S , l S , 3 = o $ 5 8 r ",
"A.e & M x O o , , n S 3 <.<.b # Q tXBX'.L 9 . o A N D + @ f.T 5 s s s % 4 2.G 4 M n , , + O 4 4 9 Z.",
"e w 5 & M D n O + , <.<.2.1.# a.Q.W.W.uXE.J 5   G 4.1., e T._ 5 s 9 % % $ ,.2.<.1.3 + + 4 B B k eX+X",
"0 0 s 9 $ , A S 4 X G 2.<.A Z.L.U 0 9 i J.:X!   B 6.G O L =X_ 5 s % % - % , S 1.1., 3 S S j / lXVXr.",
"q 9 9 9 9 % $ 4 B D S :.b 8 +.5 5 5 9 5 5 L.K.. O N = @ T 3X( # 9 - - - s @ l <.D S S 4 @ 5 y r.vXa.",
"6 7 q 9 9 9 9 # $ 2 S 5.n # 6 9 7 s 9 % % T {._ r e e ) :X<XJ 9 9 9 - % d @ n 6.G 4 $ # 9 w q 5 l.!.",
"i 6 9 9 s - 9 w 9 6 / ;.6.m 5 9 q s - s 8 U {.sX-X+XV.*XD.n.H 0 q 9 5 9 9 f 4.:.a 5 0 q q 9 s 7 u /.",
"$.6 9 9 s s 0 q 0 Q uX%.v S $ q - - - 9 w ~ XXl./ / +.z.W q.i 5 7 5 7 9 @ 2 >.Z.r 0 q 9 9 9 9 6 9 ~ ",
"B.L 0 9 % 9 u 0 L b.lX' # % % s s % s q 5 s.J.% $ - - ' kX&X] L u 6 e e L Z.Q.J 9 q 9 q 9 9 s 9 9 u ",
"S.+Xq.| _ ) } r.T.kX-XT 0 9 w 9 s 9 s - 6 !.+.% w 6 ~ $XiX-X=X*XY.m.n.N.-XmX+.5 0 9 9 0 9 q 0 q 5 6 ",
"F.CXBXdX7X|.|.mXkXxX_.H 9 9 9 9 s s s 5 L !.y d 0 P ;XC.r i U a.k.A.G.tXfX}.~ 6 w 8 9 9 q 9 9 9 5 t ",
"tX@X%.E J R !  ._.gXhXT 9 0 9 9 9 9 s 5 L T.t d 5 s.s.$ 0 7 9 5 5 9 9 L k.bXA.# 6 7 9 0 0 0 w 0 q 0 ",
"T.r # 7 % % % % J t.pX'.e q w q 9 9 0 7 I @XT e i P.#.6 0 0 9 q 0 s g 0 i #XBXZ.U U u 5 5 9 7 q 9 z.",
") 7 0 9 9 q 9 9 9 9 ~ 7XM.e 0 8 0 0 8 u ! rX=XE.:XmX*.0 0 9 9 s s 0 0 p i rXZXbXpXfXuXE.r._ ! W j.2X",
"P 0 9 q 9 9 s s 0 0 5 u.kXb._ e 6 u e H q.vXQ.$.~ L.s.5 0 9 9 s q s 9 0 s.fXI.0.r.i.p.m.*X4X4X0XgX,X",
"! 6 9 9 q s % s q w 8 ] lXNXsX+XG.S.m.+XbXsXW e 6 s.` 0 0 w w s s s 7 s.XX{ e 0 9 % 7 5 i _ p.=XmX(.",
"( 7 8 9 % - 9 q q d 7 T lXVXyXE.R.H.H.H.#XhXL.P i D.O.5 w w s d d 9 &.oX) u 9 9 0 0 s s q 9 9 Q oX5X",
"%.U u q 7 9 9 9 9 q q Y lX#XH 6 6 0 0 d u %.cXB.r D.&.u 0 0 w d 0 y wXq.6 d 0 s q q d q d w w u &.sX",
"P.O.t 9 9 9 s q 9 w 0 ! 8X%.9 p 0 d h u u u b.hXx.&XP.H u w 8 p 6 A..XP s s s d s s q s q w w p { pX"
};
