/* XPM */
static char *result[] = {
/* columns rows colors chars-per-pixel */
"50 50 255 2 ",
"   c #0F7C7F",
".  c #0F7A7D",
"X  c #128F95",
"o  c #010000",
"O  c #108E94",
"+  c #127B7E",
"@  c #151515",
"#  c #0C797C",
"$  c #117C80",
"%  c #131313",
"&  c #0C0C0C",
"*  c gray21",
"=  c #139096",
"-  c #111111",
";  c #108C93",
":  c #0E8B91",
">  c #222323",
",  c #3B3C3C",
"<  c #0E0F0F",
"1  c #090A09",
"2  c #050303",
"3  c #118F90",
"4  c #047376",
"5  c #1D1E1E",
"6  c #070606",
"7  c #017074",
"8  c #129293",
"9  c #168185",
"0  c #0B7B7D",
"q  c gray22",
"w  c #108E93",
"e  c #098A90",
"r  c #17878A",
"t  c gray26",
"y  c gray15",
"u  c gray10",
"i  c #159198",
"p  c #07888F",
"a  c #11868A",
"s  c #108082",
"d  c gray20",
"f  c #87D4D9",
"g  c #2E9FA0",
"h  c #189599",
"j  c #0F8E8D",
"k  c #138A8B",
"l  c #108A8A",
"z  c #107D80",
"x  c #2E2F2F",
"c  c #020B0B",
"v  c #238D91",
"b  c #0E8A8E",
"n  c #09777B",
"m  c #30A4A8",
"M  c #10949B",
"N  c #0D9095",
"B  c #0E8D91",
"V  c #1E898D",
"C  c #07878A",
"Z  c #057579",
"A  c #3E4040",
"S  c #282828",
"D  c #181616",
"F  c #6ECCCF",
"G  c #1E989E",
"H  c #03858B",
"J  c #087F81",
"K  c #12797E",
"L  c #0B7578",
"P  c #535353",
"I  c #2A2B2B",
"U  c #1D1919",
"Y  c #0E0707",
"T  c #98E1E4",
"R  c #7AD0D6",
"E  c #73CED2",
"W  c #7ACCD1",
"Q  c #34A8AE",
"!  c #2DA3A4",
"~  c #129298",
"^  c #098C8E",
"/  c #108184",
"(  c #147F82",
")  c #067B81",
"_  c #0F777B",
"`  c #075D61",
"'  c #4E4E4E",
"]  c gray29",
"[  c #0A4648",
"{  c #313131",
"}  c #2D2C2C",
"|  c #85D9DD",
" . c #73C6CB",
".. c #64BBBF",
"X. c #51AEB1",
"o. c #3F9FA4",
"O. c #159CA1",
"+. c #2B9D9F",
"@. c #2E999B",
"#. c #20868A",
"$. c #168488",
"%. c #0F8485",
"&. c #017677",
"*. c #464646",
"=. c #073739",
"-. c #312D2D",
";. c #051C1C",
":. c #A5E6ED",
">. c #8FDDE1",
",. c #90D7DD",
"<. c #3EAEB1",
"1. c #1F9EA5",
"2. c #279DA3",
"3. c #27A0A1",
"4. c #2499A0",
"5. c #259A9C",
"6. c #21969C",
"7. c #1A9695",
"8. c #188D95",
"9. c #2C8D91",
"0. c #068A8D",
"q. c #0B8288",
"w. c #038486",
"e. c #057A7B",
"r. c #3E3B3B",
"t. c #A5EDF3",
"y. c #7FD5D9",
"u. c #74CCCD",
"i. c #60C6C9",
"p. c #69C4C8",
"a. c #5BC2C6",
"s. c #69C0C6",
"d. c #3AA7A9",
"f. c #27A3A8",
"g. c #2BA0A3",
"h. c #379BA1",
"j. c #249D9F",
"k. c #209B9A",
"l. c #19999A",
"z. c #2D9398",
"x. c #0B8D92",
"c. c #1C8287",
"v. c #0B6B6E",
"b. c #606060",
"n. c #0C585A",
"m. c #064C4E",
"M. c #0A3F41",
"N. c #041414",
"B. c #B6FFFF",
"V. c #99EAEE",
"C. c #96DCE0",
"Z. c #8BDADE",
"A. c #6BC6CD",
"S. c #60C0C2",
"D. c #4DB8BC",
"F. c #59B6BB",
"G. c #49B6B8",
"H. c #45B3B5",
"J. c #42A5A8",
"K. c #37A2A4",
"L. c #3A959B",
"P. c #289094",
"I. c #1E9094",
"U. c #128C8F",
"Y. c #28898F",
"T. c #0E8788",
"R. c #086367",
"E. c #273536",
"W. c #102E30",
"Q. c #ABF8FD",
"!. c #B3F5FB",
"~. c #A7F4F5",
"^. c #A0E1E6",
"/. c #8DE1E4",
"(. c #7ED8DD",
"). c #74D2D6",
"_. c #81D3D4",
"`. c #66BEC3",
"'. c #59BDC3",
"]. c #51B4B9",
"[. c #47ADB2",
"{. c #43B1AF",
"}. c #40AAAE",
"|. c #2DA0A8",
" X c #13979D",
".X c #13979A",
"XX c #259499",
"oX c #097074",
"OX c #346E70",
"+X c #0D6468",
"@X c #5A5A5A",
"#X c #075456",
"$X c #263B3C",
"%X c #153A3C",
"&X c #183133",
"*X c #3A3232",
"=X c #1A2526",
"-X c #111F20",
";X c #9EEFF1",
":X c #7BD4D7",
">X c #7AC6CB",
",X c #73BABF",
"<X c #5DB5B9",
"1X c #48A7AC",
"2X c #4CA5AA",
"3X c #35A2AA",
"4X c #31AAA8",
"5X c #1A9293",
"6X c #4B7577",
"7X c #006D70",
"8X c #194E50",
"9X c #354548",
"0X c #134447",
"qX c #2D3D3E",
"wX c #032B2C",
"eX c #272020",
"rX c #94E6EB",
"tX c #9AE4E7",
"yX c #90D2D6",
"uX c #68CFD4",
"iX c #7ECED1",
"pX c #84CCCE",
"aX c #6CC8CA",
"sX c #41B8BD",
"dX c #53B7BD",
"fX c #61B4B9",
"gX c #56ABB2",
"hX c #709CA0",
"jX c #178C8F",
"kX c #578488",
"lX c #207576",
"zX c #117074",
"xX c #1A666A",
"cX c #445B5E",
"vX c #1E5656",
"bX c #0D4E51",
"nX c #ACF0F6",
"mX c #8BE7EC",
"MX c #71C4C6",
"NX c #59BCBD",
"BX c #35B1B7",
"VX c #58B2B6",
"CX c #69A9AC",
"ZX c #5D9396",
"AX c #3A8A8D",
"SX c #2C7C80",
"DX c #666767",
"FX c #145F61",
"GX c #3F5051",
"HX c #214244",
"JX c #C2FFFF",
"KX c #99CCD1",
"LX c #77AEAF",
"PX c #5A797B",
"IX c #6D6D6D",
/* pixels */
"      K   pX3X4.7.: X O X r K .   L @.T G ; X 3 %._ $.B 5X~.~.h k z &.fXC.o.pX<.e = X w l K         ",
".   z 4 2X..) Q h : O X X 3 ( .   # v rXG : = 8 r K J ~ f (.>.s.w.7 gXyX9 7X<X).0.0.O 8 k K     +   ",
".   + n  .@.4 g i ; O O X N r $ ( &.X.B.F p p C J L K.| E N 8 _.aX..,.( n 9 j.E _.d.8.0.l K . .   . ",
"+ $ . $ W v _ z.j 3 X O X B l . 7 9.:.mX/.Z.F a.S.iXW f.4.g C U._.JX1X&.  U.H.~ ].(.Z.R I.n $       ",
"    # a f #.9 Y.%.8 X O e G ! z...^.H.e G '.a.a.].h.b e j [.g x.XXT r _ 5XQ '.g.H ^ 3.F T r n z $   ",
"0 [ 8Xn.CXz.z.9 s 3 ; 3 S./.>.| ,X5.e ; 6.G H q.oXL l i ^ d.<.4.h.,.h.@.! h b 3Xm 1.B e.hX6X=.v.0 # ",
"9 #X9Xr., 9Xn.R.0 .XN S.pX6.~ = H e = : g.5X= l + + k X : 5.k.l $.C.uX^ : N  XN jXlXvXE.q P 8XY.V c.",
"9.v 8XU S -.q E.%X#X#.V.O.C ; ; X X b 2.g.j 3 z # . l X : k.k.l %.T ~.].M a ` 0X$Xq * y U qX. 0 9 v ",
"L P.,X> 1 - @ y r.t q 6XV M M M M O 4.! b X k / a . T.= x.+.7.^ i.| BXf OX&Xr.r.} u - - 2 hX:XV e.7 ",
",.:.y.0XY @ % < % x A q I [ zXxX+X8.m j w 8 s m.M.v.a = ^ j.~ AXhXSXm.W.*Xt , @ & % D 1 9XnXt.:.f W ",
"s.z.Z oXN.% D @ D & & } t *X} A %X9.7.; X j ` o o =.) p g i.>.kXE.* *Xr.I < 1 @ @ % D & kX}.( v X.s.",
"c.L . L N.% @ % % % u y I A -.wXl.5.p w j a #Xo o wXh.E >.R R Q.AXD t q d > u % - % @ & n.) # n 4 4 ",
"5.l T.N [ Y u u y { { y 5 d * ZXi.2.l.7.a +X-X{ , u kXdXO.! w.<.yX$XS y 5 , , S u @ - ;._ z . $ s s ",
"4X8 : O.m.Y I q A y & 6 5 q > X.V.:.aX#.xX-Xr.DXIX' D =.n K.5.w.D.cX-.x 6 2 5 * , q 5 ;.#   / jX8 3 ",
"3X8.; ~ bX*Xq > < o 2 % { r.@ %.Q +.tXL.c Y , P @X' 5 2 m.8 m w N HX-.A u 1 o 6 5 * r.E.# 3 w = O X ",
"sX6.N v.qXGX< o o 6 - u q d > SX1.) <X^.-X< x A ] , 5 o bXJ 4.dXr $X-.d > - & o o o E.] vXN X O X O ",
"4X! <.HXPXV ` N.2 @ - 5 } > t cX/ r #.^.$X6 } ' P { > o +X# 1.m OX' S > x % @ & o 6X9.` &XzXM ; H h ",
").| t.KXV.m  Xv.1 @ @ x 5 1 S , W.v.5.;X%XY x , ' d > c L $.5.M.d } & < d 5 @ Y 0XuX/.O.7 ) e k.'.| ",
"[.K.v dXT g K.g W.Y y , < o 1 > eX;.xX,Xc 6 > , t I @ o [ + %XU I - 2 o x { @ 1 + 1.p.>.).a.E Z.E sX",
"Z 0 # 7Xs.J.Z V FX< q x 2 % < & S * } E.@ 1 o q P 1 2 & 5 =X-.* @ & @ 6 5 t D M.O.; C }.:XB.rX4.p ) ",
"$ + $ 4 [...4 s R.D t 5 6 u @ - < D * q * d - , @X% S * -.-.y - < @ % & < A eX[ .Xa I.I.3.T v n $ + ",
"    $ 4 o...Z / ` I -.Y @ @ - @ @ < u d q A *.@X@X] ] * } x - % @ % % @ 2 U *XM.%._ 9.0 ,X2X7 $ .   ",
"+   $ 4 J...4 s +XqX%X;.2 & D - - @ x y * A y *.@Xq q ] { { 5 @ % @ % Y c =.qX8XJ 9 V %.y.r .       ",
"    $ 7 X.W 4 / [ M.J &.OXy < 1 & > { 5 d u > t *.* @ * S S I - & < < =.v.a ` wXL 9 9 $.y.r #     . ",
"+   + # #.C.o.7 7 &.P. .mXL.c 1 u d y - @ < x ] P * D & - % x > 1 o [ a z . s _ # r 9 $.R $.#     . ",
"  +   $ Z K.:.p.S.W yXX.: M M.o & % 6 o o % x *.P d > o o 2 & - 2 c s / # $ . z e.P.9 9 f r #     . ",
"+       . 9 V.;X .<X9 ) X ~ / ` ` R.wXo - d *.b.DX' A 5 o c ` ` OXLXQ k n 0 $ # . v # 9.T V #     + ",
"        # #.f V 7 7 z 8.O w ~  XM O.[ Y t b.b.b.b.' ] t U N.=  X.XF !.V.,.@.7 c.Y.9 7 s.t.$.#     . ",
"      $ 4 @. .e.s k X X O X O ; w l N.eXP P ' b.b.P *., * & R.M : C _.u.h.tXo.r # 7 o.!.>.( .     . ",
". # . . &.R ..7Xr 8 = O X X X ; M v.o I t t , ' ' P P , d 6 =.M X H D.p.a J.,. .fXW !.B.VXZ z       ",
"/ 9 s + `.Q.,.].l.; O O O X X : O.[ o I *.t t A *.*.A * * 6 N.U.i H ..u.h ) c.J.X.K. .!.XXn $ + . # ",
"V   o.,.W d.g F.u.h U.i i w : : O.m.o < > * d t ] * , } @ o ;.b 0.d.T |.e i O C w.&.#.C.r 0 +   + V ",
"4 z.f g j g 7.^ F.aX2.m m m 4.; O.vX2 o o - > , ] } @ 1 2 o ;.h a.Z.G.O X O = X i X 6.f ( # + # Y.#.",
"z W @.p X i G g.Q R  XO X i k.g sX6Xo 1 o o @ , ] > o o 6 6 =Xf F 1.|.: = X O X O x.B C.X.J 0 9.V n ",
"..X.C i O O ; : b p.6.a U.O B ^ D.>Xc 2 o o % * * > 6 o o 2 OXf.h D.l.0.B B w : w I.4.G.nXy.`.F.e.0 ",
"<Xq.= O O X O i w.F.2X7 ( k = O w MX< 2 1 o 1 S { % o 6 & o n.M B i.}.+.XXk.3.3.! d.I.3.t./.| tX .F.",
"e.b X O O O 3 k n P.f v 4 ( 8.^ l.>X% 1 6 c & y , & c c 1 Y n.8 g <.|.8.+.G.{.G x.H ; iX{.C j v 2XL.",
"%.X w X O X U.. + e.@.f 1XZ J 7.:X1X2 o o ;.1 y * & -XN.o 2 #Xf.g J oX1XR s.s.| A.Q E NXw.8.X x.J v ",
"; O X X O X T._   + Z #. .>XS.R G.%.;.6 6 c c U I 6 c o & 2 +X4Xs 4 X.W $.Z &.I.S.;XB.H.p = X i 8 j.",
"h h O : O 8 %.#   . z # &.W :.6.e w W.=X< m.=.U S =XCX=Xx 5 lXk.7 @.f # n z +   w.m ~.T G x.e e 3 3.",
"3.2.Q G ; 8 k . +   . $ 4 J.p.q.X 8.lX=.M.s n.u U cXB.ZX9XFXh.k 4 MXo.4 $     0 k e A.B.t.y.R 4Xh NX",
"H H h m G C B r _   . $ L L.`.p O +.l.q.3 j #Xu eX0X1.1.fXi.j.0 z.u.)   +     . l 0.y.Q.p.{.H.u.A.j.",
"D.'.uXF :Xi.+.j s K   $ 7 [.p.J 7.|.w X X jXoX&XS R.3 p N f ].e.>Xo.Z $ .     + w.{.T g p p C +.F.F ",
"<.Q g.g.g.<.E a.5X0 . Z c.^.`.7Xk XX: O X C XXGX> L .XX p d.>.A. .# $   .   + z 8 Z.! T.= B 2.3.0.|.",
"q.C B : x.p 3 u.<.+.V [.:.!.C.gX+.j.3 O p H.E $XU oX.X; ; h ;X~.v #   . .   . J F a.p = X 3 m a a q.",
"+ _ a = X = 0.G.y.R _.^.VXL.J.`.,.E j ^ F ).bX5 * ;.T.~ : ~ rXi.) K     . $ L }.f 8 ; B ^ 5.v 0 + . ",
"    # k = w e G.t.(.'.9 7 ( $.4 c.iX).u.A.m.D U y U &Xb O i Z.Q q.+   + . . s >.3XH = l.g @._   + + ",
"    . / 3 O b A.{.2.H j $ . Y.c.4 r | Q.1.W.&XW.-X=.u   N 2.| f.j s 0 . $ 7 gXF b 2.! d.7.+ .       ",
".   . . k e }.F ! h O 8 T.# ( Y.P.o.6.V.f.R.q.zX[   n.b e f.(.i j z 0 $ Z 9.:.H.m j.8 b l K .   . + ",
"  +   . . G E Q ! b O = 3 + . 0 P.h.6./.f.N ~ 3 / K a = e BX(.i l   + n L.t.Q.D.3 : O w l K   +   . "
};
