/* XPM */
static char *result[] = {
/* columns rows colors chars-per-pixel */
"50 50 256 2 ",
"   c #0F7B7F",
".  c #118E94",
"X  c #117C7F",
"o  c #128F96",
"O  c #117A7E",
"+  c #0D7A7C",
"@  c #117D80",
"#  c #10797D",
"$  c #118F94",
"%  c #0D8C92",
"&  c #0B787B",
"*  c #0D8A90",
"=  c #129197",
"-  c #108E94",
";  c #108E92",
":  c #0F8C8D",
">  c #057679",
",  c #0C8D90",
"<  c #129191",
"1  c #037477",
"2  c #108F8F",
"3  c #118A8A",
"4  c #169198",
"5  c #0E8082",
"6  c #2C9DA0",
"7  c #168186",
"8  c #0C7B7E",
"9  c #0D8E95",
"0  c #05888A",
"q  c #08787C",
"w  c #2A9FA4",
"e  c #199595",
"r  c #168E95",
"t  c #078890",
"y  c #07878E",
"u  c #1F8A8D",
"i  c #1C8589",
"p  c #007174",
"a  c #7BD2D6",
"s  c #6AC4C8",
"d  c #31A5A9",
"f  c #259EA0",
"g  c #129294",
"h  c #088C92",
"j  c #078A8D",
"k  c #13888C",
"l  c #057276",
"z  c #32A8AD",
"x  c #1D999B",
"c  c #158788",
"v  c #168488",
"b  c #067D82",
"n  c #98E0E4",
"m  c #89D4DA",
"M  c #6BC7CC",
"N  c #39AAAF",
"B  c #30A4A4",
"V  c #2DA1A2",
"C  c #1E98A0",
"Z  c #278B90",
"A  c #0E8788",
"S  c #137E82",
"D  c #0C7E7F",
"F  c #96DCE2",
"G  c #80D6D9",
"H  c #6CCDD0",
"J  c #72C6CB",
"K  c #5FC3C7",
"L  c #59B8BB",
"P  c #259AA1",
"I  c #02868C",
"U  c #137F83",
"Y  c #067479",
"T  c #90DDE0",
"R  c #8AD9DC",
"E  c #84D8DC",
"W  c #78CED2",
"Q  c #72CED1",
"!  c #72C9CE",
"~  c #68BFC5",
"^  c #59BFC4",
"/  c #4AB7BA",
"(  c #52ACB1",
")  c #2CA3A9",
"_  c #37A7A8",
"`  c #2AA2A1",
"'  c #229B9B",
"]  c #2E989B",
"[  c #1C969B",
"{  c #18969A",
"}  c #169192",
"|  c #148B90",
" . c #078A90",
".. c #0C8C8A",
"X. c #148485",
"o. c #038484",
"O. c #A4EEF3",
"+. c #93E1E5",
"@. c #7CCCD1",
"#. c #59B1B6",
"$. c #4AACB1",
"%. c #39A3A7",
"&. c #249EA6",
"*. c #22979D",
"=. c #289B9B",
"-. c #238E91",
";. c #0A8486",
":. c #1D8186",
">. c #0F8285",
",. c #B7FFFF",
"<. c #B0F6FC",
"1. c #8CDDE0",
"2. c #8FD7DD",
"3. c #78CACE",
"4. c #65BBBF",
"5. c #51B6BB",
"6. c #3FB0B1",
"7. c #16949A",
"8. c #2E9498",
"9. c #1E9194",
"0. c #2D8E93",
"q. c #0D888B",
"w. c #038389",
"e. c #097C7D",
"r. c #006E71",
"t. c #F99527",
"y. c #AAF1F6",
"u. c #A6E6ED",
"i. c #9EE2E6",
"p. c #7DD9DC",
"a. c #75C7CB",
"s. c #60BDC2",
"d. c #5EB4B9",
"f. c #45B0B5",
"g. c #51B1B4",
"h. c #41A8AC",
"j. c #4BA5AA",
"k. c #43A3A7",
"l. c #339FA4",
"z. c #3A9FA1",
"x. c #129398",
"c. c #209697",
"v. c #279094",
"b. c #0B8F92",
"n. c #99E8ED",
"m. c #94E5EA",
"M. c #82D2D4",
"N. c #5BBEBF",
"B. c #4BB1B7",
"V. c #45B1B0",
"C. c #3F9DA3",
"Z. c #259598",
"A. c #1D8D95",
"S. c #F8CC62",
"D. c #F5BA58",
"F. c #F28D26",
"G. c #A8F6F8",
"H. c #98E5E8",
"J. c #8DE2E6",
"K. c #87D2D5",
"L. c #76D1D5",
"P. c #81CED2",
"I. c #3A989D",
"U. c #F3DD93",
"Y. c #21868B",
"T. c #F0D07D",
"R. c #337F75",
"E. c #F8A234",
"W. c #F78222",
"Q. c #F86C16",
"!. c #9DEEF0",
"~. c #87DBE0",
"^. c #95DADD",
"/. c #92D5D7",
"(. c #63C1C0",
"). c #FBEBB4",
"_. c #359B9F",
"`. c #178E8C",
"'. c #0E7577",
"]. c #F4CD73",
"[. c #F9D561",
"{. c #FB8726",
"}. c #F87621",
"|. c #AFFBFF",
" X c #B8F7FD",
".X c #A2E7ED",
"XX c #87CCD0",
"oX c #8DC3C0",
"OX c #FBE4A8",
"+X c #F9EBA6",
"@X c #FADC8C",
"#X c #388C80",
"$X c #57947C",
"%X c #E3C773",
"&X c #1E7373",
"*X c #629472",
"=X c #999968",
"-X c #FBC25B",
";X c #FBBC48",
":X c #F1B23D",
">X c #F8AA3A",
",X c #CC7136",
"<X c #F09927",
"1X c #C4FFFF",
"2X c #80C7CB",
"3X c #70BBC1",
"4X c #41B7BB",
"5X c #42ABB5",
"6X c #1BA0A1",
"7X c #35959C",
"8X c #F8EF9A",
"9X c #9FB191",
"0X c #FBDE7D",
"qX c #BEB87C",
"wX c #D6CA78",
"eX c #7A9A73",
"rX c #568670",
"tX c #718B67",
"yX c #5D7564",
"uX c #F7C85A",
"iX c #B09A57",
"pX c #F7C553",
"aX c #6B6953",
"sX c #F8D24F",
"dX c #FDB14D",
"fX c #F0B949",
"gX c #E6A246",
"hX c #BD8741",
"jX c #9E7441",
"kX c #EDA32C",
"lX c #E2721D",
"zX c #F27819",
"xX c #F4E9B9",
"cX c #A3CBB8",
"vX c #6FBBB5",
"bX c #B2C9AB",
"nX c #83B6A3",
"mX c #B7C599",
"MX c #C1C988",
"NX c #A49786",
"BX c #C5CC80",
"VX c #207B77",
"CX c #D3B774",
"ZX c #AF8B70",
"AX c #FBC86B",
"SX c #ECC568",
"DX c #CDB162",
"FX c #407061",
"GX c #316959",
"HX c #858258",
"JX c #D6AB4C",
"KX c #D5804A",
"LX c #F9793C",
"PX c #DD8238",
"IX c #B36836",
"UX c #ECAA31",
/* pixels */
"  X   O   2X%.*.e % $ . $ c #   X > ] +.[ % . 2 X.# 7 , 9.G.O.[ 3 @ > d.^.%.XX6. .o . $ 3 O         ",
"  X X l j.4.b z 7.% . . $ ; S # X & -.m.C * o < c O b x.m p.T s o.p ( m 7 r.d.L.j j - $ 3 O     O   ",
"  X X q J ] l 6 4 % - . . g c X S 1 ( ,.H t y 0 e.Y %.~.Q b.< M.M s.^.U & 7 f Q a _ r j A O 8       ",
"O X + @ @.u # 8.2 ; . . o ; 3 # p 0.u.J.+.R H ^ s.P.3.) P 6 0 : M.1Xj.1   | f.x.5.p.1.a c.&   X   X ",
"X X + U P.i 7 Z ;.g . - h C ` 8.4.i.B.t C ^ ^ K g.I.q. .2 $.l.b.Z.n i & } N N.w w., f M /.7 & X X   ",
"+   O @ M.8.0.S @ < - < K +.1.E 3X=.h - [ C I ;.l Y 3 4 j %.N P _.2._.] ) [ * d ) x } ..^.( q X & + ",
"U # &   .X(   X @ <  .K XXx x.o w.* o * w 9.g 3 X X 3 o , ' x ..v ^.H h . 9 . . x ' =.u a a u 0.Y.i ",
"0.Y.:.J ,.m @ 1 > o.` +.{ * ; ; o o * P V : ; 5   # 3 o * c.' ..c H.G.g.y * . . % : D p g.F > 8 X.Z ",
"& Z XXF c.a.n j.z.$.n.G.P y = . . % P B : o 3 +   + A = , 6 e o.N.m z T s w % 9 r >.@ Y z. Xa.u q p ",
"2.u.@.i 1 5 O. Xn F ~.m.n d 9 $ % [ d 2 . < >.+   + v = , f x.L n f I { M T J - @ # @ p J ,.O.u.m 3.",
"~ 8.1 + @ X +.g.q.= 9 * N.+.2 r o _ } 9 g 3 + O O   q t w K n.y.P h r % t , a.P.c > > $.T z.X.-.( ~ ",
":.'.+ + & v m A.% . . - b.F B.o.e Z.* ; 2 5 8 X   1 8.L.T a W O.f.y o o $ 2 5 #.F ! @.P.c 1 + q l l ",
"=.3 ..q.A A.R [ % $ . o h h.i.! ^ &.{ c.5 '.&X& > d.2.$.6XV w.N i.6 , o . $ c r.7X,.G e.8 @ # X U U ",
"d } - = j _ 1.o ; o . . . * C s.m.u.M u u R.aX&Xs M.v l D l.' o.L R b.. . - 2 7 b E _.l O 8 U | g ; ",
"d r . r , K.N.t o $ - . - o t x.z 6 i.k.5 yX,XNX4.D & @ + 3 d $ j 2.g.A o o $ o * W ] 5 c : $ = . . ",
"4X*.t j (.K.2 ; . . . . . $ ..l.P b #.|.+.ZXLXKXGX8 X   X & &.5.$ B.m  .* h % % x.p.` % = o . . o - ",
"_ V N ! y.6 y = . . . o o % < l.= 7 Y.y.oXIXQ.}.jX&X  O X & &.z =./ +.) _ z f e 9 @._ y r o o - I { ",
"L.E y.1X!.6 } * b.; ; * , 4 _ e 9 k -.H.rX,XQ.Q.lXaX'.X # X =.$ 0 V m.f { x ' 6 d K 1.{ y y y x ^ E ",
"5Xl.u $.n B _ 6 -.9.e P N B.e : o : v.R HXlXQ.Q.}.,XFX8 S v.e ; * B 1.9 * % % * } C s 1.H ^ Q R Q 4X",
"Y 8 & r.~ h.> i :.:.v c.x N 4 - o , B oXhXW.zX}.W.W.jX:.Z k 9 4 I N.3.t } r o = = - 0 h.a ,.m.C y b ",
"@ O @ 1 $.4.1 + + + & O : *.=., o 0 J 9XgXE.zX}.{.{.PXyX& : $ 0 *.F B q.X.v k 3 | k 9.9.f n -.q X O ",
"    @ 1 z.4.> @ X X D + k } V : y f./.iXD.dXF.W.{.t.{.hXR.h [ / H.s...X.# O # # # # 0.+ 3Xj.p S     ",
"O   @ l k.4.Y @ X O @ e.;.I w d f.|.cXJXD.D.E.W.F.t.t.F.tXz R J.n.e 3 O     X   + 7 u >.G i + X X X ",
"    @ l g.@.1 @ @ @ q > B ~ E J.+.M 9XD.D.D.>XF.F.t.t.F.iXoXw &.G < 3 #   X   O # S 7 v G c + X X   ",
"O   X & i F C.p Y > v.! ~.^ ` = 7.Z.=X-XSXAXdX<X<X<Xt.t.gX$XI l.K.< : #   X X O + i 7 v a v & X X   ",
"  O   X 1 z.u.s s.W /.( 9 y * ; h #XCX].T.0X-X>XkXkXE.t.E.tX% { T V A 5   X   X q v.7 7 E i + X X   ",
"O     X + 7 n.!.J d.7 b = o o o 9 $X%X@XU.@XS.;X:XUX;X>XE.=X|  .L n d | q + @ + + Z + Z n u & X   O ",
"      X + i K.u p p 5 r . . . o h *X].OXOXU.].uXfX:X-X;X:X=X| - * s <.n.m ] p :.Z 7 r.~ O.v + X     ",
"  X X @ 1 _.a.q 5 k $ o - . . o h *XT.).xX+XT.S.uXpXS.pXfXeX% $ . 0 M.Q z.H.k.v q p C.<.1.U         ",
"# +   # > W 4.r.k g o . o $ $ $ h $XT.OX).).U.].S.sXS.S.DX#X9 . = 0 / s A k.2.! d.@.<.,.#.Y @   X X ",
"U X.5 O (.|.2.5.x 9 . - - . o . 9 #XqX@X+X).+XT.[.sX[.%X*X;.= . 4 w.s.! { b :.k.( %.J <.Z.> @ O   + ",
"u   %.2.3.%.` L 3.7., 4 4 ; % . 9 9.bXU.U.8X8X0X[.[.%XeX'.;.o % I h.n ) t = $ 0 o.> Y.F i e.X   O u ",
"1 8.m 6 : V e : L M w d d d P 4 0 H F nXmXMXBXwXwXqXrXi u 9.= C ^ R / - . . o o 4 $ *.R U + O & Z i ",
"D @.] t o = x V z a { 9 o 4 ' B N 1.z b 0.vXR.R.R.VXq 5 `.g K T H &.w , o . . . . % , F g.b 8 Z u & ",
"4.( 0 4 . . ; % : s *.q.| . , b.B.G o | 1 $.C.> 8 8 @ `., V.3.[ [ 5.x j % % ; % ; 9.P / y.G ~ L q e.",
"d.;.= . . . . 4 ;.L j.r.S k o - , a &., X v.s 8 X + >.< t J 6.w.g K N 6 Z.' f f B _ A.` O.J.E H.J L ",
"> : . . . - 2 3 > v.m -.1 S A., e E z 2 A 7 ~ U   D : o o.5./ o.B 6.l.A.6 / V.' h I . @.V.q.2 Z j.I.",
"X.$ ; o . $ | + O q ] K.h.Y b e W 5.` < A Y #.z.r.5 < r j Q N x V D l j.a ~ s E M z Q N.w.r . , 5 -.",
"; . . o . $ A #   O > Y.a.a.(.a B...d = : & u J L =...0 f.W 4 V >.l ( W v > 1 A.(.!.,.f.y r o = < f ",
"4 7.- % . < ;.#     @ & 1 @.u.*.t 4 w $ : D & 7 #.T G p.i.6 f c.l ] m + & @ X D o.) y.n C h  .* 2 ` ",
"f w z x ; g 3 + O     @ l k.s w.o r c.; < >.O > c .X<.<.y.6X%.c Y J C.1 @   X 8 :  .M ,.O.G a z 7.L ",
"I w.7.) C 0 b.c #   O @ > 7Xs.y - 6 e 9 2 X.# i /.#.[ 7.! M ' 8 8.3.8   O X   # q.j G <.s V.V.3.M ' ",
"5.^ H H a K 6 2 5 O   @ p $.s 5 e ) $ . $ `.l d.#.b 2  ., G 5.e.2XC.> @   X   X o.V.n 6 t y 0 =.L ! ",
"6.N w w w 5XQ K } + + 1 :.i.~ r.`.Z.% . o 0 ] W D k g o t _ T M a.& @     X O S g ~.B A r ; P ` j w ",
";.0 , % % t < ! 6.6 u $..X XF ( 6 f 2 .  .6.a 8.Y A < . ; 7.!.G.-.q X       # b H K t r . 2 B k k >.",
"O # c = . r j / G L.M.i.#.I.k.~ 2.W 2 j ! W e q # 5 < . % x.m.K b O   X   X > h.m g - ; j =.-.+ O # ",
"    + k = $  ./ O.p.^ 7 p S v p i P.L.Q s 0 , 3 O 8 : $ % 4 R N >.O   O   O U T %.I o x V ] &   O O ",
"  X # 5 < . * M 6.w I : X   Z :.1 k R <.C * = | X 8 q.o * &.E &...5 e.O @ p #.H : w B N e O   X     ",
"  X   # k h h.H ` { . g A & S Z 0.C.*.n.&.* . < X.+ >.= y ) p.4 : D 8 @ > 0.u.f.d f g : 3 #       O ",
"  O     # C Q z V : . o 2 O # e.v.I.*.J.) * . < X.# S o * 6.p.4 ..D X q I.O.G./ } % . $ 3 #   O X   "
};
