/* XPM */
static char *result[] = {
/* columns rows colors chars-per-pixel */
"50 50 256 2 ",
"   c #107C7F",
".  c #107B7E",
"X  c #118F94",
"o  c #118E95",
"O  c #128F96",
"+  c #0E7A7D",
"@  c #117D80",
"#  c #0D8C92",
"$  c #108D94",
"%  c #0C787C",
"&  c #0F8E94",
"*  c #129197",
"=  c #11797D",
"-  c #0E7C7E",
";  c #037175",
":  c #0C8B8E",
">  c #128B8B",
",  c #129191",
"<  c #127F82",
"1  c #088990",
"2  c #0B7B7D",
"3  c #09777A",
"4  c #169197",
"5  c #0D8A91",
"6  c #158186",
"7  c #158E95",
"8  c #07878E",
"9  c #198489",
"0  c #037477",
"q  c #88D5DA",
"w  c #0E8E90",
"e  c #8EDDE1",
"r  c #1E989B",
"t  c #129194",
"y  c #0F8E8D",
"u  c #0A7C81",
"i  c #08787C",
"p  c #1C9595",
"a  c #088C91",
"s  c #05888A",
"d  c #0F8283",
"f  c #0D7F81",
"g  c #077478",
"h  c #2FA4A8",
"j  c #2FA4A4",
"k  c #29A0A1",
"l  c #17959B",
"z  c #0B8F93",
"x  c #138E8F",
"c  c #1D898C",
"v  c #128988",
"b  c #7ACDD1",
"n  c #5CB5B9",
"m  c #34A6A8",
"M  c #2A9EA4",
"N  c #2E9DA1",
"B  c #299E9F",
"V  c #239C9B",
"C  c #0C8B8B",
"Z  c #0F888B",
"A  c #02858B",
"S  c #1C8789",
"D  c #138586",
"F  c #1A8186",
"G  c #037779",
"H  c #006F72",
"J  c #96DCE2",
"K  c #8ED8DD",
"L  c #73CDD1",
"P  c #6CCDD0",
"I  c #72C6CB",
"U  c #5CBFC1",
"Y  c #51ADB1",
"T  c #229EA0",
"R  c #24989E",
"E  c #2F999B",
"W  c #169597",
"Q  c #258F92",
"!  c #1F8F91",
"~  c #068A8D",
"^  c #028485",
"/  c #A5E6ED",
"(  c #97E0E5",
")  c #6BC5CA",
"_  c #5DC2C7",
"`  c #1E999E",
"'  c #2E9397",
"]  c #179292",
"[  c #0B8688",
"{  c #95E5EA",
"}  c #85D8DD",
"|  c #7FD5D6",
" . c #7CD0D6",
".. c #81CFD3",
"X. c #72C9CE",
"o. c #6ABFC5",
"O. c #64BBBF",
"+. c #4AADB1",
"@. c #39ABAF",
"#. c #4AA5AB",
"$. c #28A1A8",
"%. c #39A6A7",
"&. c #1E959A",
"*. c #238A8F",
"=. c #FA8D20",
"-. c #F6690B",
";. c #A4EDF2",
":. c #9CE1E4",
">. c #63C0C3",
",. c #47B6B8",
"<. c #47B1B5",
"1. c #40B0B1",
"2. c #43A4A8",
"3. c #33A0A4",
"4. c #249BA3",
"5. c #2CA3A2",
"6. c #38979E",
"7. c #0E8F95",
"8. c #2C8E93",
"9. c #288B90",
"0. c #138B90",
"q. c #15868A",
"w. c #097E7D",
"e. c #F18C26",
"r. c #F37F1E",
"t. c #F8841A",
"y. c #F47F13",
"u. c #B7FFFF",
"i. c #ACF8FC",
"p. c #ABF2F6",
"a. c #92E1E5",
"s. c #78D1D5",
"d. c #87D1D4",
"f. c #78CBCE",
"g. c #7FC9CE",
"h. c #6CC8CC",
"j. c #50B5BA",
"k. c #52B1B6",
"l. c #36A6AD",
"z. c #30A9AB",
"x. c #3AA1A5",
"c. c #1F99A1",
"v. c #FDE089",
"b. c #F99626",
"n. c #B3F5FB",
"m. c #9AEAEE",
"M. c #86DBDE",
"N. c #7FD7DC",
"B. c #66C3C7",
"V. c #59BABC",
"C. c #41A8AD",
"Z. c #409FA3",
"A. c #2A9B9D",
"S. c #259498",
"D. c #088189",
"F. c #037D81",
"G. c #CBBD6F",
"H. c #F2A840",
"J. c #F69E32",
"K. c #A6F2F5",
"L. c #9EE5E7",
"P. c #95DADC",
"I. c #7AD7DA",
"U. c #8FD4D9",
"Y. c #76C8CA",
"T. c #4BB8BD",
"R. c #5AB0B5",
"E. c #81B9AD",
"W. c #389D9F",
"Q. c #1D8D96",
"!. c #FBD88E",
"~. c #338680",
"^. c #EF9C3E",
"/. c #F6922F",
"(. c #F27617",
"). c #E96216",
"_. c #F4600C",
"`. c #9DEFF1",
"'. c #8CE2E5",
"]. c #59BCC4",
"[. c #43ADB4",
"{. c #4E8575",
"}. c #6C7C64",
"|. c #E19A3F",
" X c #E87828",
".X c #FD9027",
"XX c #F18525",
"oX c #E68724",
"OX c #F88523",
"+X c #F97312",
"@X c #FA5908",
"#X c #B6FAFF",
"$X c #59ABB0",
"%X c #FEE6A9",
"&X c #FADD9C",
"*X c #91B199",
"=X c #79A593",
"-X c #23838A",
";X c #27867F",
":X c #ECCD7D",
">X c #F7C87A",
",X c #6A867A",
"<X c #DCC678",
"1X c #428374",
"2X c #176E6F",
"3X c #F7CE67",
"4X c #276A67",
"5X c #95805C",
"6X c #F5B853",
"7X c #E8A952",
"8X c #99744D",
"9X c #DD8C3C",
"0X c #CB733B",
"qX c #BD6D32",
"wX c #D7772D",
"eX c #C55D21",
"rX c #DB621D",
"tX c #EE6A19",
"yX c #C4FFFF",
"uX c #72D1D1",
"iX c #70BBC1",
"pX c #7FBABD",
"aX c #469A8F",
"sX c #CDC382",
"dX c #FCD874",
"fX c #167574",
"gX c #82A36F",
"hX c #EFBF6A",
"jX c #FBC068",
"kX c #E2B363",
"lX c #416A5E",
"zX c #CA985D",
"xX c #EEC15C",
"cX c #FAC059",
"vX c #777759",
"bX c #465E50",
"nX c #F8AA4D",
"mX c #73674D",
"MX c #BA884C",
"NX c #A45F30",
"BX c #9CD1CE",
"VX c #90CCCA",
"CX c #5A9D8E",
"ZX c #A79E8B",
"AX c #9E8E7B",
"SX c #AEB46D",
"DX c #2D746D",
"FX c #969E6C",
"GX c #407167",
"HX c #61725E",
"JX c #D3A65D",
"KX c #BE7B58",
"LX c #556553",
"PX c #B38249",
"IX c #9B6340",
"UX c #D1742F",
/* pixels */
"  .   . u g.x.R p # X X X q.= .   3 E a.r # o w D = 6 w p K.K.&.> @ G n P.x.d.1.1 O o X > =   -   - ",
".   @ ; #.O.F.l.l # X o o x < +   % ! { c.5 4 , S = u * q I.e o.^ H $XU.6 H n s.~ ~ o t > =     .   ",
".   . i I E ; N 4 $ o X o t q.  < 0 Y u.P 1 8 s w.g x.M.L z , ..h.O.P.< 3 6 T uX| %.7 ~ Z = - .   . ",
".   + @ b *.% ' y x o X O w > + ; 8./ '.a.M.P U U ..b h R k s x | yX#.0 - 0.<.* j.N.e  .S.%   .     ",
"    % < ..S F 9.d t o & a ` 5.' O.:.<.1 c.]._ _ k.6.Z a y +.3.z S.:.S % ] @.U M A a T h.U.6 %       ",
"+   . @ ..' 8.< @ , $ , >.a.e } iXA.a $ &.` A D.; g > 4 : %.@.R 6.K N E j &.: m h r , C P.Y i   % + ",
"< + 3   / Y -   @ , a B.d.r * O D.5 O 5 M ] t v   . > O # V r C 9 P.P a $ & $ $ r V B *. . .c 8.c 9 ",
"8.-XF I #Xq @ 0 g ^ k a.l : & $ O O : 4.k y x f . + Z O 5 r V y v { p.k.8 5 X X # C w.H k.J 3 2 6 *.",
"3 Q g.J &.Y.J #.x.+.m.p.4.8 * $ o # R j : O > +   % [ * w B p ^ U q z.K B.M # 7.7 d @ g W.#XI ! i H ",
"K / g.9 0 d ;.#X( J M.{ :.h z X # &.m y X , d + . % 6 * : T * V.( T A l h.e I & @ = @ ; I u.;./ q f.",
"o.' 0 +     ( k.Z * z 5 V.a.w 7 O m ] & t v + . - 2X4X~ N _ { p.4.a 7 $ 1 w Y...v G G +.e W.6 Q Y B.",
"F 3 + + 3 9 q ! # $ X $ z J <.^ ] S.1 & x f +   % bX}.P e s.b ;.[.8 O O X w d R.J X.g...v 0 2 3 ; ; ",
"V v C C v ! K ` # X X 7 a C.L.X.U $.l p < 3 @ u 2X8XAX#.T j ^ @.L.B : O $ t q.H 6.u.| 2 2 @ =   < < ",
"z.] & * ~ %.e O & O o o o : c.U { / ) c *.S ; u ,X0XLX; f 3.V ^ V.q z $ X & x 6 u } W.; = - 6 0.t w ",
"l.7 X 7 : d.U 1 7 o & X o O 1 W z.B :.2.f ' Y pXKXeXlXu = > m X ~ K k.[ O o X O 5 b E f D > X * o o ",
",.R 1 ~ >.d., w o o o X $ X C 3.4.F.R.i.m.q o.,XrXeX4Xu . 3 4.j.X +.q 1 5 a 5 # * N.5.# * O o X O & ",
"m 5.@.X.p.M 8 * o o o o O # , 3.* 6 -Xp.g.F 2XIX@XNXfX  . % 4.l.A.T.( h m z.B p 7.b %.8 7 O o $ A W ",
"s.} p.yX`.N t : z & $ 5 # 4 m p & > Q L.*.; mX)._.mX%   % . A.X s 5.{ T &.r V A.h _ e l 8 8 8 ` ].} ",
"[.3.*.+.( j m N Q ! p c.C.j.W : O y Q e 6 4XqX@X_.vXu + < ' p # : 3.e 7.5 # # : ] c.) e P _ L K L ,.",
"g 2 % H o.2.3 9 F F 9 p ` @.4 $ 7 : 3.VXbXNXtX@X).HXQ.*.9.> 7.4 s U f.1 t 7 O * * & s C.I.u.{ c.8 u ",
"@ . @ 0 +.O.0 + + + % . C R V w 4 s I *XeX).-.@XrXlXu . - > o s r J j C D 9 q.> 0.> ! ! k ( ! i   . ",
"  - @ g Z.O.3 @     - 2 Z ] 5.: 8 [.P.8XtX-.-.-.wXGX2 f x # r T.{ U C D % . + + = = 8.2 iX#.; @ .   ",
". - @ ; 2.O.g @   . @ w.[ A M h <.i.BX0X-.-.+X+XUX1X$ 4 z W.pX'.m.p > =   .   . + 6 c d | 9 +       ",
"  - @ ; Y b 0 @ @ @ G G j >.} a.a.P =X X-.(..Xt.wX{.z # R ZX5X' | , > = .   . + + < F q.| q.+     . ",
".     % S J Z.H g G 8.X.M.].k * W T }.).+Xr..Xt. X}.# z =X9X0X,X ., > =     . . % S F 6  .9 %   . . ",
"  .     0 x./ ) U b U.Y o 8 5 $ # ! 5X_.+Xr.t.t.XXPXDX{.zX X XvXq j [ d .       i Q 6 6 q S %     . ",
". -     + 6 m.`.I n 6 F.* O O X 7.~.qX-.(.r.y.OX/.oXqXwXXXr.OX8X$X( h 0.i 2 @ 2 + 9.% 9.( c %     . ",
"  -     + 9 d.c ; H f 7 X X X X 7.{.rX_.(.OXt.=.J.e.XXr.r.t.OXMX;XB.n.m.U.E ; -X9.F H o.;.9 %     . ",
"    . @ g E I i f v X O & o X X & }.)._.r.=.=.=.b.e.e.r.y.y.=.9X~.s d.L W.L.Z.9 i ; Z.n.e < .     . ",
"+ + . + G b O.H c t O X O o X X 0.5XtX-././.=.=.b.b..Xt.y.y..X|.1XA j.B.v 2.K X.n b n.u.R.g @ -     ",
"d 6 f . >.i.K j.r $ X & & o O & S MX(.(.nX^.e.b.b.b.b.t.y.y.=.^.{.D.O.L l u F 2.Y %.I n.S.3   . . % ",
"c   x.K f.%.k n f.l 0.4 4 & 5 7.;XzXe.oXjX7X9XJ.J.J.J.e.y.oX=.^.1Xl.:.h 1 * X s ^ G S J 9 2   - . c ",
"0 ' q N y N p : n ) M m m h R * ~.JXH.|.>XhX|.H.H.H.J.e.XXe./.7XE.} ,.$ o X O O 4 X &.q < % . % 9.S ",
"f g.E 1 O * r k z. .l & O 4 V h aXkXcXxX:X!.hXcX6X6XH.oX/.^.^.kXE.$.M # O o X o X # w J Y u 2 9.c 3 ",
"O.Y s 4 X X $ # : ) R Z 0.X w z 2.sXxXdX:X&X!.!.!.>X7X|.nXH.6XFX! T.r ~ # # & # & p R ,.p.| >.V.i 2 ",
"n [ * X X o X 4 ^ n #.H < > O o 5 *X<X3Xv.&X%X%X%X&X!.>XjX3XG.~.z _ @.B S.V T k j %.Q.k ;.'.M.( I n ",
"G : o X X & x > 3 Q q Q 0 < Q.a W ..*XG.:Xv.v.v.v.v.v.dX3X<X=X^ j 1.3.Q.B ,.<.` a A $ b +.Z y *.#.6.",
"D X & O X o x + . i E d.#.g F.W s.j.A.aXgXSXsX<XG.G.G.G.gXE.j r 5.w.g #. .o.o.} h.z.L V.A 7 o # f Q ",
"$ $ o O X X [ = - . 3 c Y.Y.>.s.,.C m 7.[ fX~.E.E.CX;Xw.C.L l N d ; Y b 9 G 0 Q.>.`.u.<.8 7 O * , B ",
"4 W & # $ , d %   . @ % 0 f./ &.1 4 $.X y f i 9 k.e I.I.L.B B p ; E q 2 3 @   w.^ h K.( ` a 1 : x k ",
"B M l.` $ t > + .   . @ ; 2.) D.O 7 &.& , d = 3 S / i.n.K.T %.v g I Z.0 @     + > 1 h.u.;.|  .z.l V.",
"A A l h ` s z 9 % - + @ 3 6.>.8 & B ] & , D % S U.k.l l X.h.V 2 ' f.u   .     = Z ~ | i.B.1.<.f.) V ",
"T.U P P I._ N y d .   @ ; +.) f W $.X $ X x ; n R.F.y a # q j.w.g.Z.G @ .   -   ^ 1.:.N 1 8 s A.n X.",
"1.@.M M k [.L _ ] 2 + 0 F :.o.H > S.# X O s E b u Z t O 1 %.e ) Y.i @   .   . < , M.j [ 7 w 4.k ~ $.",
"[ [ w # # 8 , X.1.N c +./ n.J $XN T x $ 1 1. .' g D , o $ W `.K.! i   . .   = F.P _ 1 7 o , j q.q.D.",
". = v * o 7 ~ ,.N.s...:.n 6.2.o.K L y : X.L W i = d , o # * { _ u =     .   3 C.q t $ w C V Q 2 . + ",
"-   + Z * X 1 ,.;.N.].6 ; < D ; 9 ..s.L ) s w v = - > o $ 4 K l.D.. - . . . < e m A O r k E %   . . ",
"  . + d , X : h.1.M A y   - 9.F 0 c } i.c.5 * 0.@ 2 Z O 5 4.} $.y < w.+ @ ; R.P : M j @.p . +       ",
".   . = > a C.P 5.W X t D % < *.8.x.r m.$.5 o , D + D * 8 $.N.4 y f 2 @ G 8./ <.h T t : Z = -   . . ",
"  .   . + ` uXl.5.: X O x . + 2 Q 6.R '.$.5 o , D = < O 5 @.N.4 C -   i 6.;.i.T.] # o X v =   .   . "
};
