/* XPM */
static char *result[] = {
/* columns rows colors chars-per-pixel */
"50 50 248 2 ",
"   c #160003",
".  c #1D0106",
"X  c #1D030B",
"o  c #240206",
"O  c #2B0205",
"+  c #280806",
"@  c #24050B",
"#  c #2B050B",
"$  c #25090C",
"%  c #2A090D",
"&  c #330305",
"*  c #3B0104",
"=  c #33030A",
"-  c #3B010A",
";  c #360A0D",
":  c #260710",
">  c #3A0913",
",  c #3D1E22",
"<  c #3E2023",
"1  c #440105",
"2  c #4C0406",
"3  c #410309",
"4  c #590707",
"5  c #451718",
"6  c #670605",
"7  c #760807",
"8  c #7A1206",
"9  c #671410",
"0  c #512B1B",
"q  c #592E1D",
"w  c #602C1C",
"e  c #451D21",
"r  c #482728",
"t  c #5B3529",
"y  c #523033",
"u  c #543737",
"i  c #69312C",
"p  c #683B29",
"a  c #723E27",
"s  c #673A37",
"d  c #5F423F",
"f  c #79482C",
"g  c #6C443D",
"h  c #7C4833",
"j  c #775134",
"k  c #553C40",
"l  c #5B4141",
"z  c #72504D",
"x  c #7E655F",
"c  c #8D0C07",
"v  c #891607",
"b  c #991707",
"n  c #A61707",
"m  c #B81606",
"M  c #9B220A",
"N  c #952D11",
"B  c #A72509",
"V  c #B82809",
"C  c #B63014",
"Z  c #913729",
"A  c #A53A26",
"S  c #CA1C08",
"D  c #C72707",
"F  c #D92A07",
"G  c #CA3607",
"H  c #D73708",
"J  c #CC3E1B",
"K  c #E72B08",
"L  c #E93A09",
"P  c #F83A06",
"I  c #854C2F",
"U  c #984A2F",
"Y  c #854C35",
"T  c #8C5334",
"R  c #875739",
"E  c #965936",
"W  c #945C3C",
"Q  c #B54E2C",
"!  c #A24B35",
"~  c #A85938",
"^  c #8F603E",
"/  c #98633D",
"(  c #A7643E",
")  c #B6643B",
"_  c #D9460A",
"`  c #CF4113",
"'  c #EA4507",
"]  c #F84B06",
"[  c #E75408",
"{  c #F75608",
"}  c #E35019",
"|  c #FB6308",
" . c #FE7B09",
".. c #F56A12",
"X. c #C65135",
"o. c #C5683B",
"O. c #CF713A",
"+. c #865946",
"@. c #995945",
"#. c #935048",
"$. c #865C56",
"%. c #B25D42",
"&. c #A85E59",
"*. c #8C6247",
"=. c #9A6644",
"-. c #8B645B",
";. c #95655C",
":. c #9E7152",
">. c #A46B45",
",. c #A76946",
"<. c #B66B47",
"1. c #A9764A",
"2. c #B87847",
"3. c #B4734D",
"4. c #BA734C",
"5. c #BC7C4C",
"6. c #A86559",
"7. c #A77957",
"8. c #B87953",
"9. c #8B6963",
"0. c #946D67",
"q. c #967269",
"w. c #9D7C73",
"e. c #AB6864",
"r. c #B76A67",
"t. c #BC6E6B",
"y. c #A5776A",
"u. c #B9736C",
"i. c #AD7B74",
"p. c #B87975",
"a. c #CF6D48",
"s. c #D36C45",
"d. c #C67848",
"f. c #D37649",
"g. c #D47B4B",
"h. c #CA7657",
"j. c #C47D54",
"k. c #D57854",
"l. c #E47E5C",
"z. c #C16D6C",
"x. c #C7776A",
"c. c #BE8D3F",
"v. c #FA8B07",
"b. c #CB8B3E",
"n. c #BC8449",
"m. c #BF9047",
"M. c #BB8656",
"N. c #AE8567",
"B. c #BA8564",
"V. c #BD906D",
"C. c #A8867B",
"Z. c #B7877A",
"A. c #C88649",
"S. c #D5854B",
"D. c #C69649",
"F. c #D29A49",
"G. c #C38353",
"H. c #CA8454",
"J. c #C5855A",
"K. c #CA8A58",
"L. c #D68955",
"P. c #CB955A",
"I. c #D49B53",
"U. c #D89558",
"Y. c #DA945B",
"T. c #EA9054",
"R. c #E49958",
"E. c #D4A54B",
"W. c #DAA455",
"Q. c #D3AA51",
"!. c #ECA757",
"~. c #E7A859",
"^. c #E4B759",
"/. c #C58761",
"(. c #D58B63",
"). c #C79665",
"_. c #CC9A69",
"`. c #D79A66",
"'. c #C89A72",
"]. c #E38A64",
"[. c #E69A66",
"{. c #DAA569",
"}. c #DDB46B",
"|. c #DCA672",
" X c #D2AF77",
".X c #E6A767",
"XX c #F4A96A",
"oX c #E8B669",
"OX c #F5B76A",
"+X c #E4A775",
"@X c #E3AC74",
"#X c #E5B775",
"$X c #EDBB7A",
"%X c #F4B972",
"&X c #F1BD79",
"*X c #F5C85E",
"=X c #F1CB6E",
"-X c #ECC37C",
";X c #F4C979",
":X c #F6D37B",
">X c #F8D77C",
",X c #FDE66B",
"<X c #FDF77D",
"1X c #B97D80",
"2X c #AB8984",
"3X c #B98B84",
"4X c #A9928A",
"5X c #BA9285",
"6X c #B6978C",
"7X c #BC948C",
"8X c #BB9994",
"9X c #BEA082",
"0X c #BEA395",
"qX c #C1938D",
"wX c #CB948F",
"eX c #C39A8A",
"rX c #C69A94",
"tX c #C6A697",
"yX c #CCA49B",
"uX c #CAAB9B",
"iX c #CCAF9A",
"pX c #D2A79C",
"aX c #D7B89B",
"sX c #EABE81",
"dX c #CAAAA3",
"fX c #D1AAA3",
"gX c #CCB4A8",
"hX c #D5B8A9",
"jX c #D3BDB3",
"kX c #DABDB6",
"lX c #F3C786",
"zX c #F0CD82",
"xX c #F7F386",
"cX c #DDC4A8",
"vX c #D3C1B5",
"bX c #DBC3B4",
"nX c #DCC6B8",
"mX c #DDC9BB",
"MX c #E1C8BD",
"NX c #DBCEC4",
"BX c #E4D2C6",
"VX c #E7D5CA",
"CX c #E9D5CC",
"ZX c #EBDBD2",
"AX c #F6E7DA",
"SX c #F7EBE1",
"DX c #FBF2E8",
"FX c #FFF5F1",
/* pixels */
"F B 4 1 + + $ $ + + + 9 L 4 + % % % = % & O 6 P P ] ] c 2 * * 2 6 L b & % + @ : : @ : : $ $ + 2 8 [ ",
"[ b 8 8 4 * + & 3 * 1 B H 1 $ + # . . > r g E s.X.O.o.~ X.Q C H _ F c + % @ @ @ : @ @ @ $ $ 2 v G v.",
"v.L K G b 7 7 b n V _ | { v 1 o o y *.7.*.*.W Y ~ / Y +./ ,.8.k.} F b * @ + + @ + @ @ @ X 2 V { v.v.",
"8 v G { ] K L { [ _ V V V _ V A >.1.R R 1.j 0 g XX`.p 0 j 1.h R 2.l.J 4 = o @ : @ @ + - 8 _ | H n 8 ",
". @ & 6 B [ | [ 8 y 3 # O 1 <.).>.=.t j W.|.M.Y ,.=.R M.{.P.f g =.=.P.o.b 7 4 w y * 6 B { H 6 1 = X ",
"$ $ $ @ O b | G - 2Xz . @ $.:.q R {.^ f _.f T M.W E M.T f `.a :.{.f q 8.h.D F h.e.D ' L v = : : : : ",
"$ @ + % + 1 L G 5 rX4X% *.3.R j W >.T :.W t t / j.2.^ q d / / T 1.R j T 1.+.9 6XqX..{ 7 # $ @ @ @ @ ",
". @ X o $ . 8 F z dXNX+.W p `.P.1.=.W R _.f f I 3.>.I p I P.j ^ >.7.`.M.a / z NX8XO.D 1 + # @ @ @ @ ",
"X X $ X @ @ 3 D u.fXSX7.q g f T @.^ ^ p 1.E ^ I =./ f / / =.t ^ W >.Y I p q N.AXrXx.n @ # @ @ : X X ",
"X $ X : @ X 2 X.7Xi.ZX8XM.1.R R E R 7.f f 1./ T M.M.^ / ( f j 1.I W T R M.7.gXmXC.wXN @ % : X : : X ",
"X X : X o @ 8 h.8X7.gXNX>.G.j q I R =.N.N.7.+.T 8.1.I *.N.:.M.W W f q +.M.:.ZXeXy.rX! & $ @ . X X X ",
"X X X X # 6 V x.3X/ N.VXz R p / hXVXN.*.cXgXN.dX9X9X0XN.vXcX^ C.CXiXW p f ;.ZXN./ qX&.* @ # @ @ X X ",
"$ X + = 6 D Q Z.y.R *.fXy.q h M.iXFXcXT V.aX XDXDXDXSX_.cXM.R MXDX X7.I 0 2X8X+.I y.i.9 o @ # @ X + ",
"& 3 6 M ' O.6XdXgXnXjXkXmXq.R cX5XV.N.tXy.'.).cXSXSXaX'.'.C.tXN.N.0XiXf w.nXjXjXvXgXfX6Xi O @ + # = ",
"D G ' L G A 9.-.9.0.0.0.q.;.U tX0XU B.cXN.7.1./ ).B./ 7.3.Z.cXN.U dXeXY ;.q.0.0.q.9.9.9.A m 7 6 b V ",
"v v 6 1 O & r z s +.z s g f >.>./ 7.1.>.>.1.>.1.( ( ,.>.1.,.=.1.1.=.>.,.a z s h Y i z < - B L P m b ",
"X . X X X X r rXe.@.&.i.y.~ 4.8.G.M.J.J.M.K.( 2.S.A.<.) H.J.m.M.8.M.8.4.~ 5X0.&.#.i.7X5 X # b H 1 # ",
"# @ : @ : X y hX3Xu.u.qXeXa.g.d.{.-X-X-X@XL.Q O.!.T.s.) S.|.sXzXsX+Xd.g.d.pXi.u.u.wXrXe O @ 4 V 3 = ",
"# # @ @ X . u kX3X5XZ.5XeXg.S.H.|.lXzXlXoXT.) g.!.!.f.X.Y. XlXlXsX+XH.S.g.pXi.Z.5X3XfX, @ # 2 S 2 # ",
"% # @ @ : . u BXi.w.q.rXeXg.S..X#X-XxX>X-XXXo.L.XX!.T.o.XX#X:XzXzX+X[.S.g.hXZ.y.w.7XjXe > % 4 F 6 & ",
"> = # @ @   k BX3Xe.r.rXtXo.S.@X+X&XlX;X&X%Xf.U.OXOXU.f.OX$X&X;X$X`.+Xk.a.hX3Xe.&.rXvXe : > 7 P v - ",
"2 1 = = = * g VX3Xp.p.yXtXf.U.#X(.k.].l.+X&Xf.W.=X=X{.g.%X|.l.l.h.x.+XL.S.hX3XZ.p.qXjXe 3 4 m ] F 6 ",
"G S B n B n #.NX3Xe.u.dXuXY.R.@XsX|.+X+XlX%Xg.}.;X;X}.S.XXlX|.+X`.sX+XR.`.hX7Xr.e.rXjX9 6 m L ' ] ' ",
"P V F P 8 @ s BXwXt.u.fXuX.XY.G.|.|.|.sX{.R.S.@X;X;X#XL.P.|.|.|.|._.8.Y..XhXqXz.z.fXjXC S D 9 2 4 J ",
"S = b n X   l VXqXt.u.fXuXY..XA.P.S.L.S.L.Y.U.oX:X:X#XU.I.A.S.A.S.j.d.[.`.hX7Xu.t.dXjX} P 7 = = @ 7 ",
"' _ ] L M v #.NXeXt.z.uXiX{.oX~.oXoXOX*X*XoXS.#X:X:X#XU.OXOX*XOXoXoXW.+X{.hX6Xt.t.dXjX` P K D n c S ",
"] P m b v v ! NXqXr.u.fXaX#X}.D.b.E.E.E.D.Q.I.#X:X:XoXW.Q.D.E.F.E.c.m.{.$XbX7Xu.t.yXjXC n n n S P P ",
"P n 3 3 = @ d VXrXe.u.pXhX#X=Xc.b.~.OX~.A.E.W.oX:X:X-XW.Q.O.~.OXW.) c.oX$XmX7Xr.e.dXkX5 * - - 4 n K ",
"n b @ > > o s CXrXr.u.fXhXI.oXF.A.OXOXOXS.^.I.}.>X>X}.W.^.S.OXOXOXO.D.}.(.nX8Xt.r.fXkX, # > # > 1 6 ",
"9 m 2 - - 6 A VXwXz.z.yXhX@X#XE.g.OXXXOXg.^.I.}.xX>X#XW.*XD.OX~.XXd.D.oX@XnX7Xz.t.fXkX, # = # # # % ",
"2 { _ V G ' O.CXwXt.z.tXiXoX=XD.S.*X*X*XS.^.W.}.:X>X}.W.^.S.*X*X^.d.m.oX#XnX3Xt.t.fXjX, # # % % = = ",
"M ` M b v 6 Y CXrXt.u.uXiX{.oXF.D.<XxX<XF.^.I.}.:X>XoXW.^.F.xXxX<Xn.D..X+XmX3Xt.t.yXjX, + % % + # 3 ",
"M 3 = = #   u CXqXZ.p.pXyXH.~.I.b.,X<X,Xb.^.I.{.:X:X}.I.^.b.,X,X,Xb.A.{.K.mX3Xp.p.fXkX5 O & & 3 6 B ",
"# @ @ : : @ u BXqX&.e.pXuX`..XD.O.!.W.!.b.~.D.{.>X:X}.I.^.O.!.R.I.) A.Y.+XmX3Xe.&.pXbXA b b v B [ C ",
"+ # @ @ @ . y VX7XqXp.rXiX`.{.A.d.XXS.XXb.W.I.{.:X:X{.P.W.S..XH..X4.n.~.[.MXqX1XqXrXkXQ C G _ |  .v ",
"$ @ @ @ $ . y BX7XqX2XeXhX(.W.m.<.[.[.XXO.U.L.{.-X;X{.P.I.<.XX].[.<.n.Y.`.nXp.Z.qXqXvX, o # O v { 8 ",
"# o @ @ : . y NX3X;.0.rXhXH.`.2.3.`.`.`.2.P.K.`.;X-X|.K.D.3.`.`.U.3.1.Y.(.nX3X0.e.qXjX< @ $ + @ b C ",
"- + @ @ : . y VXwX&.e.tXiX[.I.1.M.u./.x.B.M.K.{.%X-X|.H.M.M.J.u.u.8.1.U.[.nX3X6.&.yXvX, o $ @ @ = S ",
"8 # @ : : X y BXZ.@.&.8XfXY.U./ ,.4.3.4.3.<.G.{.%X%X{.H.>.<.2.3.3.,.( Y.(.bXZ.&.&.7XjX, . $ @ + @ 4 ",
"m 3 @ @ X @ y mXdXkXgX0XfXL.Y.,.)._._.).).n.d._.-X-X{.5.n.B._._._.).1.P.Y.kX2XhXkXgXjX, @ : # @ @ = ",
"B D c 7 6 6 Z MX4X6X4X8XfXh.U.2.,.U ! U ( m.d._.&X&X_.M.n.( U U U ,.n.K.h.kXC.4X4X8XjX, @ @ # @ @ # ",
"N  .| ' L F X.BX0.z z 2XiXL.U.8.3.~ ) ~ 4.J.G.).&X&X_.D.J.3.~ ) ~ 2.1.U.L.hX0.z x w.kX, o @ @ $ @ = ",
"_ H 8 4 2 2 i nXuXvXgX8XqXg.P.2.3.! ) ! 3.G.n.).&X&X_.K.A.3.! ) ! 8.n.L.k.yX2XjXjXgXgXe @ % : + : = ",
"V * . X . . l dXgXDXBX8XeXj.Y.M.3.4.H.3.8.P.G.).&X&X_.J.K.3.4.K.<.8.G.Y.d.yX6XZXSXdXrXk o + @ @ : B ",
"6 O + @ : l 6XrX8XgXgXgXuXZ.n.2.).).).).).G.2.j.@XoXK.j.J.).).).).).8.M.3XdXdXgXgXrX7X4Xa 6 4 4 b K ",
"2 % @ @ X < z z $.$.$.-.$.&.d.,.J.h.G.G.G.4.4.j..XXXH.4.3.d.G.h.h.K.<.4.=.-.9.-.-.z $.z A P L P ] K ",
"4 + @ @ X X u 0.0.w.C.C.-.4.d.,.<.%.%.<.<.<.<.j.oXXXH.<.<.<.%.%.%.4.~ H.4.q.2X2Xw.0.0.y - 6 v H ] S ",
"4 # # @ X   z 4X5XNXZXAX8X<.d.<.4.4.<.4.4.4.,.n.[..XH.,.2.4.h.4.4.4.,.H.3.dXAXZXnX5X2Xk . : : 4 F L ",
"v 3 # + $ . z 2X8XZXSXDX0XE 4.J.J.K.(./.K./.%.4.T.T.2.,.J.J.K.(.K.J.J.d.W jXDXSXZXeX2Xk @ # % ; 8 ' ",
"V 9 & + + X z 4X6XZXSXFXrX~ s.a.f.k.k.f.f.a.X.a.l.S.f.X.s.a.f.k.k.s.s.s.) kXSXAXCX5X2Xk . : + = 7 L "
};
