/* XPM */
static char *result[] = {
/* columns rows colors chars-per-pixel */
"50 50 254 2 ",
"   c #0F7B7F",
".  c #118E94",
"X  c #0D797C",
"o  c #06878C",
"O  c #D7BFB5",
"+  c #D4BCB1",
"@  c #0B8C92",
"#  c #129196",
"$  c #B87A75",
"%  c #108B8C",
"&  c #047477",
"*  c #975D3A",
"=  c #2B9FA2",
"-  c #09777B",
";  c #B8784E",
":  c #1D878B",
">  c #137D81",
",  c #D2B9AE",
"<  c #D1B4A8",
"1  c #0F8183",
"2  c #F3C17D",
"3  c #8E5838",
"4  c #219A9E",
"5  c #F7E085",
"6  c #EBB77E",
"7  c #EBA765",
"8  c #E69B58",
"9  c #C28155",
"0  c #DEC2B7",
"q  c #199398",
"w  c #188386",
"e  c #D18C59",
"r  c #E49258",
"t  c #BC7D54",
"y  c #7ACFD4",
"u  c #73C8CC",
"i  c #BDA098",
"p  c #EDC180",
"a  c #EBB75F",
"s  c #C98056",
"d  c #A6704A",
"f  c #A56A47",
"g  c #AC5B3A",
"h  c #76432C",
"j  c #66BDC1",
"k  c #DABCB2",
"l  c #BD8780",
"z  c #BF7F7B",
"x  c #D9985A",
"c  c #DA8D59",
"v  c #C68559",
"b  c #AE794C",
"n  c #9F6A45",
"m  c #268D91",
"M  c #8F908E",
"N  c #D09D7B",
"B  c #C99976",
"V  c #F2C973",
"C  c #046F72",
"Z  c #AD746F",
"A  c #B38C6B",
"S  c #A36B66",
"D  c #EA9B62",
"F  c #BE8459",
"G  c #CE9855",
"H  c #D89352",
"J  c #C38952",
"K  c #C2844C",
"L  c #B26441",
"P  c #874B2E",
"I  c #83CDD0",
"U  c #39A3A6",
"Y  c #BA948D",
"T  c #108789",
"R  c #F2C070",
"E  c #E2B65D",
"W  c #CD9054",
"Q  c #AA7450",
"!  c #E1844D",
"~  c #D18D45",
"^  c #A9683F",
"/  c #875339",
"(  c #7B4E34",
")  c #5A3524",
"_  c #98DEE4",
"`  c #84D6DA",
"'  c #51ADB2",
"]  c #98A8A1",
"[  c #399A9C",
"{  c #D6AA84",
"}  c #F7D883",
"|  c #B0827B",
" . c #8F6C66",
".. c #D59762",
"X. c #A97961",
"o. c #E3A65D",
"O. c #C68E57",
"+. c #B37254",
"@. c #D7734B",
"#. c #AD7249",
"$. c #B66E47",
"%. c #B5723C",
"&. c #6F3E34",
"*. c #663521",
"=. c #F6EBE1",
"-. c #90D7DC",
";. c #5CB6BA",
":. c #32A7AA",
">. c #C1A79E",
",. c #2C979A",
"<. c #4F8F8E",
"1. c #C07876",
"2. c #E9B070",
"3. c #ECB76F",
"4. c #A4756D",
"5. c #DFA468",
"6. c #F5B066",
"7. c #AF6864",
"8. c #B97E4F",
"9. c #B47E4F",
"0. c #D7874D",
"q. c #C1744B",
"w. c #956644",
"e. c #B55D37",
"r. c #F4E4DA",
"t. c #E8D5CA",
"y. c #48A5A9",
"u. c #D0ACA1",
"i. c #969E99",
"p. c #DAB792",
"a. c #1F8C90",
"s. c #F1C883",
"d. c #CC9C6A",
"f. c #C08966",
"g. c #E29A62",
"h. c #BF8E5E",
"j. c #86655D",
"k. c #D5A05A",
"l. c #B77C56",
"z. c #A26954",
"x. c #CC8850",
"c. c #D36746",
"v. c #EFDCCF",
"b. c #D7C5BA",
"n. c #42B0B2",
"m. c #B2B6AE",
"M. c #B59890",
"N. c #328D90",
"B. c #C48C88",
"V. c #638D84",
"C. c #B49182",
"Z. c #097D7F",
"A. c #4C7F7C",
"S. c #A0847B",
"D. c #CE9171",
"F. c #F6B770",
"G. c #B56F6C",
"H. c #C06C69",
"J. c #9D6E4C",
"K. c #C87E4A",
"L. c #8F5A41",
"P. c #C2863E",
"I. c #B8FDFF",
"U. c #8EE1E6",
"Y. c #EDE3D9",
"T. c #59C0C5",
"R. c #E5CBC0",
"E. c #D8AFA9",
"W. c #A8ACA6",
"Q. c #A6A49E",
"!. c #F5D17F",
"~. c #E6B077",
"^. c #BB8D77",
"/. c #DFA774",
"(. c #B87370",
"). c #C98763",
"_. c #EAC861",
"`. c #EBBE5D",
"'. c #D8AC5B",
"]. c #845C56",
"[. c #E4AC4F",
"{. c #D8A84F",
"}. c #815446",
"|. c #AD6C44",
" X c #A06440",
".X c #CA5A3B",
"XX c #A25A37",
"oX c #A35032",
"OX c #A1EDF0",
"+X c #A4E6EB",
"@X c #6AC9CF",
"#X c #9EB3AF",
"$X c #CCA198",
"%X c #629B8D",
"&X c #A3908C",
"*X c #C0A189",
"=X c #418081",
"-X c #758380",
";X c #DA9D6F",
":X c #96776B",
">X c #C36D6B",
",X c #AA826A",
"<X c #496D68",
"1X c #BF7D60",
"2X c #A1765E",
"3X c #8F675D",
"4X c #AA5F5B",
"5X c #AD825A",
"6X c #C97252",
"7X c #A25B52",
"8X c #896147",
"9X c #CA9E46",
"0X c #C77141",
"qX c #6E4941",
"wX c #BE7C3D",
"eX c #683B27",
"rX c #FEF6EF",
"tX c #73CED2",
"yX c #C1C2BD",
"uX c #B1C0B9",
"iX c #C7ACA4",
"pX c #D6A69F",
"aX c #549D9A",
"sX c #8A9C97",
"dX c #FDFE87",
"fX c #CAA684",
"gX c #FFE472",
"hX c #4F756F",
"jX c #C39763",
"kX c #F29A58",
"lX c #C27352",
"zX c #AEF0F3",
"xX c #C6CAC5",
"cX c #45B8BC",
"vX c #77ACAD",
"bX c #5DA3A4",
"nX c #929C82",
"mX c #837B79",
"MX c #A49471",
"NX c #3A6E6D",
"BX c #FAE069",
"VX c #D97B61",
"CX c #DF8460",
"ZX c #BD663D",
"AX c #E8CAA6",
"SX c #C7A493",
"DX c #8E827F",
"FX c #F4D864",
"GX c #5F5F5C",
"HX c #ABD2D6",
"JX c #5C8174",
"KX c #535350",
"LX c #4C251D",
"PX c #48251D",
/* pixels */
"          I U 4 q @ . . # T X   > & 4 U.= [ aX%XV.JXV.%X%X+XOX4 o   & ;.-.U I n.@ # . . %           ",
"      & y.j Z.:.q @ . . . . > X - > %Xm.:Xw.n 3 * ^ * 3 J.J.A nX<.Z.' -.w C ;.y o o . . %           ",
"      - u ,.& = q @ . . . # T   <.MXn h ^ w.) PXQ F.f LX) w. XP n MXuXw & w 4 tXy U . o T           ",
"    X > y a.X ,.@ m N.. . @ N.nXl.^ ( ) b 5.d.w./ #.3 w.d.5.Q ) ( ^ b nXw @ n.# vXI -.y q -         ",
"    X > I : w m 1 <.Q.q @ [ A P ) 9.d.*.F b eXl.f 3 f +.eXb 8.*.d.b ) P MXbXT.U M N.4 u -.w -       ",
"X     > y ,.N.> Z.-XE.aXaXf.* }.( f * 3 J.h ) h ; 9 b h ) h f 3 * n ( }.* A N.bXE.V.. % _ ' -   - X ",
"> X -   +X'     > S.R.Q.Q h w.5.9.d * / 5Xb *.h * 8.* h *.b 5X/ w.d 9.5.w.h J.&XR.S.= a.y y : N.: w ",
"m : w u I.` > & =XB.t.0 h ) &.P * * J.eX8Xn * / 3 n P ( *  XL.eXJ.*  XP h ) h 0 t.B.=XC ' _ - X w a.",
"- m I _ q u _ y.M B.i Y.X.h.3 / L.P J.n *.3 d 3 f h.n 3 |.3 *.n n P L.3 3 h.X.Y.Y B.-X& [ I.u a.- C ",
"-.+XI : & 1 OXzXi z X.Y.C.#.d ) *.L.P 9.,XA w.3 3 O.3 / 3XA 2X#.P L.*.eXQ #.C.v.2X^.&XC u I.OX+X` tX",
"j ,.& X     U.vXY X.* < >.( ( h f.t., 8XA t.A *X>.fX>.*X^.t.A 8X+ t.f.&.( ( iX< * X.Y bXU.[ w m ' j ",
"w - X X - : I -Xl 8X/ X.E.h *.n h.R.rXA P p.B AXrX=.rXAXB p.P ^.rXR.h. X*.qXu.2X/ 8Xl i.: & X - & & ",
"4 T % % % : M $X< O b.+ R.>.( ,XO ,XA ^.*X5XfXB v.=.v.B fX5Xi A A ,XO X.( >.b., O + < i -X      1 1 ",
":.. . # @ [ DXj.j. . . . .:X/ d < 2XXXSXp.f 5X* b f.+.* l.f u.SXXXX.< z./ :X . . . .j.3XGXX 1 . # . ",
":.. . . % ` ;.KX&.&.}.&.qX&.* Q n d Q f f #.#.Q |.^ f d d Q f d Q d n Q L.&.qX&./ &.&.GX1 % . # . . ",
"cX4 @ o j I % M B.7X7X7.C.7X$.; F J h.O.O.O.K.XX0.K.0.g q.O.O.J J F 9 ; $.z.Y 4X7X7XB.M @ # . . # . ",
":.= n.u zX= 1 M pX$ z Z $X1X! 0Xx.6 s.s.p k.0Xe.kXr kXe.0X..6 p p 6 e 0X! 1X$XS l $ pXM @ # . . o q ",
"y ` zXI.OX= % i.pX| *XZ u.1X! K...6 s.s.p 5.0.e.kX8 kXe.@.g.6 s.p 6 ;XK.! ).u.4.*X| pXsXo o o 4 T.` ",
"n.U a.' _ U [ W.< S 4.Z < f.! e 6 3.5 5 V 2 r ZX6.o.6.ZX! 2 p 5 5 ~.~.e ! D.< S 4.4.E.uX@XT.tX-.tXcX",
"& X X C j y.C W., 7.7.1.+ 1X@.x 6 5.2 2 F.2 8 0XR 7 R K.r 2 2.2 2 ;X~...@.).+ (.7.G., #X@XI.U.4 o Z.",
"    > & ' j C Q., Z l $ , f.! x 6 6XVXCXCXp 8 K.V 3.V x.r p CXVXVXlX/...0.D., Z l Z k sX4 _ m -     ",
"    > & U j C Q.+ G.7.z , B D x 6 6 6 6 p s.8 x.!.R !.W 8 2 p ~.~.~.6 ..8 N , $ 7.(.k sXj y.C >     ",
"    > & y.j C Q.k z H.B., N 6.x.)./.;X/./.G H e } R } x c e /./.;X;Xf.8.7 { , z >Xz O ] y : X       ",
"    > C ' y C Q.k $ H.l + B 7 x e c H H H x 8 H } R } ..8 x H H e e x.e D B + $ H.z + ] u : X       ",
"      X : _ [ i.k $ >Xl + N F.o.o.a a a a a o.c } V } ..o.a a a a E o.x 2.{ + $ >X$ + ] u w X       ",
"        & U _ m.+ $ G.l + { V {.P.9X{.{.{.9XE x 5 V 5 k.E 9X9X{.{.9XP.G R p.+ $ G.$ O ] y : X       ",
"        X w -.yXO $ 7.l O { R '.wXH 6.6.8 P.E x 5 V 5 k.E P.H 6.6.H %.G 3.p.O $ 7.$ 0 W.-.a.X       ",
"        X : I W.0 1.H.l O N o.E P.8 F.F.7 ~ `.x.5 V 5 W `.~ 8 F.F.8 %.'.x N b.$ H.z O yXU.: X       ",
"      > & [ j i.0 1.>Xz + { R E K.D 6.a 7 ~ _.W 5 V 5 G `.H 8 6.7 D %.'.3.p.O $ >Xz O xX` >         ",
"X X   X & y ;.sXR.1.H.z , { R E wX[.BXBXa ~ _.W 5 V 5 G _.~ [.BXFX[.%.'.3.p.O $ H.z k xX' - >       ",
"1 w 1   j I.I m.0 1.1.1.+ B 7 '.wX_.dXdXFX~ `.x.5 V 5 O.`.~ _.dXdX_.%.k.o.{ O (.1.z k yXm -       X ",
":   U -.u U ,.W.0 $ | 1.O B g.'.wX[.gXgX`.~ a K } R } J a ~ [.gXgX[.%.k.x fXb.Z | $ 0 uX1 Z.      : ",
"& ,.` = % = % ] 0 G.4X(.+ N 7 k.wX0.8 8 r ~ a J } V } O.E x.~ r H 0.%.G 7 p.O G.4X(.0 m.  X   X m : ",
"  I ,.o # q q W.O l $XZ + B 7 k.%.g.g.x 7 P.E J !.R !.J E P.8 r c g.^ G 7 { O Z $Xl , yXy.1 X m : - ",
"j ' o q . . o ] k | Y 4.+ N g.k.^ 0.D D r %.o.9 !.3.!.9 o.%.c D r c XXG g.{ O Z C.| , m.+X` j ;.- X ",
";.T # . . # o ] k S S 4.O B c O.d F ....).b G s s.3.s.v G b F ..D.F d J c N 0 S S Z k #X_ U.` _ u ;.",
"- % . . . . T ] 0 7.4X$ + N D 9.f +.+.+.l.+.J v 2 3.2 ).J d +.+.+.+.d 9.D { O (.4XG.0 uXU % % m y.[ ",
"1 . . . . # 1 ] k S S S , N D 8. X9 9 9 v |.K 9 2 3.2 v K ^ v 9 9 t f ; D N + S z.S k ] o . . @ 1 m ",
". . . . . # Z.i.+ iXt.M.< B c K b f.F F h.9.K t p 2.2 t K b h.F F v 9.8.c N < M.t.< 0 i.o . . # . = ",
"q q . @ . # Z.i.< j.S. ., D.c J #.XXoXoXoX#.W t p 2.2 t W #.XXoXoXoX#.K c D.< 3XS. .< m.4 @ @ @ % = ",
"= = :.4 . # 1 i.u.j.:Xj.< D.r J ; |.g g L 9.W ; p 2.2 l.W ; $.g g L 8.K r D.iX].:Xj.u.xXOX` y :.q ;.",
"o o q :.4 o o M E.O r.>.Y 1Xr K ; g e.ZXg ; W l.p 2.2 F W ; g e.e.g t K r ).Y i Y.b.E.m.T.n.n.u @X4 ",
"cXT.@X@Xy T.<.&Xi b.Y.>.>.^.e W t t v v ; t G ; 6 2.6 8.G 8.l.v v ; 9 O.e ^.>.iX=.b.Y &XN.o o ,.;.u ",
"n.:.= = = y.S.C.C.Y M.i i Y Q K 8.d.jXjXd.t K |.7 5.2.$.9 ; d.jXjXd.F t X.M.i i M.Y C.l mX% = = o = ",
"T o @ @ @ @ NXqX}.].].].].}.lX$.$.s 6X6Xs $.q.L 7 5.7 $.lX$.s 6X6Xs ; $.lXL.j.3X3X].}.qXNX. :.T T 1 ",
"  X T # . # % mX4.S.i i M.z.! ^ L L g g L L q.^ 7 5.2.|.; L L g g L L ^ 0.z.M.i i S.4.mXo 4 m X   X ",
"    X % # @ a.M | , r.=.Y.2Xq.; t 9 9 v v l.t * g.c D  X; t v s 9 9 t ; q.X.r.=.r.< | M = ,.X       ",
"    X 1 . . a.M | 0 =.=.r.z.e.q.s s e e s s q.g r 0.r L q.s s e e s s q.e.,X=.=.r.k | M q           ",
"        % @ [ &X4.u.v.v.v.z..Xc.c.@.@.@.@.c..X.X! c.! .X.Xc.c.@.@.@.c.c..Xz.v.r.r.u.Z DXw           ",
"        X 4 u <.A.=X<.<.<.NX<X<XhXV.V.#XV.A.A.A.hX<X<XA.A.%X#XV.A.hXhX<X-X#XHXvXaX<.=X=XT           "
};
