/* XPM */
static char *result[] = {
/* columns rows colors chars-per-pixel */
"50 50 249 2 ",
"   c #0B0006",
".  c #0C000A",
"X  c #110107",
"o  c #1D0206",
"O  c #15010B",
"+  c #1D030B",
"@  c #1E0211",
"#  c #240306",
"$  c #2B0206",
"%  c #250807",
"&  c #2C0806",
"*  c #24050C",
"=  c #2B050B",
"-  c #25080B",
";  c #2B090C",
":  c #340205",
">  c #3B0106",
",  c #3B0A06",
"<  c #33030A",
"1  c #3A020A",
"2  c #34090C",
"3  c #250610",
"4  c #2A0411",
"5  c #270910",
"6  c #330811",
"7  c #351411",
"8  c #430206",
"9  c #4C0305",
"0  c #430906",
"q  c #4D0905",
"w  c #430209",
"e  c #4C030A",
"r  c #4B0A09",
"t  c #540406",
"y  c #5C0305",
"u  c #5B0B05",
"i  c #530608",
"p  c #5C040A",
"a  c #550B09",
"s  c #5D0B09",
"d  c #44170A",
"f  c #59160B",
"g  c #620405",
"h  c #6B0505",
"j  c #640B06",
"k  c #6C0C05",
"l  c #630509",
"z  c #67090A",
"x  c #6C0B09",
"c  c #750707",
"v  c #7C0D06",
"b  c #7C0C09",
"n  c #691309",
"m  c #681409",
"M  c #7B1306",
"N  c #781607",
"B  c #74130B",
"V  c #7C130A",
"C  c #6A0E11",
"Z  c #4D2410",
"A  c #562B14",
"S  c #593313",
"D  c #632E13",
"F  c #6B3814",
"G  c #7A3C13",
"H  c #6E4514",
"J  c #764815",
"K  c #880A05",
"L  c #840909",
"P  c #960C09",
"I  c #841405",
"U  c #8C1306",
"Y  c #8D1B06",
"T  c #841409",
"R  c #8A1409",
"E  c #821A0B",
"W  c #8B1C0A",
"Q  c #981608",
"!  c #931C0C",
"~  c #951B12",
"^  c #AB0A05",
"/  c #A31305",
"(  c #A91707",
")  c #A31C05",
"_  c #A31C0B",
"`  c #AC1C0A",
"'  c #BB1C06",
"]  c #B71A08",
"[  c #8A240B",
"{  c #93210C",
"}  c #9B230B",
"|  c #9B280A",
" . c #86330F",
".. c #9E350A",
"X. c #A72606",
"o. c #A4240B",
"O. c #AD230A",
"+. c #A42C0A",
"@. c #AD2A0A",
"#. c #B22406",
"$. c #B4240C",
"%. c #BB250A",
"&. c #B52B08",
"*. c #BA2B0B",
"=. c #BC350C",
"-. c #B52B10",
";. c #B23212",
":. c #C41A08",
">. c #D31A07",
",. c #E31909",
"<. c #C72707",
"1. c #C42B0B",
"2. c #CE2B0B",
"3. c #D2220A",
"4. c #D82B08",
"5. c #DB2C0B",
"6. c #C3320B",
"7. c #CC330A",
"8. c #C93808",
"9. c #D63807",
"0. c #D3330B",
"q. c #DB340B",
"w. c #D33B0B",
"e. c #CA2E10",
"r. c #D92E10",
"t. c #C53411",
"y. c #E72D0A",
"u. c #EC3B06",
"i. c #E5360A",
"p. c #EC3B0A",
"a. c #FE3B05",
"s. c #F3300E",
"d. c #F63A09",
"f. c #884A0D",
"g. c #855412",
"h. c #985D11",
"j. c #AF4E0A",
"k. c #AB5714",
"l. c #A3650B",
"z. c #B4690F",
"x. c #A46D1B",
"c. c #A97316",
"v. c #B77D16",
"b. c #AC7221",
"n. c #CD410A",
"m. c #D7470A",
"M. c #DC440A",
"N. c #D84511",
"B. c #D25611",
"V. c #E54506",
"C. c #E84707",
"Z. c #EC430A",
"A. c #EA4C09",
"S. c #FC4C05",
"D. c #F54808",
"F. c #FE4B0A",
"G. c #EA5608",
"H. c #F95607",
"J. c #F2530B",
"K. c #FD540B",
"L. c #E64211",
"P. c #FA4610",
"I. c #C96A05",
"U. c #D56906",
"Y. c #C9750A",
"T. c #D37505",
"R. c #D77708",
"E. c #CB6819",
"W. c #C97619",
"Q. c #DC7A18",
"!. c #ED6E08",
"~. c #FC6607",
"^. c #FE7B09",
"/. c #8F724C",
"(. c #BC8713",
"). c #9A863F",
"_. c #B79124",
"`. c #D9940B",
"'. c #C48812",
"]. c #D98812",
"[. c #D89816",
"{. c #F48B0D",
"}. c #E89500",
"|. c #F39A03",
" X c #E59C11",
".X c #E6A40C",
"XX c #F5A805",
"oX c #FCAB0A",
"OX c #FEB50B",
"+X c #F7B90D",
"@X c #E7AA17",
"#X c #ECAD15",
"$X c #F6AB16",
"%X c #E9BA1A",
"&X c #FAB714",
"*X c #C29027",
"=X c #DAB726",
"-X c #E9AF23",
";X c #E6B929",
":X c #F5C80B",
">X c #F5C512",
",X c #FAC613",
"<X c #FCCC13",
"1X c #FAC21A",
"2X c #F4C91B",
"3X c #FCCB1B",
"4X c #FFD314",
"5X c #F6D51D",
"6X c #FAD31C",
"7X c #FAD819",
"8X c #EFCC29",
"9X c #F6C523",
"0X c #F5D523",
"qX c #F9D624",
"wX c #F6D924",
"eX c #FADA27",
"rX c #ECCA36",
"tX c #F2CF3A",
"yX c #F3D33B",
"uX c #F6DC38",
"iX c #F9E52A",
"pX c #FCE92E",
"aX c #FCE634",
"sX c #FCE933",
"dX c #F7E73A",
"fX c #FBE53A",
"gX c #BF9C59",
"hX c #DAB840",
"jX c #C9A866",
"kX c #F3D342",
"lX c #F4DB49",
"zX c #F5DE55",
"xX c #F8E847",
"cX c #FDF247",
"vX c #F6E657",
"bX c #FAF154",
"nX c #F9F256",
"mX c #F5DD6B",
"MX c #F6E669",
"NX c #FBFB68",
"BX c #FBFD74",
"VX c #FEFF7C",
"CX c #F4D886",
"ZX c #FCFD89",
"AX c #F8E696",
"SX c #F9FD9C",
"DX c #F9E6A6",
"FX c #FCFFDA",
"GX c #F7FFE4",
/* pixels */
"4.+.u 8 & % % 3 % & * j i.u % = 4 = = 6 < < c p.a.S.J.P i : 1 e j u.Q : ; - * 3 4 * 3 3 * * = d b G.",
"G.Q M M q w & : 9 > 8 X.q.w - & = - = & $ $ k s.:.i.&.K 0.=.t.N.m.5.K $ ; ; * * 3 * * * - = r U 2.{.",
"^.u.q.8.) c c Q ) *.n.~.H.! > # # # = & $ > #.s.y K d.@.[ B m o.D.2.P > % % % * * * % * # t &.G.^.{.",
"M Y <.H.D.5.u.H.H.8.8.&.&.w.6.o.T y w 1 v <.s.s.,.y.=.9 $ $ 3 : :.S.0.l : * + 3 % * & 1 M B.H.9.X.M ",
"* o > j @.D.~.G.M > : $ $ w B o.0.p.w.7.i.) l b >.u.t < 2 , 2 < $.K.V.9.O.x u r : > h $.J.w.z 9 1 o ",
"- - - * $ Y H.8.> - * - * # + $ < B 9.P.K * $ * 8 6.a 1 2 2 = a *.R y M ` 1.i.4.<.2.V.M.U > * 3 * % ",
"* * * % % 9 9.n.1 - % * * * * * * * p ] : = = = + o.~ $ < : e ;.V $ * 3 = 1 p U 4.~.H.c $ - - % % * ",
"+ * * # * o M i.> 3 * * - * + * % & u Q $ # * = O c Z.o.W | m.t.> - = ; = 3 * & c u.<.8 - * * * + * ",
"+ + 3 + % * w 2.j + % % * * * * % $ B T * * * * + u H.C.0.J.~.{ = = = * * * 4 - > 6.O.* ; 3 3 3 + + ",
"+ + @ - * + 8 i.` : + * % * * * * > Q T + 4 * * O m $.t 8 v Z.v % = 3 * - * % ; $ { Q * & * + 3 @ + ",
"+ + - + * * N D.9.-.M 9 = * # & 9 Q y.k + = * * X m m * ; $ 1.V * = = * * * * ; # Y %.$ * * + + + + ",
"+ + - + ; p 6.Q 1 f O.7.#.~ R _ <.D.a.v * * * * . n n @ < * _ m + - * * * = ; ; * ) <.> = = * * + + ",
"% + # : g <.0.$ + + * *.} j n K ( p.a.P % * S c.x.W.W.b.S # Q n + ; * 3 5 = = & 9 V.A.h * * % % - - ",
": 8 n Q M.~.!.u + + 1 _ 8 + + # : c 3.' :   J &XoXoXoXOXH # :.! > & & & 4 4 & z 0.D.J.q.k $ $ * $ > ",
"*.7.Z.u.9.8.<.@.I ! w.+.# * 3 5 = $ F Q.k.f.gXDXmXvXyXeX*Xk.U.E.;._ h t r q b y.<.y t c <.] c c Q #.",
"Y I x 8 $ $ $ > s E 8.@.> = * * = O g.oXoXoXCXGXSXBXbXiX9XoX}.T.j.<.p.0.` ' y.' > * - * 1 _ Z.d.' Q ",
"+ + + + + + + + O o o ~ p * $ 3 S l.jXAXvXzXvXvXxXxXaXiXwX0X%X$Xv.f.+.2.F.J.>.k % 6 4 < - $ Q 9.9 $ ",
"= * 3 * 5 @ @ 3 @ * O j T # * . g.OXAXFXSXZXbXiXsXpXpXpXaXfXeX<X.XT.D $ Q D.2.0 = 6 ; 5 & % a $.w < ",
"= = * * + + + + + * + > 1.l S g.jXAXAXZXnXdX_.g.c.(.'.'.@X6X5XeX2X#Xv.G f 0.2.< 2 4 6 = < 4 9 :.q & ",
"4 = - - - - + + * * % @ ` y.W.&XAXFXSXNXcXwXS   o 2 d , c.4X7XdXwX2X$XR. .@.4.: 2 6 = 6 6 & y 4.p : ",
"2 < - * * + + + O + X 0 7.q.].XXmXSXnXcX*XF J c.c.(.(.(.c.z.#X4X5XiX-XI.F Q a.e ; 2 2 2 1 2 c d.L 1 ",
"t 8 : : : 1 1 > w q b e.[ O h.XXzXBXfXqX..r `.7X4X4X4X7Xv.: z.<X5XsX;XY. .( 2.Q : $ 2 2 w g ] K.q.h ",
"0.:.#._ O._ ~ ~ ~ ] s.V Z J /.CXMXxX=Xv.].[.&X>X:X:X2XwXrX)._.XX2XsX2X#XQ.B...3.] u w p h ^ p.C.J.p.",
"a.$.0.s.M = & $ # # ~ l l.$XAXFXMXiX`.j.#X4X2X>X>X>X0XaXnXVXyX|.1XsXwX3X#XY.G > Q r.' ^ 3.*.B e s n.",
":.> U ` O + + + * . j C l.$XmXSXvXiX[.I.#X:X>X,X6XwXxXbXNXBXyX|.1XfXwX,X@XT.G * $ b y.S.d.c < : 3 b ",
"A.M.D.u.o.W x : # o K P l.$XvXNXxXaX[.U.#X<X,X>X0XfXnXNXBXBXyX.X1XsXeX,X@XT.G * < 8 3.p.d.y.1.) L :.",
"S.D.' Q R T -.7.P / d.d.!.XXaXbXfXaX[.I.#X<X2XeXfXnXNXBXBXBXuXXX1XsXqX:X.XT.F $ y O.u.` / / ( >.a.a.",
"a./ 8 > < * 9 i.~.Z.@.b z.+XqXaXiXaX[.I.$X3XqXdXnXNXBXNXNXZXkX|.>XpXqX4X#XR.j.Q L.q.k > 1 1 1 p ^ i.",
"` ! * 6 6 ; 9 0.0.c 1 = 7 A *X9X0XaX%X@X X`.rXnXNXBXBXBXvX8XtXlXlXpX9X`.z.| q.K.V.y $ & 6 6 < 1 8 g ",
"s ' e < > g ] S.P w & = = + x.oX2XsX6X3X`.j.hXVXBXBXBXVXkX}.8XZXnXpX;XI.F # w W 1.$ = = = 6 4 & & = ",
"e H.V.*.8.V.^.H.c 1 4 = ; * c.oX>XwX5XqX#X`.;XyXtXtXyXtXtXkXlXbXdXwX@XR.G * + = O.T # = = ; = = < < ",
"o.w.o.Q T j E 1.o.= * 3 = * x.OX>X>XeXaX6X,X+X|.XX|.|.|.tXVXnXiXwX3X@XY.F @ 3 3 i ` : - 4 5 ; ; & w ",
"{ w = : $ + # w ~ [ $ : * * A H '.OX1XwXwX6X2X9X9X9X9X2XuXnXdX5X%X}.x.Z 7 @ - * > } C $ & : : w y o.",
"& 3 % 3 * 4 3 % w _ ~ t 8 : 8 b E.&XOX:XeXsXsXsXsXsXsXsXiXsXwX2X.XT.D . + 3 * - $ | G.=.} Y R _ G.=.",
"& = = 3 * * * 3 * w r.%.W o.6.| f F _.OX+X8X2X0X5X0X5XwX2X&X#X Xh.Z 7 @ @ 3 - ; o  .S.*.=.8.m.~.^.I ",
"* * * * * 3 * * = # I ~.K.6.m # * X J $XoXXX&X<X,X,X<X>X+X$X}.Y.Z . @ @ 5 - - + $ 6.B o * = : T K.E ",
"& + * * * * * * = = z J.&.e * * - @ d J H f.].+X+X+X+X+X{.B. .Z 7 + + * * 3 @ < ~ E # - 5 - - * ~ %.",
"1 $ * 3 3 + 3 % 5 : ! t.9 $ % * - 3 @ O o 1 B.OXoXoXoXoXk.^ > * - % * * * * : O.~ # = - - 4 * # < :.",
"M & * 3 3 3 * ; % p N.W $ & # * + 3 3 * ; j N.j.f.f.f.k.B K 2 $ % % * * + : %.7.: * ; * * * * & * s ",
"` e * # * * < = w ( A.l * * * 3 @ 3 + * * Y o.+ O @ @ p P.q.c 1 $ $ : : 9 $.n.8 * - * - * * * * * < ",
"+.6.U v k g h T %.S.w.y % * * 3 * 3 * 3 $ -.m O ; $ u w.C.9.q.0.$._ / ] w.Z.m * ; % * * * ; * - * $ ",
"..^.H.Z.q.y.5.D.S.K.<.8 % # * 3 3 3 3 * w $., 3 * r t.[ 8 1 r V { ! o.V.C.2.s $ & & % * 3 * * * % < ",
"9.0.M u q a a c <.S.Z.y * & * * * 3 * * w *.> = # W W O * - * # # * * 1 ! K.{ o $ * * = = = ; & * = ",
"%.> + o + + + * 9 U D.<.: % ; * * * & % 0 t.y : w @.n # = & * ; = * 6 - 1 n.~.[ r r : # * % * * $ } ",
"h % $ * - - * * % % s i.` > & & ; $ & 2 i m.0.1.e.P.N & = * * 3 3 = 5 2 1 n.{.H.C.C.N.-.R z i t P s.",
"9 & * - * - * 3 = - * Y F.( s : $ $ > > K K.*.B s +.W * - = * 3 5 = & * W A.' K L I Q _ 0.u.p.d.S.5.",
"t & * * * @ * 3 * 4 % h H.~.A.1.X.Q _ 8.H.A.t : $ W k & = * 5 - * 3 * W e.c : & - + # $ < j T q.F.>.",
"y & - * - @ + * - 5 # y G.{.M.*.&.@.;.+.8.D.+.r 1 } n # ; = 3 4 6 * E 3.h < * ; = * 5 - - * * y 5.i.",
"T r ; % * * + - * ; - i G.8.8 $ = = $ 4 < I J.` 1 | N $ = = ; 6 * , p.K = 4 = 3 3 * - = 5 ; 5 < T Z.",
"@.m : % = * 3 - * ; = i Z.M = ; 4 = 6 < < $ ) F.] q.o.9 < ; ; 2 & ~ 4.8 4 4 5 3 5 3 3 5 * - ; < k Z."
};
