/* XPM */
static char *result[] = {
/* columns rows colors chars-per-pixel */
"50 50 256 2 ",
"   c #0F7B7E",
".  c #107C7F",
"X  c #118E95",
"o  c #128F95",
"O  c #139096",
"+  c #108D94",
"@  c #0D7A7D",
"#  c #0E7C7F",
"$  c #11797D",
"%  c #0B787C",
"&  c #117D81",
"*  c #0D8C92",
"=  c #129093",
"-  c #0D8A90",
";  c #097679",
":  c #127F82",
">  c #0C7A7C",
",  c #037275",
"<  c #159298",
"1  c #128B8B",
"2  c #057477",
"3  c #0E8E93",
"4  c #067C82",
"5  c #0D8D90",
"6  c #36A6A8",
"7  c #098B90",
"8  c #0C8A8B",
"9  c #138888",
"0  c #2FA2A3",
"q  c #158388",
"w  c #7ACED1",
"e  c #189599",
"r  c #1A9495",
"t  c #118C8E",
"y  c #188689",
"u  c #037678",
"i  c #86D5DB",
"p  c #2D9DA1",
"a  c #219B9C",
"s  c #268B8F",
"d  c #05898F",
"f  c #09878E",
"g  c #0F8E8C",
"h  c #0D8182",
"j  c #51ADB1",
"k  c #30A4A7",
"l  c #1C989B",
"z  c #149293",
"x  c #119190",
"c  c #118E90",
"v  c #1F898B",
"b  c #1A8186",
"n  c #148285",
"m  c #006F72",
"M  c #5FBEC1",
"N  c #48B7BA",
"B  c #3CAAAF",
"V  c #299E9F",
"C  c #119196",
"Z  c #238F91",
"A  c #05898C",
"S  c #03858B",
"D  c #85DADE",
"F  c #7ED8DC",
"G  c #7BD1D6",
"H  c #73C6CA",
"J  c #66BFC4",
"K  c #48AEB4",
"L  c #2AA0A1",
"P  c #168D95",
"I  c #2B8E93",
"U  c #088991",
"Y  c #098287",
"T  c #04797B",
"R  c #97E1E5",
"E  c #8DDDE0",
"W  c #72C9CE",
"Q  c #5DC2C7",
"!  c #59BEC2",
"~  c #58B8BB",
"^  c #59B0B6",
"/  c #3E9FA4",
"(  c #299FA4",
")  c #219AA1",
"_  c #229EA0",
"`  c #1F979E",
"'  c #2F999C",
"]  c #2C9598",
"[  c #209697",
"{  c #0D8F95",
"}  c #198A8F",
"|  c #11878C",
" . c #0A7D7D",
".. c #96E5EA",
"X. c #97DDE2",
"o. c #91DDE2",
"O. c #8AD9DC",
"+. c #81D4D5",
"@. c #72CDD2",
"#. c #6CCDD0",
"$. c #76CACC",
"%. c #6BC7CC",
"&. c #6BC3C8",
"*. c #44B3B3",
"=. c #2FA8AD",
"-. c #49A4AA",
";. c #289B9C",
":. c #22969B",
">. c #058889",
",. c #0C8788",
"<. c #028484",
"1. c #F6C554",
"2. c #B7FFFF",
"3. c #A4EDF2",
"4. c #92E2E6",
"5. c #9DE1E4",
"6. c #8FD7DD",
"7. c #81CFD2",
"8. c #65BABE",
"9. c #269BA2",
"0. c #38999E",
"q. c #088B94",
"w. c #1F858A",
"e. c #118485",
"r. c #F5D783",
"t. c #AEF8FD",
"y. c #A8F2F5",
"u. c #A5E7EE",
"i. c #88D2D4",
"p. c #76D1D4",
"a. c #7CCAD0",
"s. c #5FB4B9",
"d. c #51B2B7",
"f. c #3FAEB3",
"g. c #31A4AB",
"h. c #2AA3A8",
"j. c #40A5A7",
"k. c #389FA2",
"l. c #1D8E94",
"z. c #088E90",
"x. c #F7B147",
"c. c #F89329",
"v. c #B6F6FC",
"b. c #9BE9EC",
"n. c #A2E5E9",
"m. c #8ED3D9",
"M. c #50B7BB",
"N. c #24A0A7",
"B. c #FBE9A5",
"V. c #29A3A2",
"C. c #F9E596",
"Z. c #EFCA66",
"A. c #F5B84D",
"S. c #F19B2D",
"D. c #F48F22",
"F. c #E9691E",
"G. c #F37316",
"H. c #FB7B12",
"J. c #66C6C7",
"K. c #6DBCC3",
"L. c #FBEEBD",
"P. c #FDEFAF",
"I. c #36A9AD",
"U. c #32A0A7",
"Y. c #13969C",
"T. c #159695",
"R. c #ECCB71",
"E. c #F9CA6C",
"W. c #949461",
"Q. c #FEB844",
"!. c #F9AB3E",
"~. c #F9A332",
"^. c #AEF2F8",
"/. c #9EF0F1",
"(. c #8CE2E6",
"). c #95DADD",
"_. c #7AD3D8",
"`. c #FBEECF",
"'. c #48ABAC",
"]. c #339299",
"[. c #0C9193",
"{. c #F5DD92",
"}. c #9FB787",
"|. c #4D9086",
" X c #168182",
".X c #FAE080",
"XX c #2A817A",
"oX c #F7D478",
"OX c #8FA168",
"+X c #F6CD5B",
"@X c #FDC559",
"#X c #F0AA44",
"$X c #AE783E",
"%X c #FA9C25",
"&X c #FE851B",
"*X c #FE5E08",
"=X c #A7F7F9",
"-X c #6DC9C8",
";X c #96BEB2",
":X c #238289",
">X c #018487",
",X c #9CAA6D",
"<X c #41796D",
"1X c #2A726C",
"2X c #ACBB6B",
"3X c #798968",
"4X c #BBA35C",
"5X c #EFC45A",
"6X c #696D52",
"7X c #7E6647",
"8X c #F8A241",
"9X c #ED973A",
"0X c #D78D38",
"qX c #E88E2A",
"wX c #EC7D23",
"eX c #FE941F",
"rX c #F08118",
"tX c #FF7112",
"yX c #C2FFFF",
"uX c #9CEEF2",
"iX c #84C9CB",
"pX c #4AA09C",
"aX c #85AB97",
"sX c #5B9E83",
"dX c #6E9A7C",
"fX c #7BA778",
"gX c #587F6B",
"hX c #3A6A5E",
"jX c #546C58",
"kX c #E7AF4B",
"lX c #BD8E49",
"zX c #8A6E43",
"xX c #F89441",
"cX c #9E6431",
"vX c #C37030",
"bX c #FC8C2F",
"nX c #D46125",
"mX c #DC6721",
"MX c #E1781A",
"NX c #F4E7C2",
"BX c #8ABFB9",
"VX c #AAB9AF",
"CX c #77B6A5",
"ZX c #FDDDA0",
"AX c #ABB89C",
"SX c #609D9A",
"DX c #8B9B8C",
"FX c #D3CD80",
"GX c #C4B87D",
"HX c #A9AC7B",
"JX c #DEC867",
"KX c #CC9E49",
"LX c #E6943F",
"PX c #F1B33A",
"IX c #A56237",
"UX c #CF751F",
/* pixels */
"  . # $ # iXU.:.r * o X C y $   . ; ' 4.l * X c e.$ q 5 r y.y.e 1 & u s.)./ i.f.U O X = 1 $     .   ",
"  . . , -.8.4 I.e * X X o c : $ . % Z ..) - O = y $ 4 < i F E &.>.m ^ m.n m s.p.A A X = 1 $   #   # ",
"  .   % H ' , p < + X X X C y . : u j 2.#.d f >. .2 6 D @.[.= 7.-XM ).: % n _ @.+.6 P A ,.$     .   ",
"  . > & w s % ] g c X X o 5 1 $ m I u.(.4.O.#.! M 7.w h.) L >.t +.yX'.2   t *.C M.F E G [ % . .   . ",
". . > : 7.w.b s h z X + U ` V.] 8.5.K U ` ! Q Q d.0.8 7 g K 0 [.[ 5.y ; r B ! ( S z._ %.m.n % . . . ",
"@ .   & 7.] I : & = + x J 4.E D K.;.U + ` ` S Y , ; 1 < 7 6 B ;.0.6.p ' k l - 6 k l = 8 ).j % . % @ ",
": @ ; . n.j # . & = 7 J.7.:.< O S - O - ( r C 9 . . 1 o 5 a l 8 q ).#.z.+ 3 + + l ;.V s G G v I v y ",
"I w.b H 2.i & 2 u >XL 4.e - 3 + o o - 9.L g c h   @ 8 o - [ a g 9 ..=Xd.d - X X * 8  .m ^ o.; > n s ",
"; s iXX.[ $.X.-./ K b.^.9.f O + X * 9.0 - o 1 @ . > ,.O 5 V r <.M i =.E &.( * { P h & 2 k.v.H } T m ",
"6.u.a.w.u  X3.v.X.o.D ..5.g.{ o * [ g.g { [.: @   @ q O 7 _ C ~ R _ S e %.E H + & $ & , H 2.3.u.i w ",
"J ] 2 @ . . R d.| C { - M 4.5 P o 6 z { v  X4     . % d p Q ..y.9.z.O + U 5 $.7.9 u u j o.k.n Z j J ",
"b ; > @ % q m.l.3 + X + z.X.*.<.r [ - { XX7XhX4 . 2 ].p.o.G w 3.K f o o o c h ^ X.W a.7.9 2 @ ; , , ",
";.9 8 8 9 l.O.` 3 o X o * B n.W ! N.l [ 4 cXnX1XT s.6.'._ 0 >XB 5.V 5 O + = 9 m 0.2.+.> @ & $ . : : ",
"=.z + O 7 6 E O 3 o X X X - ) M ..u.%.v } 6X*XIX8.+.q ,  .U.a <.~ O.[.+ X + c n 4 D 0., $  .n } z c ",
"g.P X P 7 i.! d o o + X X o U T.g.V 5.-.Y gXF.*XDXY % & 1XXXg.= d 6.d.,.O o o O - w ' h 9 1 = O X X ",
"N ` U A J i.x c X X X X + = 8 k.) 4 ^ t.uX;XmX*XzX4 . 4 jX7X) ~ = K i U - 7 * * < F V.* O o X X o + ",
"6 0 B W y.p f O X X X o o * x U.< n :X^.W <XF.*XvX$ . 4 6XnX].=.;.N R k 6 =.V r { w 6 f P O o + S e ",
"p.i y.yX/.p = - 3 3 + - 5 < 6 r 3 1 Z n.} hXF.tXmX1X4 ; cXF.|.{ >.0 .._ e l a ;.k Q E e d f f a ! D ",
"f.k.s j R 0 6 p Z l.r ) B d.T.t o g Z o.| jXG.tXF.<X% 7XG.0Xv { - 0 E { - * * - z ) J.E #.Q @.O.@.N ",
"; @ % m J j.; w.b b q [ a I.< + o 7 k.O.4 6XH.&XG.$X$XF.&XlX| < A M a.d z P O C C 3 >.'._.2.4.) f 4 ",
".   & 2 K 8.2 @ @ @ %   8 a ;.5 O >.w &.T zX&XD.rXH.tXG.bXW.U A :.X.k 8 q q y 1 t 1 Z l.L R Z % . . ",
"#   & 2 / 8.; . . . # > | z 0 t d K R :.f $X&Xc.c.D.G.H.bXgXY.N ..M 8 e.%   @ @ $ $ I @ K.-., &   # ",
"    & , j.8.2 . .   #  .Y S 9.k K t./.V.q vXeXD.~.9XwXH.MXdXF 4.b.r 1 $ #   .   @  Xv e.i y @ . . . ",
".   & , j w 2 & . . T u k J i (.4.-XJ...SXUXeXqX!.c.wXH.qX;Xh.) +.z 1 $   .     @ : b q _.y @ . .   ",
"  # . % w.X./ m 2 u I W D ! L C Y.|.XX=.VXMXeXS.x.c.rXG.xXpXd |.BXC t $ # . .   > y b q G q > . .   ",
"    # . u k.u.&.M w m.j X d 7 + q.3XW.Y.aXwXc.8Xx.c.rXH.LXs :XlXAXN.,.h   .   . T Z  Xn i y > . .   ",
"    . . @ n b./.H s.n 4 C o o o q.W.9X|.3XxXS.!.x.c.D.D.9X<X3X!.HXO.6 } % @ & >   s > s R } % . #   ",
"#   # . > w.i.v , m & P X X X o q.W.!.KX$X8X#XA.x.~.S.S.%X0X0XQ.OXM v.b.m.' , :Xs b m K.3.q > . .   ",
". . . & 2 ' H T : 9 = o + X X o q.W.Q.x.qX8X1.1.x.!.A.#X%X%XS.Q.,X<.+.$.k.b./ y % , / v.E :   # .   ",
"@ @   @ u w 8.m } z O X o o o o q.OXQ.@X#X#XE.+XA.A.@XA.~.%XD.~.4Xh N J.9 -.6.W s.w v.2.^ ; &   . . ",
"n n h $ J t.6.M.l + X + + X o o q.OX@XE.E.kXoXr.5X1.@X1.x.~.S.Q.4X: M W e 4 b j.j j.H t.] ; .     > ",
"v # / 6.a.j.L ~ $.e c < < 3 * o q.dXE.r.{.Z.Z.ZXoX5X+X1.1.PXkXE.4XpXR g.U O o A <.u v X.y > . #   v ",
"2 ] i p t p r 8 ~ -X( 6 k k 9.O z.CXR.C.NXB.Z.r.C.Z.1.+X1.A.R.r.GXi.N + X X O o < o :.O.: %   % s w.",
"# a.] d o O l L =.G Y.3 o < a 0 B i.2X.X`.`.{.R.B.oX1.+XZ.r.C.r.}.N.U.5 O X X X X * 5 o.j 4 @ I v ; ",
"8.j >.< X X + * t &.` | t X 5 z.d._.sXR.P.`.L.B.P..X5XZ.{.L.B.JXsXN l A * * 3 * 3 r 9.N ^.F J ~ T > ",
"s.Y C X X X X < Y ~ -.m : 1 O X 5 p.' ,XoXP.L.`.L.{.R.C.P.L.r.,X5 Q B V :.a _ V 0 6 l.V.3.(.D R H ~ ",
"T t X X X + c 1 ; I i Z 2 : P z.T.D =.9 fXFXC.B.P..X.XB.C.r.}.9 V.f.U.l.V N *.a * S + w '.8 g s -.0.",
"e.= 3 o X X t     T ] i.-.; 4 T.w M.L = Y XXaX}.OX2X2X}.fX;X0 l 0  .2 -.G J &.D %.=.@.! >XP X 5 h Z ",
"c + X o X o ,.$ #   ; v $.$.M G N 8 k O 1 u } K.^ ] ,.<.B @.e 0 e., j w q T 2 l.M uX2.K f O o O = V ",
"< e + * + = h @ #   & % u a.n.:.d < ( X g h % y ^ o.F F n.p V [ , ' i > ; & .  .<.k y.R ` q.7 - c L ",
"V p I.a 3 = 1 @   #   & , j.&.Y o P [ 3 x h $ ; y u.t.^.y._ 6 9 2 H / 2 & # . @ 1 7 %.2.3.+.G =.e ~ ",
"S S e h.a S 3 y %     . ; ].J f 3 V r + x e.% w.m.d.l Y.W %.a  .].$.4 #   .   $ | A +.t.J.*.*.$.%.a ",
"M.! #.#._.Q p g : $ # & , K &.h r h.3 + o } , s.^ 4 g 7 * i M.T a./ u .   .   . <.*.5.p f f >.;.~ W ",
"f.I.( ( ( f.@.Q z > @ u b 5.J m 1 :.* X o >.' w # | = O U 6 o.%.H % . .   .   & z D 0 ,.O 5 9.L A h.",
"Y ,.5 * * d x $.f.p v K u.v.X.j p _ x + 7 *.G ] ; 9 x X 3 e /.=XZ % .     # $ <.#.Q d O X x k | | Y ",
"  $ 9 O X O A N F G +.5.^ 0.j.K.6.p.x 7 W p.T.% $ h x X * < ..Q 4 $ # .   . ; B i = + 5 8 ;.Z >   @ ",
"# # @ | O = 7 N 3.F ! b , : q , b 7.p.@.&.A 5 9 $   t o + < O.B Y   #       : o.6 S O l L ' %       ",
". . @ : x X - %.*.( S g .   s b 2 } O.t.) - O t & @ 8 O - N.D N.g :  .  & , ^ #.8 ( 0 I.r   @ . # # ",
"  .   $ 1 7 B #.V.e X z ,.> : s I / :.b.N.- X = q > e.O f h.F < g # @ . ; I n.*.k _ z t 1 $   .     ",
"#   #   @ ` @.g.0 t X O c   @  .I 0.` (.h.- X x e.$ & O 7 f.F < g # . % 0.3.=XM.= * X = 9 $     .   "
};
