/* XPM */
static char *result[] = {
/* columns rows colors chars-per-pixel */
"50 50 252 2 ",
"   c #090008",
".  c #140105",
"X  c #1D0206",
"o  c #14010A",
"O  c #1D030B",
"+  c #1F0410",
"@  c #1E0810",
"#  c #240306",
"$  c #2B0206",
"%  c #250807",
"&  c #2C0806",
"*  c #24050C",
"=  c #2B050B",
"-  c #25080C",
";  c #2B080C",
":  c #330206",
">  c #3B0206",
",  c #3C0906",
"<  c #33030A",
"1  c #3B030A",
"2  c #33090B",
"3  c #250611",
"4  c #2A0411",
"5  c #270910",
"6  c #320811",
"7  c #430206",
"8  c #4C0205",
"9  c #430A06",
"0  c #4D0906",
"q  c #430309",
"w  c #4C030A",
"e  c #430A0C",
"r  c #4B0A09",
"t  c #540506",
"y  c #5B0305",
"u  c #520806",
"i  c #5B0B05",
"p  c #530409",
"a  c #5C030A",
"s  c #540B09",
"d  c #5D0B0A",
"f  c #48150B",
"g  c #59140A",
"h  c #431813",
"j  c #630505",
"k  c #6B0505",
"l  c #660A06",
"z  c #6C0C05",
"x  c #630509",
"c  c #6B0409",
"v  c #640B0A",
"b  c #6C0B09",
"n  c #740407",
"m  c #7A0507",
"M  c #740C06",
"N  c #7B0D06",
"B  c #74090B",
"V  c #7C0B09",
"C  c #6D1207",
"Z  c #64150A",
"A  c #691209",
"S  c #7B1306",
"D  c #74130A",
"F  c #781708",
"G  c #7B140A",
"H  c #6D1010",
"J  c #54240F",
"K  c #492616",
"L  c #512413",
"P  c #772E0E",
"I  c #4C3326",
"U  c #4C312A",
"Y  c #795021",
"T  c #880A06",
"R  c #840909",
"E  c #980C08",
"W  c #841405",
"Q  c #8C1306",
"!  c #8C1B06",
"~  c #841409",
"^  c #8A1409",
"/  c #811A0B",
"(  c #8C1D0A",
")  c #951305",
"_  c #9A1506",
"`  c #921B06",
"'  c #9D1B05",
"]  c #95130D",
"[  c #9C150B",
"{  c #931B0B",
"}  c #9B1C09",
"|  c #8D1612",
" . c #951B12",
".. c #A31305",
"X. c #A81607",
"o. c #A31C05",
"O. c #AB130A",
"+. c #A31C0B",
"@. c #AC1B0A",
"#. c #B41C05",
"$. c #BB1C06",
"%. c #B71808",
"&. c #8A230B",
"*. c #93210C",
"=. c #9B230B",
"-. c #9B2608",
";. c #9A3208",
":. c #972711",
">. c #9A3B15",
",. c #A32106",
"<. c #AB2C06",
"1. c #A4240B",
"2. c #AD230B",
"3. c #A42B0A",
"4. c #AD2A0A",
"5. c #B22406",
"6. c #B62A05",
"7. c #B4240B",
"8. c #BB240A",
"9. c #B42A0A",
"0. c #BB2B0B",
"q. c #BE330C",
"w. c #B8390B",
"e. c #AF2E12",
"r. c #B82A11",
"t. c #C41A07",
"y. c #CE1B0B",
"u. c #E31909",
"i. c #C32405",
"p. c #CC2506",
"a. c #CB2B06",
"s. c #C4260A",
"d. c #C42B0B",
"f. c #CE2B0A",
"g. c #D72407",
"h. c #D52D07",
"j. c #DC2C06",
"k. c #D3210A",
"l. c #D52B0B",
"z. c #DB2C0B",
"x. c #C83707",
"c. c #C3320B",
"v. c #CB330A",
"b. c #CB3C0A",
"n. c #D33507",
"m. c #D23B05",
"M. c #D3330B",
"N. c #DB330A",
"B. c #D33A0B",
"V. c #DC3908",
"C. c #CC2D10",
"Z. c #D92E10",
"A. c #C23311",
"S. c #CA3411",
"D. c #E52D09",
"F. c #EA2D09",
"G. c #F92A0B",
"H. c #E23406",
"J. c #EC3B06",
"K. c #E4330A",
"L. c #E7380B",
"P. c #EC3B0A",
"I. c #FE3B05",
"U. c #F23D0A",
"Y. c #F83808",
"T. c #EA3110",
"R. c #944F0B",
"E. c #B04C14",
"W. c #9C6A1A",
"Q. c #B26F17",
"!. c #BB7A22",
"~. c #CC420B",
"^. c #D8470A",
"/. c #DC440A",
"(. c #CA4111",
"). c #D84613",
"_. c #E54506",
"`. c #E64507",
"'. c #ED4B07",
"]. c #EC430A",
"[. c #EA4C09",
"{. c #FD4405",
"}. c #F44C06",
"|. c #FC4C05",
" X c #F1440B",
".X c #FC430B",
"XX c #F54B0A",
"oX c #FE4B0A",
"OX c #EA5508",
"+X c #F45407",
"@X c #FF5305",
"#X c #FD5B06",
"$X c #F2530B",
"%X c #FD540B",
"&X c #FB5B0A",
"*X c #E64211",
"=X c #FA4610",
"-X c #C96C04",
";X c #D47306",
":X c #CA7314",
">X c #EB670E",
",X c #FF6405",
"<X c #FE6109",
"1X c #FA6908",
"2X c #FE7B09",
"3X c #F26D2D",
"4X c #B6861F",
"5X c #B58322",
"6X c #BD9627",
"7X c #DC9105",
"8X c #D38612",
"9X c #E48C0B",
"0X c #FB8908",
"qX c #E89409",
"wX c #FEAC04",
"eX c #F6A608",
"rX c #FCAB09",
"tX c #F7B50B",
"yX c #FDB30B",
"uX c #EAA612",
"iX c #EDB417",
"pX c #E99F21",
"aX c #F29423",
"sX c #C2A438",
"dX c #EEB13E",
"fX c #F9C50C",
"gX c #EDC118",
"hX c #F5C913",
"jX c #FBCA13",
"kX c #FFD51A",
"lX c #F0D02C",
"zX c #F5DE36",
"xX c #FEED32",
"cX c #F8E43A",
"vX c #CBBC5F",
"bX c #C2B961",
"nX c #F9FC6C",
"mX c #FEFF71",
"MX c #F8FA75",
"NX c #BDBBA4",
"BX c #C8BA84",
"VX c #E6BD81",
"CX c #C9BEA4",
"ZX c #F7FA8E",
"AX c #FCF998",
"SX c #DBC1AD",
"DX c #FCF5A3",
"FX c #EEF4CF",
"GX c #F5F7CD",
"HX c #FCFCCD",
"JX c #FCFCD2",
"KX c #FFFFDC",
/* pixels */
"g.3.i > = # % 3 = & * A L.i * ; = = 2 = < < b Y.I.@X[.[ 0 < > w v L.' : ; ; * 5 3 * 3 4 % - = f V [.",
"OXo.S S u 9 & : 9 > 7 ,.V.8 - = 4 - = = < $ b T.t.H.6.R M.A.A.).^.z.T # ; * * * 3 * * * * * r Q c.0X",
"2XJ.N.x.' m B ) X.6.~.1X+X{ 7 # # * ; = $ > 7.F.j T J.9.&.D A 1.'.k._ > = - * - - * - * * 8 6.OX0X0X",
"F ! a.+X}.j.J.#X+Xm.x.6.6.b.c.,.W y 7 > N a.F.G.u.D.c.8 & $ * < t.@Xh.v < # X * # % - > F ^.1XV.o.M ",
"# O > l 5.}.,XOXS < : $ $ q D 1.M.P.B.n.L.+.x V y.J.s = 1 , 2 2 5.oX`.M.2.C l r < > c 6.$Xb.c 7 > O ",
"- - * % $ ! ,Xc.> - * - * % # # < D B..XR # $ * 7 d.s 1 2 2 = s A.Q y S @.d.H.l.p.p._.*XQ > * 3 - = ",
"* * * = % 7 V.m.1 - * * 3 * * * * # i %.: $ = 2 # 1.[ $ < $ w e.G $ O 3 * q y Q j.,X+Xk $ - - * * - ",
"O O O % * X S N.> * ; * - O O * * & i ) $ * 3 * O M ].1.( =.^.b.> % 4 - = 3 * = n ].a.7 - = * % * O ",
"O * O * * * q a.l % * * - * % * * $ M W # * * * o s &X`.n.$X1X` < ; * * * * ; 5 > d.5.# = 3 * @ O @ ",
"@ @ @ * % O q K.@.: O % * * * * * > +.~ O 4 * * o Z 8.p q V P.W * = * - * - * ; $ *.} # ; * * 3 @ O ",
"O % O * % * F oXB.0.D 8 $ * $ $ 8 ) K.b O 4 * 3 O Z A * = $ A.G # = 4 - * * - ; * ! 7.$ * * O O O O ",
"O O O O = d d.) > g 2.v.2.] ( [ s.}.I.V # * * 3   C H o 2 # +.A O - - * = * = ; # o.f.> % = * % O O ",
"O * # $ j i.B.$ @ O * 0.=.v D W @.P.I.E # 3 Y W.W.:X:XW.h # [ A # = % * 5 = = = w *X'.j % = * * % % ",
": > z -./.1X>Xs O O < +.7 O O # : M z.t.: @ 5XyXwXrXwXuXK $ 8.{ : & = = 3 = & b M.}.$XN.z $ $ * $ < ",
"i.v.].L.m.x.a.4.W { m.3.# * 3 5 4 $ 1 1.B # 6XkXlXlXlXlXL k {.XXv.' c p r 0 V K.t.j p N s.#.B b _ %.",
"` S b 8 $ : $ > d / x.7.: = * * = = * > =.p sXxXcXzXxXzXE.L.0.~ ( M.P.M.#.$.F.$.> - * O > +.U.Y.$.' ",
"O O * o O @ O O o O # ] d * $ * * * ; $ &.V.VXDXAXDXDXDX3Xy.7 # * 1 ~ l.oX$Xk.x = 6 ; 6 - $ } V.8 = ",
"= = 3 * 3 @ @ - @ - o v ~ # * 3 * 5 4 * F v.SXKXJXJXHXFX3X%.# = 2 = = 1 ) XXp.8 ; 6 = ; & % t 7.> < ",
"= = * * O O @ O O * O : s.b o $ * # = # ( 0 NXKXGXHXJXFXY #.8 - = 2 2 % 1 M.f.< 2 4 6 ; < ; 8 y.t = ",
"4 = * # * * O O 3 # # O @.T.b w q : < l =.$ CXKXJXJXHXHXU T | # = 6 6 2 < 7.j.< 2 6 2 4 6 = t j.x & ",
"2 < = * * O O O O O o 9 v.V.8.X...2.,.V.{ O BXDXZXZXZXAXU 7 y.q * 2 = < * } Y.w = 2 2 2 < 1 n J.R 1 ",
"t q < : : 1 > > q 7 N C.( $ 4 = = B j..X` * vXmXnXnXMXMXU o ] [ = = $ < 7 #.l.[ : = 2 1 e a %.@Xz.k ",
"M.t.2.o.2.o. . .{ %.G.F o 3 3 * 3 O > ] c.1 bXmXMXMXMXMXU o p D.=.V ` 7.f.l.-.l.%.i q y k O.T.`.XX].",
"Y.7.l.Y.S ; & = * O ] H # * * 3 3 4 3 # G 2.vXmXnXMXmXMXI + p %.$XP.M.=.g > 2 q ' Z.$.O.k.0.M 0 g ~.",
"t.> ] @.. O O o # o d H o 3 # * * * < * 7 g.dXcXzXzXcXzXK O q a.&XS $ * 3 * 4 = # R F.}..Xn < < * m ",
"'./.}.J.1.( v < X O T ] $ # . O @ = = * p D.pXjXfXfXjXiXK o w /.{.a * < = = & = < 7 k.P.Y.D.a.o.R t.",
"|. X$.' ^ ~ 0.v.E .. XY.l.0.+.~ 0 = * $ ~ XXuXjXhXhXhXiXP R B.<X{.a.s = 3 # X < y 2.J.5._ ..O.y.I.I.",
"I.X.> > < = w H.,XP.<.~ F D / =.C.+.c ^ ].} 6XkXhXhXjXgX&X@X|.t.O.8.s.7.( / / o.*XN.l > > > 1 a O.K.",
"@.^ = 6 6 ; 8 l.M.n > = * O o + e X.Y..X$.< 4XyXtXtXtXuX(.#X#.8 > : > v { #.K.&X_.t $ = 4 6 < 1 7 j ",
"v 8.w < > j #.|.E q = = * ; 6 = * w n.N.8 # Q.wXeXeXeXqXP z.k : * * % O O # q ! d.$ = = 2 6 6 $ = = ",
"r %X/.0.v._.2X<Xm < = = = * = ; > t n.) $ # !.wXeXeXeXuXJ -.i $ 4 = O * * * O = e.~ # = = = = 2 < < ",
"1.b.1._ ~ l / d.1.= 3 4 = = = < 7 N ].R % X !.yXeXuXeXuXL ] v # 3 * * 3 3 3 * * p O.< - 5 5 = % & q ",
"*.q < < $ O # 7  .&.$ < 3 * = : s /.<Xa.7 % Q.9X9X9X9X8Xf ) d * 4 3 O 3 @ * * % > 1.H # $ < : q i 1.",
"= * * * * 4 5 - q +.] p 9 : w ( q.w.w.^.r.7 R.;X-X-X-XQ.g 8.x $ 3 * O @ O @ * * $ :.OXw.=.{ W o.[.q.",
"* = * = * * * 3 * 7 Z.8.^ 1.q.:.r $ $ < 1.A.Q.qX9X9X9X8XZ h.l # * + O @ * 3 * * X &.$Xq.w.b.^.1X2XW ",
"- * * * * * * 3 = # W ,X&Xv.Z # # * * O $ :.aXrXtXrXyXqXP H.j O * O @ @ 3 3 * * $ c.G X * < < R %X/ ",
"& # * * 3 O * * = - j $X6.w # * * * * O # i :XqX7X7X9X8X).D.8 * * * O * 3 3 @ <  ./ # - 5 - - # } r.",
"> = % 3 * 3 * * - > { S.7 $ = * * 3 3 3 = g E.;X;X;X;X:X:.O.7 = % * * * 3 % $ 2.*.# = - * = 3 % < t.",
"G & # 3 3 5 * = = y ).&.$ = * * 3 @ + * ; d (.>.P P P >.s T 1 # # * % * O : 8.v.< * ; * * * * = * d ",
"@.7 = # O * 2 = 7 @.[.x * * * * O @ 3 * # ! 2.X o + @ v oXV.c q < $ : : 7 5.^.7 % * * - * * * * * < ",
"3.d.T V l k B R 8.|.n.y * * 3 * 3 * @ 3 $ e.A o ; # d b._.B.N.M.7.+...%.M.*Xv * = = * * = - = * % = ",
";.2X,X].L.N.j. XoX@Xi.8 % = * 3 * 3 3 * 9 7.1 3 = t A.&.7 > 0 / *.{ 1.`.[.f.g $ & * * * - * * - # : ",
"V.v.F i 0 u s N i.|. Xy = % - * * * * * 0 8., = # ( ( . * - * * # * * q } &X&.# & # - ; ; % ; % * = ",
"8.> X X O X o % 8 Q '.s.< * ; - - = = * q S.t : > 4.A # = = * - = 3 5 = > b.<X&.r 8 : * # = * * * =.",
"k * = * * - * * = * i L.@.: : & = = % < r ^.N.0.S.=X&.# = * * 4 5 ; ; ; > m.0X#X`.`.).0.^ l p t E G.",
"0 $ - * * * 3 3 * % # &.|.O.d : $ $ > 7 T %X0.D d 3./ * - * * - * 4 = = ( [.5.T T W { +.M.P.P.U.|.j.",
"i # * * O 3 * 3 ; ; % k +X1X[.c.,.=.+.x.@X[.p < $ ( z = = 4 * 5 * 3 % ( l.b : = * % * # 1 x ^ V.oXk.",
"y & = - * @ O - * 5 % y OX2X^.0.6.<.e.<.x. X3.0 > -.A $ ; = 5 4 4 * / l.k < - - 4 * - 3 - * # a z.K.",
"S r ; - * % O - * 5 % t [.b.7 $ = = = 4 < W $X@.> :.G $ % ; ; 6 * 9 T.T = 4 = 5 3 - * 5 ; = ; 2 N ].",
"4.C : - = * * - * ; = s ].F $ ; 4 = 6 < < < o.{.%.V.2.7 < 2 % 2 = *.l.8 3 = 3 5 5 3 3 ; * 5 ; 2 b ]."
};
