/* XPM */
static char *result[] = {
/* columns rows colors chars-per-pixel */
"50 50 255 2 ",
"   c #0F7B7E",
".  c #118E94",
"X  c #0F7C7F",
"o  c #118F95",
"O  c #138F96",
"+  c #0E797D",
"@  c #117B7F",
"#  c #0B787B",
"$  c #0F8D93",
"%  c #117D80",
"&  c #0C7A7D",
"*  c #117B7D",
"=  c #129197",
"-  c #0E8C92",
";  c #159196",
":  c #03878B",
">  c #0C8B90",
",  c #0E8E95",
"<  c #119090",
"1  c #128A89",
"2  c #077679",
"3  c #047376",
"4  c #07878E",
"5  c #017174",
"6  c #169399",
"7  c #118A8C",
"8  c #289E9F",
"9  c #078990",
"0  c #158386",
"q  c #12787D",
"w  c #027677",
"e  c #7AD1D5",
"r  c #74C6CA",
"t  c #1C979B",
"y  c #119094",
"u  c #129192",
"i  c #0D8D90",
"p  c #188689",
"a  c #118083",
"s  c #137E82",
"d  c #2BA0A1",
"f  c #2D9DA0",
"g  c #199598",
"h  c #088A91",
"j  c #188185",
"k  c #97E0E4",
"l  c #31A3A3",
"z  c #0E8C8D",
"x  c #108484",
"c  c #73C9CD",
"v  c #34A7A9",
"b  c #2CA3A3",
"n  c #21979E",
"m  c #239B9B",
"M  c #219599",
"N  c #0A8C92",
"B  c #0E8A91",
"V  c #068A8C",
"C  c #1F898C",
"Z  c #048389",
"A  c #85D1D4",
"S  c #73CFD2",
"D  c #6BC7CC",
"F  c #39A2A6",
"G  c #289DA4",
"H  c #1E9A9E",
"J  c #158F92",
"K  c #238F91",
"L  c #10868B",
"P  c #0B8A8A",
"I  c #048584",
"U  c #0A7D7E",
"Y  c #077378",
"T  c #90DDE0",
"R  c #85DADE",
"E  c #88D7DB",
"W  c #7FD4D7",
"Q  c #79CBCF",
"!  c #52ADB1",
"~  c #3BAAAD",
"^  c #32A7AD",
"/  c #219FA2",
"(  c #1D9595",
")  c #168D95",
"_  c #148C8F",
"`  c #0F8F8E",
"'  c #168389",
"]  c #0B7F82",
"[  c #0E7E80",
"{  c #7FCED2",
"}  c #6AC3C8",
"|  c #5EBFC1",
" . c #47B5B8",
".. c #44AEB4",
"X. c #3D9EA2",
"o. c #239AA2",
"O. c #299A9C",
"+. c #189494",
"@. c #2C8E93",
"#. c #0C8F92",
"$. c #288B90",
"%. c #238B8F",
"&. c #0B8688",
"*. c #A4EEF4",
"=. c #98E5EA",
"-. c #9CE1E4",
";. c #92E0E4",
":. c #96DBE1",
">. c #8FD7DD",
",. c #83D6DB",
"<. c #79CDD2",
"1. c #5CC1C5",
"2. c #6BC0C5",
"3. c #59BEC4",
"4. c #65BFC2",
"5. c #4BB7BD",
"6. c #4BA6AB",
"7. c #3AA6A8",
"8. c #2FA3A7",
"9. c #2A9FA6",
"0. c #38999E",
"q. c #1D8E94",
"w. c #088D90",
"e. c #0E8D8B",
"r. c #1E858A",
"t. c #1E8287",
"y. c #087C83",
"u. c #047B81",
"i. c #05797B",
"p. c #B7FFFF",
"a. c #A9F1F5",
"s. c #A4E6ED",
"d. c #8CDEE1",
"f. c #7ED8DC",
"g. c #62C4C8",
"h. c #63BABF",
"j. c #58B5B9",
"k. c #5FB4B9",
"l. c #5AAFB5",
"z. c #43B3B2",
"x. c #4BACB2",
"c. c #2AA2AA",
"v. c #17979D",
"b. c #2D9799",
"n. c #139294",
"m. c #18888E",
"M. c #0B8A8D",
"N. c #B3F5FB",
"B. c #A9F6FA",
"V. c #8BDADE",
"C. c #88D4D8",
"Z. c #80C9CE",
"A. c #6CCCCD",
"S. c #6CBCC1",
"D. c #51B6BA",
"F. c #4CB2B7",
"G. c #3CAEB1",
"H. c #2FA6A8",
"J. c #329EA5",
"K. c #309A9C",
"L. c #006D71",
"P. c #FB7C14",
"I. c #9DEFF1",
"U. c #99E9ED",
"Y. c #8EE3E8",
"T. c #95E4E6",
"R. c #8FD4D9",
"E. c #6ACED1",
"W. c #70CBD1",
"Q. c #59BDBC",
"!. c #53B1B6",
"~. c #38A7AF",
"^. c #41A3A7",
"/. c #078F9A",
"(. c #2A9397",
"). c #19908E",
"_. c #F9BA50",
"`. c #F99F2B",
"'. c #FA9020",
"]. c #AEFAFE",
"[. c #94DADC",
"{. c #78D6D9",
"}. c #5AB9BC",
"|. c #47AEAE",
" X c #44A6A9",
".X c #319299",
"XX c #119595",
"oX c #F4D983",
"OX c #048082",
"+X c #29827B",
"@X c #217875",
"#X c #4D8474",
"$X c #8A6841",
"%X c #F0AE3C",
"&X c #FBAD33",
"*X c #EF9A32",
"=X c #F39628",
"-X c #BE6328",
";X c #FC871E",
":X c #EC5F10",
">X c #B8FAFF",
",X c #FCFDF9",
"<X c #A3EBEF",
"1X c #9FE4E6",
"2X c #F9F5D9",
"3X c #F4E0AB",
"4X c #87AB9D",
"5X c #F1D98E",
"6X c #0C7F88",
"7X c #417767",
"8X c #F4C864",
"9X c #476C60",
"0X c #888656",
"qX c #77664D",
"wX c #F08922",
"eX c #FF5800",
"rX c #C4FFFF",
"tX c #A9E7ED",
"yX c #FDFCE7",
"uX c #FFF6C8",
"iX c #26A6B2",
"pX c #A8C0AD",
"aX c #BAB68F",
"sX c #D9D48E",
"dX c #2E8E83",
"fX c #ECC87D",
"gX c #BFAE7D",
"hX c #D6D17C",
"jX c #87AB70",
"kX c #3D6960",
"lX c #677A5F",
"zX c #969459",
"xX c #9D884B",
"cX c #A47242",
"vX c #C86C28",
"bX c #DA661C",
"nX c #6FCDDD",
"mX c #ABD1C9",
"MX c #F5EBC7",
"NX c #C0CB91",
"BX c #6E968B",
"VX c #CCB088",
"CX c #7AAA80",
"ZX c #8F987C",
"AX c #EED071",
"SX c #337E70",
"DX c #6F8B64",
"FX c #798862",
"GX c #E2BD58",
"HX c #B8A254",
"JX c #56634F",
"KX c #C89B4E",
"LX c #EB8D48",
"PX c #B89042",
"IX c #D7A13F",
/* pixels */
"X   X * X Z.F n ( - . . o p q   X 2 K.;.t - o < x q ' i ( a.*.g 1 % w k.[.F A ..h O o . 1 q X   @   ",
"  X % 3 6.S.u.^ 6 - . o o J s + X # K =.H B O u p q ] = E f.T 2.I 5 l.R.j L.k.e V V o y 1 q X X   X ",
"  X * # r b.3 f 6 $ o . o y p @ s w ! p.E.9 4 : U Y F R S #.u A D h.[.a # j 8 S W 7.J V P q     @   ",
"  X + % { %.+ (.` < o . O - 7 + 5 @.tXY.;.V.W.1.| { Q H.n d : _ A rX6.w   _  .XXD.f.V.e M # @   X X ",
"X X + s { r.j $.x n.o . h n b b.h.-.F.9 H 3.3.1.!.0.M.h ` ..l #.M -.p # +.~.| G Z w./ D R.0 # X @ @ ",
"& @ * % { .X@.s [ u . < g.;.d.R S.O.h $ t n : Z 3 Y 7 ; M.7.G.O.0.>.J.K.8.t > v 8.t J P [.! # @ # & ",
"s + # @ s.x.X X % u h g.A M 6 O Z > O B 9.+.y 1 @ * 7 O i m t P ' [.E.w.. , . $ t m 8 %.W e C @.C p ",
"@.r.j r >X,.% 3 2 I d ;.g > $ $ o o > G d e.J [   + 7 O > t m e.1 T.B.!.4 B . . - z U 5 !.;.2 & 0 %.",
"# $.Z.:.M r k 6.F x.U.B.o.4 = . o N o.l z o 1 + @ + &.= #.8 ( I | E ^ T } 9.- , ) a % Y X.>Xr ).i.5 ",
">.s.Z.r.w a *.>Xk :.R =.-.8., . - M v ` . < a +   + ' O w.8 = }.k / : v.D T r , [ * % 5 c p.<XtXE Q ",
"2.b.w + X @ k !.L = , B Q.T.i ) O v +.$ = j kX    @ # 9 f 1.=.a.o.w.; $ h i r { 1 2 w x.T X.0 K ! } ",
"t.2 & & # ' C.q.$ $ . $ #.k F.I +.M M.$ < @XqX  X Y .XS T e <.*...4 o o . ` ] l.k c Z.{ 1 3 & # 3 3 ",
"m 1 P M.1 q.V.t $ . . O N ~ 1Xc 3.9.v.( Z kXqXu.w k.>.6./ 8.Z ~ 1X8 > O . y p 5 0.p.W & & % + @ a a ",
"H.u . = w.7.d.O $ o . o o > H | =.s.D C m.$XJXu.2.A ' 3 ] F m I Q.E #.$ . . < 0 y.R 0.3 * U a _ n.< ",
"^ ) . ) w.A Q.9 O o . . o o 9 XX^ f -.^.@XvXBX,.S.U # % + 1 v y V >.F.&.O O . O B <.K.] 0 z y = . o ",
" .n 9 V 4.A < < o o o . . y P l o.OXl.].pXbX4XF w @X* X   # G D.y x.C.h B N B - 6 f.b - = o o . O , ",
"v b G.c a.f 4 = o o o O o - < J.= 0 t.*.pX:X9Xm.y.9X9Xy.* # o.^ O.5.T.8.v ^ 8 g , <.7.4 ) O O . : g ",
"e ,.a.rXI.f J > #.$ $ > > ; v g , 7 K =.#X:X-X+X, $XqXy.q   O.. V b T./ g t m O.H.1.d.g 4 4 4 H 3.R ",
"..J.%.x.k l v f K q.g o.~.F.g i o ` K ;.L $XeX-XcX:X7Xu.s (.( $ > l d., B - > > ).o.} T W.1.S V.S  .",
"2 & # L.2. X2 r.t.j 0 ( H ~.; . O > l E ] q -XeXeXcXq.%.$.7 , ; : | Q 9 n.) O = = , P |.{.p.Y.n 4 u.",
"% * % 3 x.h.3 + & & #   z m O.i ; : Q 2.& y.7X:XbX@X] *   7 o : n :.l M.0 ' p 7 _ 7 K q.8 k K # @ * ",
"X   % Y X.4.2 % X X X & L n.b z 4 ..T.M #.J L -X$Xy.q [ _ w.g 5.=.| P 0 +   + + * q @.& S.6.5 s   X ",
"    % 3 ^.h.Y % X   [ U &.: G 8. .].I.b N /., vXlX/.) ; N ~ E Y.U.( 1 @ X   X   & j C x ,.p + X X X ",
"@   % 5 ! { 3 % % % i.w l 4.,.Y.;.A.A.k ZXlX0XP.#X/.y h f :.d / W u 7 +   X     + s j ' W p + X X   ",
"  X @ # r.:.X.5 Y w @.c R 3.d = 6 d < c.VXP.;XP.0X/.m.x W F.Z J.A u 7 + X X     + p j 0 e ' # X     ",
"X   X @ w F s.} | <.R.! , 4 > $ - ; v v.4XP.wX;XwXFXxX4X{.; . g T b &.a   @ X @ i.K j 0 C.p & X X   ",
"    @ X & 0 U.I.r k.j u.= O o o o $ = / 4.LXP.'.;X'.;XgXiXB O 9 Q.k H.m.# & % &   $.& $.k m.# X X   ",
"X   X X & r.C.C 5 5 [ ) . . o o . , dX#XnXaXP.'.wX*X'.xX/.. o $ > } N.U.R.O.5 t.$.j 5 2.*.' + X @   ",
"@ X   % Y K.r i.[ 1 J o . o . . J N DX*XgXKX'.=X=X%X`.PX_ y . . . : A c X.=.^.p & 5 X.N.d.s   X @   ",
"+ +   + w <.h.L.m.n.O . o o o . . h 0X&X&X&X`.=X`._._.IX+Xi O . = : 5.g.L  X>.c k.Q N.p.l.Y %   X X ",
"a 0 ] * 4.].>.D.H , . . . o o . O B zX&X8XAX8X`.=X_.8XGXSX: O . ; Z h.W.g y.j ^.! F r N.(.2 X     + ",
"C X F >.Q 7.d j.c 6 i 6 ; $ - . $ v.aX`.oXMX3X%X*X%XoX5X7XZ ; - : 7.-.c.9 ; . : I w C :.p & @     C ",
"3 b.C.f z f +.z j.D G v H.H.o.; P E.mX*X5X,X2XoX_.%X3X3X#X6 = H 3.V.5.. o . O O 6 . n E a &   # $.r.",
"[ Z.b.9 o ; t d ^ e v., o ; m l ~ d.iXzX_.2X,XyXfXfXyXsXdXXX1.T A./ 9.i O o . o . N i :.! ] & $.C # ",
"h.! : 6 . . $ - z } n L _ . i #.F.,., C HXoX2X,X5XuXuXjX4 |.Q t t 5.t V - - $ - $ ( o. .a.W 4.}.i.& ",
"k.&.= . . o . 6 I j.6.L.s 7 O , i e G h t.jXhXsXhXNXCX).9 r G.Z y g.~ 8 M m 8 8 b 7.q.b <Xd.R k r }.",
"i.z o . . . < 7 2 (.,.K 3 s ) w.+.R ^ < x 6XS.+X+X* 4 = I D.5.I l G.J.q.f  .z.H N : . { |.P ` %.6.0.",
"x J $ o . o _     i.b.A  X2 OXXXe D.d u 1 2 j.J.L.] u O V S ~ t l U Y 6.e 2.2.R D ^ W.Q.Z ) . i ] %.",
"$ . o o . o &.q X * 2 C c r | e  .e.v O 7 # %.r j.O.P : ..<.6 d x 3 ! <.' 2 w q.| I.p...4 O o = u 8 ",
"6 6 , - . u x + X   % # w Q s.M 9 ; 9.. e.[ # 0 l.;.f.{.1X8 8 ( 3 K.C.& # % @ U I 8.a.k n N h > ` d ",
"8 G ~.H $ y 1 +   X   % 3  X} Z o J M $ < x * 2 p <XB.N.a./ F 1 Y r X.3 % X X & 7 h D p.*.W e v 6 }.",
": Z 6 c.H : #.p +     % 2 .X4.4 , 8 +.$ < x + r.R.!.v.v.c D m U .XQ u.X   X X * L V W B.g.z.z.Q D m ",
"5.3.E.E.{.g.f ` a * X % 5 x.} OX+.c.. . . ).5 k.l.u.` > N ,.D.i.Z.X.2 %   X   @ I z.-.f 4 4 : O.j.c ",
"..~ 9.G d ..S 1.).& + w t.-.4.L._ M - . O : K.<.U L y O 9 7.T D r # % @   X   s u R l &.; - G d V 9.",
"&.&.i - N 9 < c G.f C |.s.N.:.! f / < . h z.e (.2 x u o $ g I.B.K # X     X * OXA.1.9 O o < l L L 6X",
"* q 1 ; o ; V  .W e A -.j.0.^.S.>.S ` M.W.S +.# * a < o - 6 =.g.y.* X X   @ 2 ~ E y $ - M.m K &   + ",
"X X + 7 = . 9  .*.f.3.j 5 s 0 5 t.{ e S } V i 1 q   z o $ ; V.~.6X*         a T F : O t d b.+ X     ",
"@   + a u . > D z.G : e.@   $.t.3 m.E ].H B = _ @ & P O B / E 9.e.a U   % 5 l.A.z G b ~ (     X X X ",
"  X   * 7 h ~ A.b g . n.L # s %.@.X.M U.c.> o u 0 & x = 4 c.f.; e.[ & % 2 @.s.z.8.8 n.z 1 q   @     ",
"X   X   + n S ^ b z . O < * + U @.0.n Y.c.> o < x q s O > G.f.; e.X @ # 0.*.B.5.J N . y 1 q X   X   "
};
