/* XPM */
static char *result[] = {
/* columns rows colors chars-per-pixel */
"50 50 248 2 ",
"   c #0D0009",
".  c #110104",
"X  c #1D0105",
"o  c #14010B",
"O  c #1D030B",
"+  c #1E0311",
"@  c #240306",
"#  c #2B0206",
"$  c #250807",
"%  c #2C0806",
"&  c #24050C",
"*  c #2B050B",
"=  c #25080B",
"-  c #2B080C",
";  c #340206",
":  c #3B0106",
">  c #3C0906",
",  c #33030A",
"<  c #3A030A",
"1  c #33090C",
"2  c #38140E",
"3  c #250610",
"4  c #2A0411",
"5  c #250911",
"6  c #300B11",
"7  c #430206",
"8  c #4C0305",
"9  c #430907",
"0  c #4D0905",
"q  c #430309",
"w  c #4C030A",
"e  c #4B0A09",
"r  c #540406",
"t  c #5C0305",
"y  c #5C0B06",
"u  c #530608",
"i  c #5C030A",
"p  c #550B09",
"a  c #5D0B0A",
"s  c #4E160C",
"d  c #620405",
"f  c #6B0505",
"g  c #6C0C05",
"h  c #660708",
"j  c #640C0A",
"k  c #6B0B09",
"l  c #760807",
"z  c #7C0D06",
"x  c #730A0A",
"c  c #671308",
"v  c #691309",
"b  c #7B1306",
"n  c #781607",
"m  c #74140A",
"M  c #7C140A",
"N  c #6E1010",
"B  c #4A2416",
"V  c #582712",
"C  c #68330D",
"Z  c #79350D",
"A  c #6A3313",
"S  c #763713",
"D  c #503226",
"F  c #663420",
"G  c #6A4816",
"H  c #725130",
"J  c #766057",
"K  c #890A06",
"L  c #840909",
"P  c #990D08",
"I  c #841405",
"U  c #8C1306",
"Y  c #8D1B06",
"T  c #841409",
"R  c #8A150A",
"E  c #82190B",
"W  c #8B1C0A",
"Q  c #971707",
"!  c #9A1406",
"~  c #9A130C",
"^  c #931C0C",
"/  c #9B1B0A",
"(  c #951B12",
")  c #AD0D06",
"_  c #A31305",
"`  c #AA1707",
"'  c #A31C05",
"]  c #A31C0B",
"[  c #AC1C0A",
"{  c #BB1C06",
"}  c #B61A08",
"|  c #8A230B",
" . c #93210C",
".. c #9B220B",
"X. c #992809",
"o. c #863A0C",
"O. c #9A310F",
"+. c #A72606",
"@. c #A4240B",
"#. c #AD230A",
"$. c #A42B09",
"%. c #AD2A0A",
"&. c #B22406",
"*. c #B62C05",
"=. c #B4240C",
"-. c #BA250A",
";. c #B42A0A",
":. c #BA2B0B",
">. c #BC350C",
",. c #AF2E12",
"<. c #B52B10",
"1. c #C41A08",
"2. c #D31A07",
"3. c #E31909",
"4. c #C72607",
"5. c #C42B0B",
"6. c #CD2B0A",
"7. c #D62809",
"8. c #DB2C0B",
"9. c #C83707",
"0. c #C3320B",
"q. c #CB330A",
"w. c #CB3C0A",
"e. c #D23407",
"r. c #D83907",
"t. c #D3330B",
"y. c #DB330B",
"u. c #D33A0B",
"i. c #CA2E10",
"p. c #D52D10",
"a. c #C43511",
"s. c #E82D09",
"d. c #EC3B06",
"f. c #E4340A",
"g. c #E6370A",
"h. c #EC3B0A",
"j. c #FE3B05",
"k. c #F3300E",
"l. c #F63B09",
"z. c #8F5315",
"x. c #A9490F",
"c. c #9A6E15",
"v. c #AE6F0C",
"b. c #A86812",
"n. c #836923",
"m. c #CC450A",
"M. c #D6460A",
"N. c #DC440A",
"B. c #CE5B0D",
"V. c #D84812",
"C. c #E54506",
"Z. c #E84707",
"A. c #EC430A",
"S. c #EA4C09",
"D. c #FC4C05",
"F. c #F54808",
"G. c #FE4B0A",
"H. c #EA5608",
"J. c #F95607",
"K. c #F2530B",
"L. c #FD540B",
"P. c #E64211",
"I. c #FA4610",
"U. c #C66602",
"Y. c #C46B02",
"T. c #CB6C03",
"R. c #D56D04",
"E. c #D06D09",
"W. c #CB7407",
"Q. c #D37405",
"!. c #D2730A",
"~. c #C87D16",
"^. c #FF6405",
"/. c #FB6608",
"(. c #FE7B09",
"). c #C87E35",
"_. c #D36E53",
"`. c #B78625",
"'. c #AC9434",
"]. c #D78209",
"[. c #D9810B",
"{. c #DC8808",
"}. c #DB950C",
"|. c #DE9B0C",
" X c #CE8A1B",
".X c #D58918",
"XX c #DA9713",
"oX c #F18A0A",
"OX c #E79708",
"+X c #E3940C",
"@X c #E9940A",
"#X c #E29C0D",
"$X c #F79904",
"%X c #E19C11",
"&X c #DBA00C",
"*X c #DCA217",
"=X c #E8AA0B",
"-X c #F5A204",
";X c #F8A907",
":X c #F6A50A",
">X c #F9A60A",
",X c #F6AC0D",
"<X c #EDB20B",
"1X c #F4B40B",
"2X c #F9B40D",
"3X c #F6BB0C",
"4X c #E7A817",
"5X c #ECAD13",
"6X c #F4AD13",
"7X c #EBB213",
"8X c #ECB21B",
"9X c #F8B613",
"0X c #F4BC14",
"qX c #CE8B2D",
"wX c #D28925",
"eX c #DEA02F",
"rX c #E3B325",
"tX c #F5CA0D",
"yX c #F7CB0D",
"uX c #FCD20D",
"iX c #F6C715",
"pX c #FCCB15",
"aX c #F5C31C",
"sX c #FECB1A",
"dX c #FAD218",
"fX c #FFE415",
"gX c #F8C724",
"hX c #F9D723",
"jX c #F5CF3E",
"kX c #F5D738",
"lX c #F7E62A",
"zX c #FDE834",
"xX c #FEF838",
"cX c #B9AA50",
"vX c #B5AB69",
"bX c #DABC56",
"nX c #E0B960",
"mX c #FFF645",
"MX c #FCF355",
"NX c #FFFF73",
"BX c #FFFF7C",
"VX c #A49B85",
"CX c #BDB29C",
"ZX c #C1BBA6",
"AX c #FFFF80",
"SX c #FFFF9B",
"DX c #FFFFD4",
"FX c #FFFFE5",
/* pixels */
"7.$.y 7 $ @ $ 3 $ , & g g.p @ - 1 * * 1 , , f l.j.D.K.~ 0 ; < w h g._ ; - $ & 3 3 & 3 3 = $ * 9 M H.",
"H.' b b r 9 % , 9 : 7 +.r.w & $ = 4 = * 1 # g k.1.y.&.L t.>.a.V.V.8.K $ - - & = 3 & & & $ & e U 5.$X",
"(.d.t.9._ l l Q ' *.m./.K.^ : @ @ @ * $ # : { k.d K d.;.| m j @.S.7.P : & $ $ & = = & = & r *.H.(.oX",
"b Y 4.J.D.8.d.J.K.e.9.*.*.u.q.@.T t 7 q z 4.s.k.3.s.0.0 # * = ; 1.D.e.d ; @ & 3 @ $ @ < n V.J.r.] b ",
"O @ ; g +.K.^.H.b ; ; # # q x @.t.h.e.e.g.] d l 2.d.u 1 < > 1 1 =.L.C.r.#.k y e ; : h &.J.e.k 7 < @ ",
"= = = & # Y J.9.: = = = = O & @ , m u.I.L O * = q 5.p < 1 1 $ p :.U t b [ 5.g.7.4.6.C.P.U : & 5 = * ",
"= & & $ $ 8 r.w.< & = = 3 $ $ & = @ i { ; * * , O @.~ * , # w ,.M * 5 O & q d U 8.^.K.f * = = = & = ",
"O @ O $ = X b f.7 3 & & & & & & = # y Q * @ & * O f A.+.W  .S.a.; - * * * 5 & * l d.6.7 $ = & & O @ ",
"O + = + = & q 6.j $ & & & & & = & # m T @ & & = O p J.Z.q.K./. ., * * = = & * 5 : 5.#.@ * 3 = 3 + + ",
"+ O + = & X 7 g.` , X & $ & & O = < _ E O 3 = 5 o c -.w q z h.I $ 4 3 = & & = = #  ./ & * & & + O + ",
"+ O & O $ & m F.u.<.n r * @ @ * 8 U s.f O 4 5 = o c c $ $ * 5.M X * 3 = & & * - @ W -.# = $ & O O O ",
"O O $ O * a 0.Q > a @.9.#.Q ^ ] 4.F.j.z @ = = +   m v O , & ] v O * = = = & * * @ ' 6.; * & & & O O ",
"$ O @ ; d 4.N.# O O & :...j k T [ h.j.P @ & G `.z.x.x.z.s @ ~ v $ * & * 6 * * * 8 C.S.h $ = & @ $ $ ",
"; > g ..M./.H.p O O , ] 7 X O @ ; l 7.{ : o c.fX|.W.!.W.B @ { ^ ; $ $ * = - * k t.F.K.y.g # * $ # ; ",
"4.e.A.g.e.9.4.%.I ^ u.$.@ & 3 * * # H eXz.A v.{.&X7X=X<Xb.o.B.B.m./ f e w e l s.4.d r z 4.} x f ! =.",
"Y b k 7 # ; # > a E 9.=.< $ 3 = @ X '.xX+XR.W.T.5XuXiXsXOXQ.W.W.O.5.k.e.} { s.{ < & & O < ] h.j.{ / ",
"@ O & o + + & o o o @ ( h & @ @ J VX).}.4X=X5X7X5X<X1X6X5X5X5X7Xb.o. .6.G.K.7.h * , 4 6 = * / r.8 * ",
"* & 3 3 = + + 3 3 $ o j T @ = X CXFXqXv.9XdXpXsX2X-X>X:X3XpXyXuX%X!.V , ~ F.4.8 * 1 4 - % @ r =.< 1 ",
"* * & @ O O O O O & $ ; -.k $ @ vXSX XT.7XiX1X,X@X{.Q.].OX,X3XuX}.E.C * < t.6., 1 , , 6 1 4 r 1.r # ",
"* 4 = = & $ O & 3 @ & o [ k.d : cXAX~.U.7XpX;X>XQ.T.!.Y.+X:X,XpXXXU.V @ ; ;.8.; 6 6 4 - 1 * r 8.d % ",
"1 , = = & O o O o O o 7 q.y._._.).eXXX4X1X1X@X].+X@XOXOX7XhX0X1X<X5Xc.A 2 Q l.w - , 1 1 1 < l d.L < ",
"r q ; ; ; < > : 7 e b i.W * CXDX).v.1XpX,X:X].Y.@X,X;X-XsXzXaX-X9XdX=X!.Z [ p.! , * 1 < e i } G.y.f ",
"e.1.#.] =.] ( ( ( } k.M O & ZXDXqXT.5XpX,X>X[.W.@X:X1X0XsXzXaX-X9XpX%XT.m.6...8.} y 7 r f ) h.Z.K.h.",
"l.=.7.l.b - $ # @ @ ( k O o CXDXwXR.5XpX,X>X[.T.@X:X0XiXhXzXaX-X1XpX4XQ.o.; 1 q / 8.{ ) 2.<.m w a m.",
"1.< Q [ o o O 3 &   a N o O vXSXwXT.<XpX,X>X[.T.+X,X3XpXdXzXaX-X2XsX%X!.S X - * * z s.F.l.l , ; 3 l ",
"S.C.F.d.@.W k # @ X K ~ # @ cXBX.XT.<XpX,X;X[.T.@X>X3XpXhXzXaX-X3XdX|.Q.S & - * ; 7 7.d.l.s.5.` L 1.",
"D.l.{ ! R T ;.q.P _ h.l.7.-.nXBX.XT.7XpX2X>X].T.@X;X9XyXhXzXaX-X1XpX|.!.C . @ ; i #.d.&._ _ ) 4.j.l.",
"j._ : > , & w f.^.A.%.T m m bXNX~.T.<XpX,X>X].W.@X;X9XyXhXlXtX$X9XsX%XE.x.n E ' P.y.h : < < < i ) f.",
"[ ( & 1 1 - 8 7.t.l < * @ & cXNXwXT.7XpX>X;X].T.OX;X0XtXkXMXjX$X0XhX4XW.x.[ g.J.C.r # * 4 1 1 < 7 d ",
"a { w < q t } D.P q $ , = & vXBX.XU.7XsX,X>XQ.T.}.-X7XtXmXAXjXOXaXmXrX!.C X 7 R 5.# * $ 1 4 4 1 - , ",
"e L.N.:.9.C.(./.l , 4 * * & D H `.8X|.%X6X9X@X{.7XiXhXhXkXkXaX2X5X8Xn.V 1 & O * ,.T # * * * * - , , ",
"@.w.@.! T j E 5.@.* = * * 4 @ @ '.xX.XY.5XsX9X:XhXzXlXzX0X$X2XpX}.R.V   & 3 3 + r [ ; & - - - - % q ",
" .q ; , * O @ 7 ( | # ; 3 - - ; cXMXXXT.7XyX3X6X0XgX0XgX0X1XaXhX|.!.A o = 3 & $ : @.N $ # ; < q i @.",
"# = $ 3 3 3 = & q ] ( r 7 # w R bXAX XY.8XdXuXdX1X-X:X-X3XsXlXxX4XW.V o + O & = * X.H.;...^ U / S.0.",
"* $ & & & @ = 3 * 7 p.-.R +.>.O.F H `.rX|.XX%X}.5X9X0XgX8XXXXX4Xn.B 6 + 3 3 5 $ X | L.>.>.w.M./.(.I ",
"& & & 3 & 3 & = * @ I ^.J.q.j @ X . '.mXXXW.E.U.4XdXhXmX*XY.R.E.B o + + 3 3 = O # >.m X = # ; T L.E ",
"# $ & 3 & O & & * $ d K.*.w @ & = O D n.G o.~.|.#X=X*XrX.XM.Z A 2 X O & 3 3 O , ^ E @ = 5 = & @ / <.",
"< # $ = 3 3 3 * 3 < ^ a.w * & & & 5 + . X 8 ~.fX+XE.W.E.X.) 7 O $ & & & & & ; [ ( * = & = * 3 $ , 1.",
"M * & 3 3 3 4 $ $ i V.( # $ & & 3 + 3 = - y V.b.S A Z O.a U , $ @ $ @ & O ; -.q.; = * & & & = * & y ",
"[ 7 * @ O @ , * w ` S.d = = & & O 3 + & @ W @.O o 3 3 d G.r.f q ; # ; ; 7 =.M.9 @ = & & = = 3 @ = # ",
"$.0.U l g f l I -.D.e.t @ = = 3 & 3 + 3 # ,.j O - * t w.C.r.y.t.=.] _ { u.A.j @ * & & & & * = & $ * ",
"X.(.J.A.r.8.8.A.G.J.4.7 $ = & & 3 3 3 @ q =.> 3 * 0 >.| : < e M  .^ @.C.S.q.a # , $ = $ = 3 & = @ , ",
"N.e.b y 0 u p z 4.D.A.t * $ = & & & & $ w :.> * @ W W O * $ & & & O & q ~ L. .O # $ $ * * * * $ & # ",
"-.: O X O $ O O 8 U F.4.; = * = = * = = 9 i.r ; < %.v @ * * = * = 4 - - ; m./.| e 9 < & & @ & * * / ",
"f & * $ = = & & & # a P.[ ; , - $ * # , u M.t.:.i.I.| @ * & & 3 4 4 - - : m.oXJ.Z.Z.V.:.R h u r ~ k.",
"0 * $ & & & 3 3 $ $ @ Y G.` a ; # * : 7 K L.:.m a $.E @ = * = 3 = * $ * ( S.{ K L K ^ ] t.d.h.l.D.8.",
"p # & & = & & 3 4 - $ f H./.S.q.+./ @.9.J.S.i ; # W g $ * = - 5 = 4 @ W 6.f ; $ $ O = @ , h T y.G.2.",
"t * = & + + O & 5 - $ t H.(.N.*.*.%.%.%.9.F.$.e < ..v * - * 5 4 4 3 M 8.k , * * * = = 5 = & $ i 8.f.",
"I 9 - $ & & & = & 4 & u H.9.8 # * * , 4 , I K.[ : X.M # - $ - 4 = > h.K * 4 * 3 5 = = = 4 - - , b A.",
"&.v 1 $ $ = = 3 & * * u A.b $ - 4 * 4 1 , # ' G.} y.#.7 1 1 - , *  .7.8 4 4 3 5 3 3 3 4 = - - 1 k A."
};
