/* XPM */
static char *result[] = {
/* columns rows colors chars-per-pixel */
"50 50 252 2 ",
"   c #0C0008",
".  c #1E0106",
"X  c #15000B",
"o  c #1D030B",
"O  c #1E0311",
"+  c #240306",
"@  c #2B0206",
"#  c #250807",
"$  c #2C0806",
"%  c #24050C",
"&  c #2B050B",
"*  c #25080C",
"=  c #2B090C",
"-  c #340206",
";  c #3B0106",
":  c #33030A",
">  c #3A030A",
",  c #34090C",
"<  c #3A0C09",
"1  c #38150D",
"2  c #250610",
"3  c #2A0411",
"4  c #270910",
"5  c #350811",
"6  c #351315",
"7  c #430206",
"8  c #4C0305",
"9  c #430907",
"0  c #4D0905",
"q  c #430209",
"w  c #4C030A",
"e  c #4B0A09",
"r  c #540406",
"t  c #5C0305",
"y  c #5B0B05",
"u  c #530608",
"i  c #5C030A",
"p  c #550B09",
"a  c #5D0B0A",
"s  c #47190D",
"d  c #581808",
"f  c #431C12",
"g  c #620405",
"h  c #6B0505",
"j  c #6C0C05",
"k  c #660708",
"l  c #640C09",
"z  c #6B0B0A",
"x  c #760807",
"c  c #7C0D06",
"v  c #730A0A",
"b  c #671408",
"n  c #691309",
"m  c #7B1306",
"M  c #781607",
"N  c #74120A",
"B  c #7C140A",
"V  c #6E1010",
"C  c #56260F",
"Z  c #56280E",
"A  c #4E2313",
"S  c #79370A",
"D  c #6F3013",
"F  c #553936",
"G  c #744813",
"H  c #776155",
"J  c #8A0A06",
"K  c #840909",
"L  c #990D08",
"P  c #841405",
"I  c #8C1306",
"U  c #8D1B06",
"Y  c #841409",
"T  c #8A1409",
"R  c #82190B",
"E  c #8B1C0B",
"W  c #9A1406",
"Q  c #9D1A05",
"!  c #951708",
"~  c #9B140C",
"^  c #931B0C",
"/  c #951B12",
"(  c #AD0C05",
")  c #A31305",
"_  c #AA1707",
"`  c #A31C05",
"'  c #A31C0B",
"]  c #AC1C0A",
"[  c #BB1C06",
"{  c #B61A08",
"}  c #8B250B",
"|  c #93210C",
" . c #9B220B",
".. c #9B2709",
"X. c #95340B",
"o. c #962711",
"O. c #A72606",
"+. c #A4240B",
"@. c #AD230A",
"#. c #A42B09",
"$. c #AD2A0A",
"%. c #B22406",
"&. c #B62C05",
"*. c #B4240C",
"=. c #BB250A",
"-. c #B42A0A",
";. c #BA2B0B",
":. c #A73309",
">. c #BC350C",
",. c #B52B10",
"<. c #B42F15",
"1. c #C41A08",
"2. c #D31A07",
"3. c #E31909",
"4. c #C72607",
"5. c #C42B0B",
"6. c #CD2C0A",
"7. c #D62809",
"8. c #DB2C0B",
"9. c #C83707",
"0. c #C3320B",
"q. c #CB330A",
"w. c #CB3C0B",
"e. c #D23407",
"r. c #D3330B",
"t. c #DB330B",
"y. c #D33A0B",
"u. c #D83908",
"i. c #CB2F10",
"p. c #D52D10",
"a. c #C33511",
"s. c #CA3512",
"d. c #E82D09",
"f. c #EC3B06",
"g. c #E4340A",
"h. c #E6370A",
"j. c #EC3B0A",
"k. c #FE3B05",
"l. c #F3300E",
"z. c #F63B09",
"x. c #83470D",
"c. c #8B510B",
"v. c #875116",
"b. c #AF5312",
"n. c #AE5510",
"m. c #91651B",
"M. c #B7660A",
"N. c #AB7213",
"B. c #A97218",
"V. c #835830",
"C. c #CD410A",
"Z. c #D7470A",
"A. c #DC440A",
"S. c #D94812",
"D. c #C95810",
"F. c #E54506",
"G. c #E84707",
"H. c #EC430A",
"J. c #EA4C09",
"K. c #FC4C05",
"L. c #F54808",
"P. c #FE4B0A",
"I. c #EA5608",
"U. c #F95607",
"Y. c #F2530B",
"T. c #FD540B",
"R. c #E64211",
"E. c #FA4610",
"W. c #CA6B07",
"Q. c #C36C0C",
"!. c #CB6C0B",
"~. c #C57709",
"^. c #D77902",
"/. c #D56612",
"(. c #C57314",
"). c #FF6405",
"_. c #FB6608",
"`. c #E7720C",
"'. c #FE7B09",
"]. c #D36D2C",
"[. c #A68636",
"{. c #CB890D",
"}. c #D98707",
"|. c #DD830A",
" X c #DE950E",
".X c #D58C12",
"XX c #CE9011",
"oX c #E58A0B",
"OX c #E39C0C",
"+X c #F2920D",
"@X c #ECA708",
"#X c #F5A305",
"$X c #FAA405",
"%X c #F8AA07",
"&X c #F5A20A",
"*X c #F8B40A",
"=X c #F5A717",
"-X c #E9B218",
";X c #EEB519",
":X c #F2B615",
">X c #F3B717",
",X c #FABB12",
"<X c #D7943B",
"1X c #EFB128",
"2X c #EDB72B",
"3X c #F6C40E",
"4X c #F7C60E",
"5X c #FCD007",
"6X c #F5C915",
"7X c #FBCA14",
"8X c #F8C51A",
"9X c #F5CB1B",
"0X c #F5D31E",
"qX c #FAD31C",
"wX c #F5CC27",
"eX c #F6D626",
"rX c #FADB2B",
"tX c #F3D038",
"yX c #F5D33C",
"uX c #F9E227",
"iX c #FCE42D",
"pX c #FBE432",
"aX c #FCE934",
"sX c #FAE53A",
"dX c #AB9555",
"fX c #E5BB70",
"gX c #E7CA49",
"hX c #F2DC50",
"jX c #F7E547",
"kX c #F9E555",
"lX c #F9ED67",
"zX c #F9F76A",
"xX c #F9E57E",
"cX c #FBFC74",
"vX c #FBFC76",
"bX c #B59889",
"nX c #DBCD8E",
"mX c #FADD97",
"MX c #F8E886",
"NX c #F8F489",
"BX c #FBF693",
"VX c #EDD8AC",
"CX c #F9F7A8",
"ZX c #EDE3B8",
"AX c #F9F1B2",
"SX c #F9F5BB",
"DX c #E1DCC1",
"FX c #EAE3C2",
"GX c #FAFBC7",
"HX c #FAFBCC",
"JX c #FCFCD3",
"KX c #FDFEDA",
/* pixels */
"7.#.y 7 # + # 2 * $ # l h.y + = = = = 5 - , h z.k.K.Y.~ 8 - ; w k h.Q : * * % 2 2 % 2 3 * * & 9 B I.",
"I.` m m r 9 $ : 8 ; 7 O.t.w o $ & & & # : @ j l.[ g.-.K r.>.a.S.Z.7.I @ 3 # % * 2 % * % # & e I 6.+X",
"'.f.r.9.) x x ! ` &.C._.Y.^ > + % + & # @ ; =.l.g J z.-.} N l $.L.7.L < # # & * % * + * * 8 &.I.'.+X",
"m U 4.U.K.8.f.U.Y.y.9.&.&.y.q.+.P t 7 q c 4.d.l.3.d.&.0 @ & * : 1.K.e.t - + o 2 + # # > M Z.U.u.O.N ",
". + ; l O.Y.).I.m - - @ @ q v +.q.j.r.e.h.` i x 2.f.p : > , , : *.P.F.t.@.z y w : ; k %.Y.y.k w ; % ",
"* * % % @ U U.9.; * * 2 * . % + : B y.E.K o @ 2 q 5.p : , , & p >.I t m @.5.h.8.4.4.F.R.I ; * 2 * @ ",
"* # % # # 7 u.u.- * + % * % % % * % r [ - & & : o O.~ @ : - w <.B @ * O % q i I 8.).U.h @ * * % + * ",
"o * % # * . m t.7 2 * * % * % % # @ a W @ + * & o j H.#.U ..Z.a.- = 3 & & * # & x f.6.7 * # * % o % ",
"o o O * # * q 6.l # # * * % % % * @ N Y % 2 % % o p U.G.e.Y._.| & & & % * % 3 * ; ;.%.% & 2 * O o O ",
"o O O * % . q g._ - o % * % o * * ; ) Y . 3 * % X b =.8 q x H.P & & 2 * * % # & @ | Q % & % * 2 O o ",
"o o o * % % M L.r.,.m 8 @ % + @ 8 I d.j o & * 2 X b n % & @ 5.B + & 3 * % % % = + ^ =.@ * + o o o o ",
"o o o o = i 0.! > d @.q.@.! ^ ' 4.L.k.c o * * O   n V o , % ' n o # * # % % & = % ` 6.- & * % % o o ",
"# * + - g 4.w.@ o o % ;. .l z Y _ j.k.L + * v.N.B.N.n.D 5 + ' b . = # * 3 * = 3 8 F.J.k % * # % # * ",
"- ; j  .Z._._.p o o - +.7 o o + - x 7.[ @ X N.*X%X=X|.Q.< + [ ! - @ = & * = : z r.L.Y.t.j @ @ # @ - ",
"4.q.H.h.e.9.4.-.P ^ y.#.+ % 2 2 & = v.`.n.m.gXkXtX9X@X XdXbX].D.a.+.z w e u x d.4.t r x 4.{ x h W { ",
"U m z 8 @ @ - - a R w.%.; & * * % & XX%X%X;XzXcXjXiX*X&XAXKX<XM.o.4.j.e.{ [ d.[ ; % # % ; ' f.E.[ Q ",
"% o X o o O o o X X % ! a % % 3 G B.gXkXeXwXjXsXaXpXMXmXSXHXVXnXV.} } 6.T.Y.7.g & 5 3 : * @ ! t.8 # ",
"@ % 3 % * O O 2 * % X l T + + 3 .X,XzXcXaXiXuXiXiXjXCXJXHXHXJXJX<XW.s ; W L.4.w = 5 = 4 $ # p *.q : ",
"& & * % o o o o o % o - 5.k O = XX%XjXjXqXwX XXX;X>XkXlXAXJXJXJX<XW.C & ; r.6.- , 5 5 & : & r 4.r $ ",
"3 & * * * * o o % % % 2 ] d.k q {.*XrXuX5X7XS d }.@XqXsXCXHXHXHX<XQ.f @ - *.t.- = = : 3 5 @ r 7.t : ",
", & # & * o o o X o X > q.u.S.Q.gXhX0X7X~.B.[.dXgXjX0X0XCXJXMXlX1XoXc.Z = Q z.w = : : 5 , < x l.K > ",
"r q - : : > > ; q 0 c q.E , XX,XzXvX9X*XX.x.xXvXvXcXeX-XnXHXkXuX:X$XoX!.d _ p.~ & : , : 9 t { T.t.h ",
"e.1.@.' *.) / / / [ l.R X 1  X%XsXjXNXfX/. XBXCXSXCX8X@XgXhXsXiX;X$X^.!.y.r. .7.{ y w i h ( j.G.Y.H.",
"z.*.7.z.m = # @ + . / z X 1  X:XrXjXGXZX.X=XAXKXJXGX1X@X*X3XrXiX:X$XoX!.D - > 9 Q p.[ ( 2.a.z w a C.",
"1.; ^ ] X . X o %   a V X 6  X;XxXBXHXSX=X=XAXHXHXGX2X&X,X6XrXuX;X%X}.!.s % = & + c d.K.E.x : : % x ",
"J.F.L.f.+.E z : + . J ~ + , }.1XSXKXHXAX1X=XCXJXJXSX2X#X8X6XrXiX;X$X}.!.s % = = : 7 7.h.z.d.4.' K 1.",
"K.z.[ Q T Y -.q.L ) z.z.7.a.fXMXGXHXJXSX1X@XAXKXCXBX2X#X3X7XrXiX>X$X}.Q.s % % - i @.f.*.W ) ) 2.k.k.",
"k.) ; > : % w g.).H.#.Y m D FXKXJXJXKXZX=X=XSXJXvXzX3X@X3X6XrXiX:X$X}.W.X.R Y Q R.t.h ; ; ; > g ( g.",
"] T & 5 , = 8 7.r.x ; : o 6 ZXJXHXHXJXZXb.M.MXBXvXzX;X#X3X4XrXiX;X$X|.W...] g.U.F.r @ & 3 : 5 > 8 g ",
"l =.w - q t %.K.L q # 3 + = DXKXHXHXJXVXp S lXcXvXvX;X#X,X4XrXaX>X=X.X(.1 + q T 5.@ # & 5 : = & # = ",
"w U.A.;.q.F.'._.x : & = & + F H FXGXBXxXN..XtXtXhXtX,X*XqXeX9X6XOXoXG A 1 % o & <.Y @ & = 3 & = : : ",
"+.w.+.~ Y l R 4.+.& 2 3 & 3 + @ DXSXjXqX7X7X#X#X#X@X,X6XrXpX:X&X^.!.1 X * 2 % 2 w ] - # = 3 = = # q ",
"o.q : : @ o + 7 / } @ - 2 = & , dXfXeXeX4X4X,X,X,X*X0XeXpXpX:X=X^.Q.f o 2 * * % ; ' b + @ : ; q t +.",
"@ * # % % 2 2 # q ' / r 7 @ w E D.^.,XqX7X7X7X4X4X6XuXaXaXpX,X&XoXQ.1 O o O % * @ ..I.>./ ! I  .G.5.",
"@ & % 2 % % % 2 % 7 p.=.Y +.a.o.d Z {.OX X XwXrX0X0X9X8X8X>X X|.D A 4 O O 2 * = . X.L.0.>.C.Z._.+XI ",
"* % * % % 2 % % & % P ).U.q.b @ X o b.^.!.^.yXaXaXiX:X&X@X&XoXM.4 X O O 2 * * o @ >.N X % & - K T.R ",
"@ % * % % o * * 3 # g Y.&.w % + * 4 A Z Z } -X0X8X9XOX.X`./.S s * * o * 2 * o : / R @ * * 4 # % / =.",
"; # * * 2 2 2 & = - / s.8 & # % o 2 O o o w (.*X%X%X`.Q.| ( ; % * * % % * % : +./ + % * * & * % : 1.",
"B @ % 2 2 2 3 # # i S.E @ @ % * O * 2 * = d S.b.v.x.S X.a L : + # + # * o - =.q.- * % * % % + & % a ",
"] w % + o + & : w _ J.g * % % 2 2 o O * + U +.. o O % k P.u.h q & @ - - 7 *.A.7 % * * % % * * % * : ",
"..q.I x g h v K =.K.e.t + # * 2 % 2 O % @ ,.b o = & y y.G.u.t.p.*.' ) [ r.H.a % @ # % % * 2 % # % @ ",
":.'.U.H.h.g.8.H.K.T.4.7 * * 2 % 2 2 2 % q *.> 3 & 0 0.} ; ; e B | ^ +.F.J.6.d @ : # % % & * 2 * + : ",
"A.6.M y 0 0 r c 4.K.H.t & = * % % * 2 + 9 ;.> * % R R X = * % + % % % q / T.| . # # # & 3 & & @ # @ ",
"=.- . # o o o o 8 I L.4.: # # % * & & # 9 i.t - ; -.n @ = # * * & 2 = # ; C._.| e 0 - 2 % + % # @ / ",
"h # & # * * % % # + y R._ - : $ @ = & : e Z.t.;.s.E.R + & % % 3 2 3 & = ; w.+XU.H.G.S.;.P k r i ~ l.",
"8 # % * % * 2 2 3 # + U P._ a - @ & - 7 J P.>.N a #.E + * * % 2 * & # & E G.[ J K Y I ' r.f.j.z.K.8.",
"i # * % o 2 2 2 & 4 # h I.).J.q.O.Q ' q.U.J.i : @ E j # & & * = * 3 % E 6.v - # # o * + > g Y u.P.2.",
"t @ & % * o o * 2 = # t I.'.Z.;.&.:.$.:.9.L.#.w ; ..n @ = & 4 3 3 % B 8.z : & * & = 4 * * * % i 8.g.",
"P 9 = * # % * % % 2 # u Y.9.7 : + & & 3 : P Y.] ; o.B - * = = 3 * 9 j.K & 3 & 2 2 * 2 & 4 & = : B H.",
"-.n - * # * 2 * % & & u H.M + = = 3 5 : : @ ` P.{ t.@.7 : $ = , @ | 7.w 2 3 = 2 4 2 * 2 * 4 = : j H."
};
