/* XPM */
static char *result[] = {
/* columns rows colors chars-per-pixel */
"50 50 256 2 ",
"   c #0F7C7F",
".  c #107B7F",
"X  c #0E7B7E",
"o  c #118E95",
"O  c #129095",
"+  c #0E7A7D",
"@  c #128D94",
"#  c #0E8C91",
"$  c #117D80",
"%  c #121313",
"&  c #010000",
"*  c #0F8D94",
"=  c #149198",
"-  c #047376",
";  c #040404",
":  c #2D2E2E",
">  c gray20",
",  c #129092",
"<  c #0B777C",
"1  c gray19",
"2  c gray13",
"3  c #09090A",
"4  c #2C9EA0",
"5  c #181819",
"6  c #0F8F8F",
"7  c #0C8B8F",
"8  c #383737",
"9  c #151616",
"0  c #100F0F",
"q  c #090606",
"w  c #2AA0A2",
"e  c #0F8082",
"r  c #353535",
"t  c #2C2B2B",
"y  c #20989F",
"u  c #118A8A",
"i  c #6BC7CB",
"p  c #1E999B",
"a  c #158F96",
"s  c #228D90",
"d  c #12868A",
"f  c #148185",
"g  c #137E82",
"h  c #12797C",
"j  c #0B797C",
"k  c gray24",
"l  c gray16",
"z  c #252525",
"x  c #239CA3",
"c  c #13959C",
"v  c #19959A",
"b  c #1B9494",
"n  c #0E8D93",
"m  c #078A8F",
"M  c #0F8B8D",
"N  c #1F888C",
"B  c #06767A",
"V  c #464747",
"C  c #403F3F",
"Z  c #3A3A3B",
"A  c #272727",
"S  c #7BD1D6",
"D  c #83D0D3",
"F  c #08878E",
"G  c #03848B",
"H  c #027677",
"J  c #081617",
"K  c #32A7A8",
"L  c #3CA1A4",
"P  c #2DA3A3",
"I  c #269EA0",
"U  c #229599",
"Y  c #0B8991",
"T  c #05878A",
"R  c #0B8487",
"E  c #108484",
"W  c #0C7E80",
"Q  c #0B7779",
"!  c #007073",
"~  c #074E51",
"^  c #5BBFC3",
"/  c #48ADB4",
"(  c #28A1A7",
")  c #0F8F94",
"_  c #0B8C92",
"`  c #188689",
"'  c #1D8589",
"]  c #168388",
"[  c #028485",
"{  c #033334",
"}  c #1B1B1B",
"|  c #96DCE0",
" . c #90D7DC",
".. c #72CED2",
"X. c #6BC1C7",
"o. c #63C0C3",
"O. c #40AFB2",
"+. c #33A6AD",
"@. c #2EA4A8",
"#. c #3B999E",
"$. c #109398",
"%. c #109096",
"&. c #0A8E91",
"*. c #0A7B7F",
"=. c #4B4848",
"-. c #1E1E1E",
";. c #0C0D0D",
":. c #A2EDF3",
">. c #94E2E5",
",. c #91DDE1",
"<. c #89D7DB",
"1. c #6CCDD0",
"2. c #7ACCD0",
"3. c #72C5CA",
"4. c #4EB7BB",
"5. c #58B6BA",
"6. c #50AAB0",
"7. c #179596",
"8. c #149393",
"9. c #068A8D",
"0. c #0A7277",
"q. c #575656",
"w. c #144244",
"e. c #083B3D",
"r. c #2A2424",
"t. c #B8FEFF",
"y. c #9EE2E5",
"u. c #8DDADF",
"i. c #76D0D4",
"p. c #7CD0D2",
"a. c #75C7CA",
"s. c #63BABF",
"d. c #47B7B9",
"f. c #46B3B4",
"g. c #39ABAE",
"h. c #41A4A7",
"j. c #339FA4",
"k. c #14999E",
"l. c #239D9C",
"z. c #289A9C",
"x. c #30999C",
"c. c #2C9599",
"v. c #2B8F94",
"b. c #188D92",
"n. c #138E91",
"m. c #298B90",
"M. c #128C8F",
"N. c #0F8E8B",
"B. c #0B8A8B",
"V. c #047A7C",
"C. c #142021",
"Z. c #051E1F",
"A. c #A8F6FA",
"S. c #A4E5EC",
"D. c #97E6EB",
"F. c #8EE1E5",
"G. c #99E1E4",
"H. c #7FDADD",
"J. c #85D7DD",
"K. c #7FD5DA",
"L. c #89D1D9",
"P. c #7EC6CA",
"I. c #5EC3C7",
"U. c #58BCBD",
"Y. c #50B0B3",
"T. c #4AA3A9",
"R. c #39A6A8",
"E. c #148B8B",
"W. c #0D8086",
"Q. c #047E81",
"!. c #076B6F",
"~. c #12656A",
"^. c #4B4D4D",
"/. c #064548",
"(. c #424343",
"). c #241B1C",
"_. c #171010",
"`. c #B3F5FB",
"'. c #A6F1F4",
"]. c #9AEAEE",
"[. c #85D6D8",
"{. c #71C9CF",
"}. c #62C5C7",
"|. c #5EB5B9",
" X c #58AFB4",
".X c #48A9AD",
"XX c #35A3AA",
"oX c #319298",
"OX c #1C8186",
"+X c #045C5E",
"@X c #09585B",
"#X c #055455",
"$X c #505151",
"%X c #163334",
"&X c #253030",
"*X c #082F30",
"=X c #141717",
"-X c #100808",
";X c #ACF0F6",
":X c #88DDE0",
">X c #67CBD1",
",X c #75CBCC",
"<X c #69BCC1",
"1X c #3DA8AE",
"2X c #1C8D96",
"3X c #066568",
"4X c #086066",
"5X c #616363",
"6X c #5D5D5D",
"7X c #2F5254",
"8X c #1C3A3B",
"9X c #343031",
"0X c #0D2C2D",
"qX c #1C2222",
"wX c #272121",
"eX c #1B1516",
"rX c #C3FEFF",
"tX c #79D6D8",
"yX c #4EBBC2",
"uX c #2CABAC",
"iX c #72A4A6",
"pX c #638D91",
"aX c #227578",
"sX c #226D6F",
"dX c #1B595D",
"fX c #525C59",
"gX c #1D494C",
"hX c #2B4647",
"jX c #182B2D",
"kX c #331319",
"lX c #020C0D",
"zX c #AFFAFF",
"xX c #90E7EB",
"cX c #3CB5B7",
"vX c #75B0B3",
"bX c #65A6A8",
"nX c #159FA3",
"mX c #4F999A",
"MX c #489195",
"NX c #058084",
"BX c #358082",
"VX c #5A7C81",
"CX c #4D7477",
"ZX c #726869",
"AX c #4D6567",
"SX c #306062",
"DX c #364542",
"FX c #4A3A3D",
"GX c #ABE7ED",
"HX c #70B9C0",
"JX c #619C9F",
"KX c #147679",
"LX c #435B5C",
"PX c #343F3A",
"IX c #433034",
"UX c #381E22",
/* pixels */
".     .   P.XXy b # O @ %.d h X   Q x.>.v # o 6 E h ] # b '.'.v E.$ H |.| L D O.Y a o , u h .   .   ",
"X   $ - T.<XQ.+.v # @ o o n.g +   < s D.y # a , ` h Q.= <.H.,.X.[ !  XL.f ! |.i.9.9.o , u h .   .   ",
"X   X < 3.x.- 4 = n o o o %.` . g H 6.t.1.m F T Q.0.L :X..&., D i s. .g < f I ..S R.b.9.u . X X . X ",
".   + $ p.s < c.6 n.o @ O # u + ! m.GXF.F.u.1.^ ^ p.2.@.y 4 T M.D rX.XH   M.f.$.4.K.u.S U < .   .   ",
"X   j g D ' f m.E O o * Y y P c.s.y./ Y y ^ ^ I.Y.#.B.m 6 / j.&.U G.` Q b g.^ w G &.I i  .f <   . . ",
"+ . . $ D oXv.g $ , * , o.F.:XJ.HXz.Y * v y G R - 0.u = 7 R.g.z.#. .j.x.@.v 7 XX@.p , B.| 6.< . Q + ",
"f   Q . S.6.X   $ , m }.D p $.a G 7 O # w b O u . . M O # l.p B.] | 1.&.@ * @ @ p l.I s S S N v.N ` ",
"sXdXN a.t.[.$ - H [ w >.v 7 n * O O 7 x w N.n.e X + u O # p l.N.d >.A.Y.F Y @ o n M W !  X,.B e ~.dX",
"4X%XpX .p a.| T.L / ].A.x F %.@ o _ x P 7 O u + . j R = &.4 b [ ^ <.uXu.X.( # ) a f $ - #.rX..aXjX~ ",
">.VXt e.3XE A.t. .,.:XD.G.XXn O # v K 6 @ , f + X + d = 7 l.$.U.>.x G v i ,.3.* e 0.  V.i.'.pXt LXp.",
"i sX% _.J e.vXMXgX0.$.Y U.>.6 @ O K 8.* O u + . . . < m 4 I.D.;Xx &.a n Y 6 a.D h w.+XBXpXC.% eXSX>X",
"OX0.0X1 5 q & 3 l ~.c # &.| f.[ b U Y n 6 e +   . - oXi.,.S 2.:./ F O O O 6 W |.P.&X% q q 3 9XqX3X- ",
"z.6 +X2 z % 3 ; 0 @X$.@ _ 1Xy.{.^ ( k.b e Q $ X H |. ..XnXP [ g.y.4 7 o @ O ] H aX} & ; 9 A r.e.d g ",
"K 8.# *Xt 5 ;.; 2 0X* o o 7 x ^ D.S.i N N ' - + X.D ] - W j.l.[ U.<.) $.o * M.b.e._.3 ;.9 : C.$ 7.6 ",
"XXb.c 4X-.1 % ; } J < $.# O 4X6 +.4 y.T.W oX6.L.i R X . + u K O 9. .Y.+Xd @ ) M.Z.2 3 0 : r./.k.@ o ",
"cXy Y 7 8X9X2 3 A -X{ = k.d *Xx.x NX XzX].L.3.#.{ { !.E + < x 5., / <.{ ~.nXk.~ q t 3 5 > C.W = O * ",
"K P g.tXiX} 1 ;.> 5 & *X/.8X8Xc.c f ' ;XP.' !.%X).).C.3Xe < x +.z.4.>.gX%X/.e.& ; 8 0 t r./.k.# G 7.",
"i.[.;XrX].8Xt -.r 2 ; q ; 9X&Xn.%.d s y.s #X=Xr.(.V l 0 /.E z., T w xXw.wX-X& ; 0 V 5 > J V._ p U.J.",
"/ j.s 6.].sX2 1 : : & ;.qXZ 0 0.c M s xX~.5 8 l l Z l > 2 dXp # F K D J 9X1 ; ; 5 : A ).SX>X{.u...d.",
"B *.< ! X.h.Z.: : A ; & : r & *Xc m R.vX; t k t k $Xt r 1 _.~ c T }.VX& z r ;.& z : A C.s.t.F.y F *.",
"$ . $ - / o./.r.k C 3 3 8 2 ; -X{ B.H.DX& -.> 1 $X6X> Z 2 ; J R ( CXq 3 0 t 0 & 1 =.).e.uX| s < $ . ",
"    $ - L o.3XC.V V 3 ;.k 0 ;.9 q J CX; & l r 1 ^.q.r C : 3 & w.%Xq 9 % q : } ; 8 8 2 ~ 3.T.! g X   ",
".   $ - h.s.B 0XwXZ } -.l 3 % % % 0 & ; 9 1 : : k C : > 8 2 ; q 0 % % % 3 } 2 9 $X8 J f K.` +       ",
".   $ - Y.2.V.~ _.> 2 z 9 5 z } % % 9 9 % z 1 z Z V l > t 5 % =X9 9 -.z 2 0 z z (.wX{ b.S ` +     X ",
".   . < ' | L +XJ =.Z % A 2 l 1 z % % % 0 A k 1 =.q.r C 1 9 % % 0 -.1 > A l 5 l q.5 #Xb.S ] j     X ",
". .   . H L S.>X7XwX1 % =Xt q.C > l % 9 z C 6XV 8 =.8 (.C A 5 % -.: Z q.1 =X0 : : C.Q ` [.' j     X ",
".   .   + f D.'.BX: ^.~ < w.V 5X8 : 2 0 l ^.6XZ Z k 8 ^.C > 9 2 r 1 q.=.%X@X@X^.=.e.e m.G.N <     . ",
"        j ' [.N - w.r 7XW.* !.gX&Xr.C 5 9 8 k V r k > V k 2 ;.> > t AXiXD v.w.V hXKX- X.:.] j   . X ",
".     $ - x.a.V.e E ~.w.~ O c n !.0X8 r q 0 1 (.8 k C > 5 q z 8 jX#XP.tXh.iXhX#X!.B #.`.u.g X   . X ",
"+ + X + H p.s.! ` 8.c %.o o @ @ c { eXk 2 3 2 Z (.Z k t 3 } Z r.Z.Q.yXo.d h.<...s.2.`.t. XB $       ",
"f ] e h o.zXu.4.p * @ * * o @ %.e ; ; 2 > r 8 r k C 1 > 8 C z 3 & +X}.{.v *.OXh.Y.L 3.`.c.B   . X j ",
"N . L  .2.R.4 5.,Xc # = = n Y c ~ q 3 & 3 l r > r > 1 : : 5 & ; ; w.>.@.m = ) T [ H N | ` *.. X . N ",
"- c.L.4 M 4 b M 5.i w K K @.y k.~ q q Z.J & -.A A > -.A ; lXZ.; q 7Xd.* @ o O O = O U <.f j . < m.' ",
"W 2.c.m O = p w +.S c * %.= l.K j.hXJ @X~ & qX} r =.9 t & { MX&XjX' +.7 a o o o @ _ # ,.Y.W + m.N Q ",
"s.6.T = @ o * # M i y d M.o # &.4.P.4Xd ~ & =X5 Z q.5 5 & 7X<X~.OXyXv 9.n n * # * b I d.;XK.o.5.V.j ",
"|.R O @ o o o = R 5.T.! g E.a * # p.x %.h lX& 3 $X5X% ; & bXd.G ) I.g.4 U p I I P R.2Xw :.F.H.G.3.5.",
"B M o o o * n.E.B v.[.s - g 2X&.7.J.+.6 e lX& } fXfXqX& & mXyX[ P O.j.2X4 d.f.p _ G @ p..XB.6 s T.#.",
"E , * O @ o M.+ . V.c.L..XB Q.7.p.4.w 8.W J eX: fX5X(.).;.bXcXU P W 0..XS X.X.J.i +...U.T a @ _ e s ",
"n.@ o O o O R h   . B N a.a.o.S f.B.K = W.% IXC PXDX6XFX).mXx 4 E - 6.2.] B H 2Xo.:.t./ F a O = , I ",
"= v * # @ , E +   X $ < H 2.S.U m a ( * 6 { kXZX$XV ZXUX> s w b - x.L.j Q $ . W [ @.'.G.y _ m 7 6 w ",
"I 4 +.p n O u + .   X $ - h.i G O b.U # k.#XkXFXV ^.=.kXAXuXj.u - 3.L - $     + M m i t.:.K.S K v U.",
"G G v @.y T n ` <   X $ Q oXo.F ) 4 b n , + % -X9 5 -Xq JX1.U *.oX,X*.  .   . + u 9.K.A.}.O.f.,Xi l.",
"4.^ >X1.tX}.4 N.e .   $ ! / X.NX7.( ) * @ b Z.eX> : t J R J.4.V.P.L B $ X     . [ O.G.4 F F T z.5.{.",
"O.g.w w w O...I.8.j + H OXy.<X!.E.U # @ @ ) aXA V =.r.@X$.R.,.i a.j $ . X   . g 8.:XP R a # x w 9.( ",
"R T # # _ F , ,XO.4 N / S.`.| 6.4 I 6 @ m f.3.&Xq.5X: 0.$.7.:.A.s j   X X   h Q.1.I.m a o 6 @.d d W.",
". h d O o a 9.d.K.S D y.5.#.h.<X .i.6 7 {.i.7.*X_._.Z.W.) = D.I.*..     X . Q 1X<.O * # B.z.s + . + ",
"X   + M = , m d.:.H.^ f ! g ] - ' D i...X.T ) E e.{ X c # = u.1XW.. X . X . e ,.XXG O p 4 x.< . . . ",
".   + e , @ 7 i O.I G N.. X m.OX- E.<.`.y # = M.] R M o Y x J.( N.e *.X $ !  X1.M w P g.b . X       ",
"X   X + E._ 1X1.P 7.o 8.d j g m.v.L U ].( 7 o , f Q W.= F ( H.= N.W X $ B v.S.f.@.I 8.M u h X . X . ",
"  .   X + y ..+.P M @ %.n.. + *.v.#.y F.( 7 o , E h g a 7 O.H.= N.  . < #.:.A.4.b._ o , u h . .   X "
};
