/* XPM */
static char *result[] = {
/* columns rows colors chars-per-pixel */
"50 50 247 2 ",
"   c #020202",
".  c #0B0304",
"X  c #080807",
"o  c #030509",
"O  c #050A0B",
"+  c #0C0B0C",
"@  c #120103",
"#  c #1C0205",
"$  c #160A03",
"%  c #160309",
"&  c #1D040B",
"*  c #120D0C",
"=  c #1A0B0C",
"-  c #0F110E",
";  c #16100F",
":  c #0B0F11",
">  c #1C0B11",
",  c #0D1111",
"<  c #131313",
"1  c #1A1616",
"2  c #191718",
"3  c #131A1B",
"4  c #1B1C1C",
"5  c #240306",
"6  c #2C0205",
"7  c #240807",
"8  c #2C0806",
"9  c #24050C",
"0  c #2B050B",
"q  c #25090C",
"w  c #2B080C",
"e  c #340205",
"r  c #3B0106",
"t  c #3E0B03",
"y  c #33030A",
"u  c #3B030A",
"i  c #34090B",
"p  c #351604",
"a  c #250610",
"s  c #2A0411",
"d  c #210C11",
"f  c #2C0B12",
"g  c #241315",
"h  c #21171C",
"j  c #241D1A",
"k  c #371815",
"l  c #1D201F",
"z  c #36221B",
"x  c #1B1D21",
"c  c #1C2223",
"v  c #242424",
"b  c #2C2425",
"n  c #232728",
"m  c #272A2A",
"M  c #2C2C2C",
"N  c #3A2520",
"B  c #302B2B",
"V  c #32302F",
"C  c #252E30",
"Z  c #2F3131",
"A  c #343434",
"S  c #373A3A",
"D  c #3B3B3B",
"F  c #440205",
"G  c #4B0205",
"H  c #430905",
"J  c #4D0A05",
"K  c #420309",
"L  c #4C0309",
"P  c #4C0A09",
"I  c #540506",
"U  c #5C0305",
"Y  c #520905",
"T  c #5B0B06",
"R  c #530409",
"E  c #5C0409",
"W  c #550B09",
"Q  c #5D0C09",
"!  c #47150A",
"~  c #581707",
"^  c #55190D",
"/  c #471811",
"(  c #620405",
")  c #6B0505",
"_  c #650C06",
"`  c #6B0D05",
"'  c #640509",
"]  c #6B0409",
"[  c #650B0A",
"{  c #6D0C0A",
"}  c #770307",
"|  c #730506",
" . c #740A06",
".. c #7C0C06",
"X. c #730A08",
"o. c #7D0C0A",
"O. c #641405",
"+. c #6C1206",
"@. c #64120A",
"#. c #6B1209",
"$. c #741205",
"%. c #7B1306",
"&. c #7F1806",
"*. c #74130A",
"=. c #7B140A",
"-. c #731A09",
";. c #7E1C0A",
":. c #6F1811",
">. c #522613",
",. c #522514",
"<. c #772904",
"1. c #79360F",
"2. c #502C24",
"3. c #403F3F",
"4. c #643F22",
"5. c #49423D",
"6. c #444343",
"7. c #4B4B4B",
"8. c #555555",
"9. c #5C5C5C",
"0. c #636363",
"q. c #696969",
"w. c #850905",
"e. c #8B0B06",
"r. c #850A09",
"t. c #9C0C07",
"y. c #841305",
"u. c #8D1306",
"i. c #831B05",
"p. c #8C1B06",
"a. c #841409",
"s. c #8A1509",
"d. c #831B0B",
"f. c #8C1C0A",
"g. c #951205",
"h. c #991606",
"j. c #921B06",
"k. c #9D1B05",
"l. c #91140B",
"z. c #9C130C",
"x. c #931C0B",
"c. c #9B1D0A",
"v. c #951912",
"b. c #A31305",
"n. c #A31B05",
"m. c #AC1B04",
"M. c #A3170C",
"N. c #A31C0C",
"B. c #AC1C0A",
"V. c #B51807",
"C. c #B41C04",
"Z. c #BB1C09",
"A. c #8B220B",
"S. c #862A08",
"D. c #982507",
"F. c #93210B",
"G. c #9C230B",
"H. c #9F3106",
"J. c #972711",
"K. c #A42105",
"L. c #AC2A05",
"P. c #A4230B",
"I. c #AC230B",
"U. c #A42B09",
"Y. c #AC2A0A",
"T. c #B32506",
"R. c #B62C05",
"E. c #B4240B",
"W. c #BA260A",
"Q. c #B32B0A",
"!. c #BB2C0B",
"~. c #A73607",
"^. c #B6370C",
"/. c #BC350C",
"(. c #B62811",
"). c #B02E16",
"_. c #C41A08",
"`. c #D51A08",
"'. c #E21909",
"]. c #C32405",
"[. c #CC2B06",
"{. c #C4230B",
"}. c #C42C0B",
"|. c #C92809",
" X c #D32D06",
".X c #DB2B06",
"XX c #D5260A",
"oX c #D42B0B",
"OX c #DB2C0B",
"+X c #C53605",
"@X c #CE3B05",
"#X c #C3320B",
"$X c #CB320A",
"%X c #C73B08",
"&X c #C43A0A",
"*X c #D33506",
"=X c #D23A05",
"-X c #DB3A07",
";X c #D3330B",
":X c #DB330B",
">X c #D33A0B",
",X c #C63412",
"<X c #CC3111",
"1X c #E72C09",
"2X c #F92A0B",
"3X c #EC3B05",
"4X c #E4340B",
"5X c #E93509",
"6X c #E33C0C",
"7X c #EC3D0A",
"8X c #FF3B05",
"9X c #F23C0A",
"0X c #F93D08",
"qX c #EC3911",
"wX c #F03210",
"eX c #B34105",
"rX c #CA4109",
"tX c #D64609",
"yX c #DB440A",
"uX c #DA4612",
"iX c #E54607",
"pX c #EB4205",
"aX c #E34907",
"sX c #EC4A06",
"dX c #EC440B",
"fX c #E44C0A",
"gX c #EA4C09",
"hX c #FD4105",
"jX c #FD4D05",
"kX c #F54708",
"lX c #F44B0B",
"zX c #FE4B0A",
"xX c #EA5609",
"cX c #F45205",
"vX c #FF5205",
"bX c #F2530B",
"nX c #FC540C",
"mX c #F85B09",
"MX c #E74211",
"NX c #FB4611",
"BX c #EF610A",
"VX c #FF6405",
"CX c #FC6A07",
"ZX c #FD6009",
"AX c #FE7B09",
"SX c #FC8608",
"DX c #FA9009",
/* pixels */
"XXU.T K 0 5 9 9 9 8 5 [ 6XT 9 w w w y s u w ) 9X8XvXgXz.P y u L [ 5Xk.e 9 q 9 a a 9 a s 9 q w ! o.xX",
"fXn.%.$.Y H 8 y H r F K.-XL 9 w w 9 w 0 y 6 { wX_.4XQ.w.;X#X#XuXtXOXe.8 w 9 9 9 9 9 q 9 7 0 J u.}.DX",
"SX3X:X@Xk.} X.g.m.!.rXCXcXx.K 5 5 5 0 8 6 e T.2X( w.3XQ.f.-.@.P.sXXXt.u 0 q 9 9 9 q 9 q 9 R R.xXAXSX",
"%.p.[.cXcX1X3XmXcX=X+XR.Q.>X#XK.a.U r K ..].wX2X'.1X!.Y 6 w 9 y _.jX*X' y 5 9 9 5 q 5 u -.tXmX-Xn.$.",
"& 5 r _ L.cXVXfX$.u e 6 6 K *.P.;X7X>X*X4XN.' o.`.0XT y u i i i E.nXiX;XI.X.T P e r ] E.mX>X{ F u & ",
"q q 9 9 6 u.VX+Xu 7 9 q 9 9 & 6 y =.*XNXw.9 5 % 6 O.u u i i 0 W !.l.U &.I.}.4XoX|.[.iXyXu.e 9 a q q ",
"9 9 7 9 7 G -X=Xu 9 q 9 9 9 q 9 9 5 W Z.e w y .     H u y 0 L ^.=.5 9 9 9 K U u..XVXmX| 6 q 9 9 9 9 ",
"& 9 9 9 9 & =.:XH 9 9 9 9 9 & 7 9 8 T g.5 5 & . < + t c.x.D.yX,Xe 8 s 9 w a 7 y } 3X[.r 9 w 9 9 & 9 ",
"& 9 & 9 0 9 H [._ 9 5 9 q 9 9 9 9 6 $.a.5 9 1 D 0.9.C >.*XnXCXp.y s 9 9 q 9 w q r }.T.9 w 9 a a & 9 ",
"= & & a 9 & F 6XB.e & 9 9 9 9 9 9 u M.d.@ . m 8.q.0.7.3 @ ` dX%.5 0 a 9 w 9 9 w 5 x.c.9 9 9 9 9 & = ",
"& & 9 & 9 5 -.NX;X!.%.G 6 9 5 0 G g.1X)   + 4 6.7.0.6.1   @ }.a.7 w w 9 9 9 w w 9 l.W.6 w 9 & & & & ",
"& & 9 & 8 E }.x.u ^ I.$XI.x.l.M.].kX8X... X v A 0.9.6.4   % N.#.& 9 q 9 9 9 9 w 5 n.[.e 8 9 9 9 & & ",
"7 & 5 6 ( ].>X6 = & 9 !.G.[ +.y.m.9X8Xt.@ . l A 7.5.M 4   5 z.#.9 9 5 w s w w 0 G MXsX( 5 w 9 9 9 9 ",
"e K +.G.yXCXBXW & & e N.K & & 9 e X.oX{.#   ; n S D n O   5 W.x.e 8 8 0 9 w 6 { ;XcXbX:X+.6 5 0 e e ",
"].$XdX5X*X+X[.Y.s.x.=XU.5 9 9 s w 5 u N.8 : M 7.9.8.6.A O t hXlX$Xk.[ R P Y o.1X].U I ..{.C.| ) g.C.",
"p.y.{ F 6 e 6 u T &.^.I.r 0 9 9 w w 9 5 b D D 8.q.q.3.A S k D.s.A.;XwX XC.Z.E.h.r 9 9 9 r N.7XNXZ.k.",
"& & & & & a & & & h o l.E 9 5 0 s & % v D D b 6.q.q.A A 3.D x @ % K a.[.nXlXg.9 g f s i q 6 c.:XG 5 ",
"0 9 9 s a > & @ B 3.. _ l.5 9 & % 1 M B A n < D 9.9.M < A A S M = # 9 u g.zX.X6 v d 5 f 8 7 I W.K y ",
"0 0 9 9 & & & < M v   6 i.q < 1 m A 4 < v < 4 A 7.9.Z < 4 4 < j Z n 1 < % P.i.  < n > 9 y s J `.Y 0 ",
"s w 9 5 9 & 4 A A v < v n A M v < X   X < 2 v D q.8.A 4 < +     X j M M v x c < n A A 1 s 6 Y .XE e ",
"u 0 0 q 9 > x < S m l v v 4 - +     X X X A 6.S 9.0.6.D n           + + 2 4 v M B M < m 5 u } 3Xr.e ",
"R K e e 6 v 4 1 B l v * < < < 2 < +     4 7.8.6.9.0.D 6.3.- X - < < < < < - < B 4 A + 4 g U V.vX:X] ",
";X_.E.n.^ n - M x < D * < < + 2 4 < X   S q.9.9.q.0.7.7.6.b   O 1 < < < < + < M + M n * n X.9XaXlXdX",
"9XE.:X XN 4 + A 4 < D 2 + <   X < +   < 3.6.7.7.q.9.8.6.A B + @ o , , X < X n Z + M M X l ,.` L Q rX",
"_.u l.-.c + 2 A 2 + A n   <     @ & @ 4 V D S A 8.7.7.7.3.M * L.~.8   X <   M v + v V - < v 5 e 0 o.",
"pXgX%Xz c , 4 D - * x V     . % 9 8 @ , 4 M A A S A M M b < O <.jX( # @   O B < + 4 S 4 + m / h.r._.",
"jXhXy.4 < < v M + < < Z ~ !.N.y.L 9 X <     4 M A S M <     : p hX[.E 0 # 1 V , - ; D < , 4 v C.8X8X",
"8Xb.= M < < v 4 o - . g ^ +.;.G.;X@.o *     < M A A M +     <   g.{.(.E.&.2.j $ + O A < 2 < v e V.OX",
"B.=.4 v < : 3 B 6 R r 5 o & & % P %.& : X   X n 7.3.n X o X , @ r 6 r +.%.k D.cXS.. x < < < c g K ( ",
"[ i.l <   6 / 2.E R 8 5 5 w s w 9 R 5 O X   X 4 A A 4     + O @ 0 9 9 & # # u x.oX# v = % X 4 v 5 w ",
"Y >.m   ~ aX1.>.) y w s w 0 0 w u T J - X     < B A +     + + @ s 9 9 & 9 0 9 9 ).X.2 f 5 . + B & y ",
"s.z 3 5 y.+.W p.I.0 9 0 0 s 0 i K y.H.O <     < S A X   + < X 6 s a 9 a a 9 9 9 R M.9 & w 9 X 4 * r ",
"-.c - # 6 & 0 G v.A.6 e s s 0 e Y dXeXo v 2   - A n X X v 4   8 a s & a & a q 9 r P.:.5 6 e @ 3 4 f.",
"q 3.= 7 a s 9 7 u N.l.R H 6 L f.^.&X<., m 4 @ X n v X @ c v X 6 a & & & & a a 7 6 J.xX^.c.x.y.N 5.G.",
"k b & w 9 9 9 a w F <XW.f.P./.J.J y # X       . V v         X 5 a & & > & a 9 q @ S.nX}./.&XgXeX4.*.",
"d > 9 9 9 9 a 9 w 5 u.VXnX$X@.5 # 9 &       e @ A v @ @       7 s & > a a a 9 9 e #X*.& 9 0 y %.S.#.",
"5 & 7 9 9 & 9 q w 0 ( bXR.L 5 9 9 9 & + n + A.8 c 2 e e * m . 0 9 & & 9 9 a & y v.d.6 q s 9 7 w [ c.",
"K 0 9 9 a a 9 0 9 u x.,XF 0 0 9 a a % 1 D < L.~.4 j n.i.< 3.# 5 9 9 9 9 9 9 y I.J.5 9 q q w w 9 i _.",
"*.0 5 a a a w 9 0 U uXA.5 0 9 9 > a & 9 = G :Xy.3 h Q x.P R y 5 5 9 9 9 & 6 W.$Xy 9 q 9 9 9 9 5 9 Q ",
"B.G 0 9 & 9 y 0 F m.gX( w 9 9 9 a & 9 9 # j.P.  , + @ +.zX*X) K y 6 e e G E.tXF 9 9 9 9 w 9 9 9 9 8 ",
"U.}.e. .) ) X.r.W.zX*XU 9 q 9 9 a a 9 a 6 Y.! o * +   S.sX-X;XoXT.N.b.Z.;XdX[ 5 8 5 5 9 9 w 9 9 9 0 ",
"H.AXZX7X-X4X.XdXzXvX].F 0 9 9 a 9 a a & P d.+ + + + ; * K u P ;.F.x.N.aXfXoX~ 8 0 0 0 9 q a 9 q 5 e ",
"-X$X&.T J Y W ..].jXdXU 9 8 9 9 9 9 9 9 P G.@ 9 o ^ ~   9 9 9 5 9 9 9 K c.nXF.& 8 0 9 w w 8 w 0 9 w ",
"W.r # & & & & & G u.kX}.y 9 w q 9 0 0 9 H }.I u 6 U.*.5 0 0 9 w 9 w f 9 u rXZXA.P H y 5 9 5 9 q 5 G.",
") 9 5 w q 9 9 q 8 5 T MXm.e 0 8 0 0 8 y Y tX;X}.<XNX;.5 0 9 9 a a s w w r @XSXmXdXgXuX!.s._ R R z.2X",
"P 0 9 9 9 a 9 a 9 9 9 p.zXV.Q e 6 y e F e.nX/.*.T U.f.5 w 9 9 9 w w 0 0 f.gXE.r.w.y.s.N.oX3X7X9XjXOX",
"I 8 9 9 9 a & a w s 8 ) xXCXgX#XK.c.N.+XnXsXR e 6 f.{ 0 w w a q s 0 & f.oX{ e 0 7 & 9 5 u ' s.-XNX`.",
"U 8 w 9 & a & q 9 w 5 U xXAXyX!.Q.~.Q.L.&XdXU.L u D.#.5 w w a s 9 9 ;.OX) y q 9 w w q a 7 9 9 E OX4X",
"%.P w 7 9 9 9 9 9 w 9 Y bX+XF y 5 0 y s y &.bXB.u D.=.y 8 w w f s t qXe.5 s w s a w q w s w w i o.sX",
"Y.+.y 0 q 9 q q 9 w w Y dX$.9 y w s s i y y N.hXV.-XI.F y 8 s i 0 A.XXG s s q a a a a a q q w i { pX"
};
