/* XPM */
static char *result[] = {
/* columns rows colors chars-per-pixel */
"50 50 256 2 ",
"   c #0F7C7F",
".  c #107B7E",
"X  c #118E95",
"o  c #118D94",
"O  c #117B7F",
"+  c #149096",
"@  c #0E7A7D",
"#  c #117C80",
"$  c #0D8C92",
"%  c #117D80",
"&  c #0C797C",
"*  c #11797D",
"=  c #0F8E94",
"-  c #0C7A7D",
";  c #047477",
":  c #108E93",
">  c #128F97",
",  c #119093",
"<  c #0E787C",
"1  c #139193",
"2  c #159197",
"3  c #119195",
"4  c #0E8A91",
"5  c #0B777A",
"6  c #158E95",
"7  c #0C8B8F",
"8  c #128A8C",
"9  c #119090",
"0  c #128A89",
"q  c #137E83",
"w  c #007174",
"e  c #0E8C8D",
"r  c #05888A",
"t  c #1D868A",
"y  c #0B7C7E",
"u  c #097579",
"i  c #2AA1A1",
"p  c #1C9799",
"a  c #129197",
"s  c #238E91",
"d  c #0F8D91",
"f  c #0C8D90",
"g  c #248B8F",
"h  c #108E8E",
"j  c #168488",
"k  c #128083",
"l  c #0E8081",
"z  c #017677",
"x  c #2C9EA2",
"c  c #1F989F",
"v  c #2A9D9E",
"b  c #169499",
"n  c #05898F",
"m  c #08878E",
"M  c #158286",
"N  c #178185",
"B  c #07787B",
"V  c #7BD1D6",
"C  c #68BFC6",
"Z  c #2DA2A3",
"A  c #239BA2",
"S  c #098B8F",
"D  c #0E7D80",
"F  c #0A787D",
"G  c #05757A",
"H  c #80D6DA",
"J  c #79CCD1",
"K  c #6BC7CC",
"L  c #34A6A9",
"P  c #2FA4A8",
"I  c #239B9B",
"U  c #1B9595",
"Y  c #098B92",
"T  c #0A8890",
"R  c #1E898C",
"E  c #0A8588",
"W  c #1B8287",
"Q  c #047276",
"!  c #9EE2E5",
"~  c #97DFE4",
"^  c #88D8DB",
"/  c #87D4DB",
"(  c #73C7CB",
")  c #5EB5B9",
"_  c #51AEB1",
"`  c #38AAAF",
"'  c #2FA4A4",
"]  c #279EA0",
"[  c #21969B",
"{  c #2C9598",
"}  c #179298",
"|  c #0E8C94",
" . c #138D90",
".. c #188689",
"X. c #148787",
"o. c #067B81",
"O. c #047176",
"+. c #B2F5FB",
"@. c #A6E6ED",
"#. c #91DCE3",
"$. c #97DBE1",
"%. c #8CDDE0",
"&. c #8ED8DE",
"*. c #6CCCCF",
"=. c #72C9CE",
"-. c #68C5C8",
";. c #5FBFC1",
":. c #49B4B7",
">. c #49AEB2",
",. c #39A6A7",
"<. c #29A0A7",
"1. c #34A2A3",
"2. c #1D9A9D",
"3. c #2E999C",
"4. c #108E95",
"5. c #169594",
"6. c #0C8F93",
"7. c #298B90",
"8. c #088A8D",
"9. c #11878C",
"0. c #03878C",
"q. c #0E8D8B",
"w. c #03848B",
"e. c #0E8788",
"r. c #118385",
"t. c #0D8383",
"y. c #006E71",
"u. c #A4EDF2",
"i. c #95E6EA",
"p. c #85D9DF",
"a. c #80CFD3",
"s. c #5DC2C6",
"d. c #59C1C5",
"f. c #4FB3B7",
"g. c #5AB0B5",
"h. c #43ADB4",
"j. c #43B3B2",
"k. c #3DAFB1",
"l. c #4AA4A9",
"z. c #3DA0A5",
"x. c #299EA4",
"c. c #249D9D",
"v. c #1B969C",
"b. c #219498",
"n. c #279094",
"m. c #1D9193",
"M. c #168D8D",
"N. c #17878B",
"B. c #0B8B8A",
"V. c #0A7B7C",
"C. c #B7FFFF",
"Z. c #99E7EB",
"A. c #90DDDE",
"S. c #7FDADD",
"D. c #91D7DC",
"F. c #82D3D4",
"G. c #72CDD2",
"H. c #75CBCC",
"J. c #73C4C9",
"K. c #4AB9BA",
"L. c #55B4B6",
"P. c #4DAAB0",
"I. c #33A6AE",
"U. c #2AA4A9",
"Y. c #329EA5",
"T. c #239EA5",
"R. c #409DA1",
"E. c #17969B",
"W. c #2D8E94",
"Q. c #178D93",
"!. c #088D90",
"~. c #0D898B",
"^. c #038489",
"/. c #018486",
"(. c #038684",
"). c #057F82",
"_. c #ABF1F5",
"`. c #9DEFF1",
"'. c #9DEAEE",
"]. c #96E2E5",
"[. c #92E1E4",
"{. c #89D5D7",
"}. c #7FD5D7",
"|. c #88D1D6",
" X c #76D1D5",
".X c #74CFD0",
"XX c #7DCACF",
"oX c #61C6C8",
"OX c #6DC2C8",
"+X c #5ABCC4",
"@X c #5BBEC0",
"#X c #64BABE",
"$X c #4EB7BD",
"%X c #58B6BA",
"&X c #30A8AD",
"*X c #41A5A8",
"=X c #3A9CA0",
"-X c #26989E",
";X c #38989D",
":X c #319298",
">X c #159191",
",X c #1E8B8F",
"<X c #048A8C",
"1X c #22878C",
"2X c #0B878C",
"3X c #0A7F7F",
"4X c #B8FAFF",
"5X c #AAF6FC",
"6X c #A4F0F4",
"7X c #9FE5EA",
"8X c #8CE2E6",
"9X c #91E0E6",
"0X c #9BE1E3",
"qX c #88DBDE",
"wX c #79D5D9",
"eX c #8FD3D9",
"rX c #79CFD2",
"tX c #7CCED1",
"yX c #85CDD1",
"uX c #79C8CC",
"iX c #6CCBCA",
"pX c #64C0C3",
"aX c #63BCC1",
"sX c #59BDBC",
"dX c #5AB9BC",
"fX c #3CAAAB",
"gX c #36A4A7",
"hX c #2E9D9E",
"jX c #1C8D96",
"kX c #209495",
"lX c #228388",
"zX c #AFFAFF",
"xX c #A8F6F6",
"cX c #6DCFD2",
"vX c #69BCC1",
"bX c #41B7BB",
"nX c #53B4BA",
"mX c #47A6AF",
"MX c #3EA8AE",
"NX c #46ACAC",
"BX c #25A1A1",
"VX c #349B9C",
"CX c #0C9190",
"ZX c #13918E",
"AX c #C4FFFF",
"SX c #57AAB2",
"DX c #36A1AB",
"FX c #30ABA8",
"GX c #1BA0A1",
"HX c #0E8188",
"JX c #017B7A",
"KX c #BCFFFF",
"LX c #77CCD2",
"PX c #82C7C9",
"IX c #71BCC1",
"UX c #70B9C0",
/* pixels */
"  .   . D PXDX-XU $ X o 3 N.* .   u 3.[.v.$ X 9 r.< M f m.xX6Xp 0 % z ) $.z.yXh.Y + X , 0 *     O   ",
".   % O.l.vXo.I.b 4 o X X  .q @   < s i.c 4 + 1 ..* ).a / S.A.OX(.w SXeXM y.)  X<X8.4., 0 *     .   ",
".   . F J.3.Q x } | 4.o X 3 N.# q z _ KX*.n m r 3Xu gXqXG.CX, F.iXaXD.k 5 N c.cX}.,.Q.8.~.O . . O . ",
".   @ # tXg < { h  .X o + d 8 @ w 7.@.8X[.qX*.d.;.a.J U.-Xx r h F.AXNXz    .:.3 f.H %.V b.5 # .     ",
"    < q a.t N 7.t.1 X = Y c Z { #X! :.T c +Xd.s.f.=X~.S h >.1.6.b.0X..5 m.` @Xx.^.!.BXK D.M 5   O O ",
"- O . # a.:XW.q l , o 9 pX9X%.p.UX-XY o v.c w.E O.u 8 2 8.,.k.-X=XD.Y.3.' v.7 L P p 1 B.$._ F O 5 - ",
"q @ 5 # 7XP.    % 1 S oXyX[ b > w.7 + 4 x.m.3 0 O O 8 > f I p B.j A.cX!.o = o o p c.v g V V R W.1X..",
"W.1XW ( 4X/ # ; u /.i [.E.T : : 3 3 7 A i q. .l . @ ~.> 4 p I q.X.i.xXf.0.4 o o $ e 3Xw L.#.u - M g ",
"5 s yX$.b.H.~ l.z.>.'.5XA 2X> o X $ A ' e X 0 - O & e.> f v U (.;./ &XA.C <.$ = 6 k % u =X4X( ,XB w ",
"D.@.XXt z l u.4X~ #.p.i.0XP 6.X $ b.L h : , k @ . @ j + S c.a dX].A 0.E.K A.( = D * % w ( C.u.@./ J ",
"C { ; - # O ].L.2Xa 6.4 sX[.h 6 + L 5.| 3 0 - O . O F n x s.Z._.A !.+ | T f uXa.X.G z P.#.=XN s _ C ",
"W u & @ 5 W {.,X$ o o o 6.~ :./.5.b.T : 9 l @   O ; :X X#.V J u.h.2XX X X h t.g.~ =.XXyXX.; - B Q O.",
"I 0 B.~.e.m.^ v.| X o 6 Y MX! =.@X<.E.p k 5 % y z ) &.P.GXZ /.fX! v 7 + o , X.y.;XC.}.V.- % * O k k ",
"FX>X= > S ,.%.> : X X X X 7 c ;.i.@.K R g t Q - OXF.j Q 3X1.c.(.sX^ 6.o o = 9 M o.p.VXQ * y k Q.1 d ",
"DXQ.o 6 S |.@Xn 6 X = o 4.X T 5.&Xv ! l.D :XP.|.C y & % @ 0 L , n &.f.E + X X + 4 J 3.l X.e , > X X ",
"bXc T 8.pX|.9 d X X X o o , B.1.A ).g.zX'./ J.R.z .   . . 5 T.nX, >.{.n 4 Y 4 4 b S.i $ a X X o > = ",
"L Z ` H._.x 2X> X X X X X | ZXY.a M lX_.uXN 5 lX. O       < T.I.v $X].P L &X] U 4.J ,.m 6 + X o 0.b ",
" X^ _.AX`.x 1 7 6.: : $ f 2 L U = 8 s 7X1X; . t s 5 .   & . v , r Z i.A p 2.I v P s.%.p m m m 2.+Xp.",
"h.Y.,XP.~ 1.gXhXs m.} A MXf.U 7 X h n.#.N.&   & ,Xg y - q n.U d 7 1.%.= 4 $ $ 7 >XA -.%.cXd.G.&.G.bX",
"u - F y.C *XG t W W j kX2.` 2 o 6 f 1.^ D <     < R s ,Xg 8 4.2 0.@XJ n 1 6 > a a = B.NXwXC.i.c m o.",
"# . % ; >.#X; @ - - < . e I c.f + r tXC y % * < * &   . . 8 X r [ $.' ~.j j N.8  .8 m.m.] ~ s F O O ",
"    # ; z.aXG #     D V.9.1 Z e n h.].b.6.1 8 t.r.# @ l M.!.p K.Z.+XB.X.< . @ @ * * W.- IXl.w % .   ",
".   # Q *X#X; #   . D y E 0.x.P :.zX`.i Y o 3 X 6 6 6 2 Y ` ^ 8X'.U 0 O   .   . - N R r.H ..@       ",
"O   % O._ tX; % # # JXz ' pXH 9X9XiXoX! >.4 o o : = , 7 x $.x T.}.>X8 * .   . @ @ q N j }...<     . ",
".   O F t $.R.w G z n.=.p.d.i a b i , Y.! [ d 1 + + + r F.f.^.Y.|., 8 *     . . & ..N j V j &   . . ",
"  .   # ; 1.@.-.;.rXeX_ 4.n 7 : $ 2 L 5.^ ;.w.<Xr m /.k.H + o b #.Z E l . O   O B n.N M {.t &     . ",
".   O   @ M Z.`.( ) N o.a + X X + | 2 ] K +.wX@XK.bXd.&.U.4 + n sX~ P M.F - # & @ 7.& 7.~ R &     . ",
"        & t {.R w w D 6 o o X X o + : r.a.9Xg.) +XoX;.hX$ o X : 7 -.+.Z.eX3.w lX7.N y.C u.j &   O . ",
"O   . % ; VX( B l 0 1 X = X X X o 9 # W D.lXw G O.G z y M., o X X r F..X=XZ.z...F O.R.+.%.q .   O . ",
"@ < . @ z rX#Xy.N.1 > o X X X o X h Q ) a.N.t g g . O O % h X o > 0.K.-.e.l.&.=.) J +.C.g.u %       ",
"k M l . pXzX&.nX2.| o = = X X o + 9.VX7XmXq . @ t g % V.- e.3 o 2 ^.aX=.p o.W *X_ ,.J.+.{ u # . . & ",
"R   z.D.J ,.i %XH.E.d } 2 : $ o = } '.4XR.Q # . 5 N s M & E 3 4 0.fX0XU.T 2 X r /.z t $...V.O   . R ",
"; { / hXe x U e %XiXx.L P P A 2 <XiX7XrX{.1XB .   @ O g 1XkXa 2.d.qXK.o X o + + } X [ ^ k F . & 7.t ",
"D XX{ n 3 2 2.i &XV E.= > 2 I ' ` %.I.o.{ -.B y . .   l M.3 s.A.*.T.<.f + X o X o $ d #._ ).- 7.R 5 ",
"#X_ r } o o : $ e -.c 9. .o d f f.H > Q.; P.R.G O @   M.!.>.uXv.p $Xv.8.$ $ : $ : kX-X:._.H C dXB V.",
") E a o o X o } E %Xl.y.q 8 + 4.d V T.d   n.C F O - t.ZXT ( k.w.3 oX` v [ I BX] Z ,.jXBXu.8XS.].( dX",
"B e X o o = 9 8 B n./ s ; q jX!.5.p.I.CXe.M C q O D e + (.L.$X(.' k.Y.jXv K.j.2.Y w.o tXNX2Xh g l.;X",
"r., : X o 4. .@ . B { |.mXG ).5.rX$Xi 1 e.; L.1.y.l >X6 <XG.` p Z 3XO.mXV C OXp.K &XG.sX^.6 X f l s ",
": o X X o 3 e.<   . B t ( uX;.V :.q.L + 8 5 g J.%XI B.r h.LX} x t.Q _ J j G ; jX;.`.C.h.m 6 X > , ] ",
"} b = $ o 1 t.<   . % & z XX@.[ n 2 <.= q.l 5 M g.[.H wX! ] ] kXO.3./ & 5 % O 3X/.P 6X~ c Y S 7 h i ",
"] x I.2.: 3 0 @ .   . % Q *X-.^.X Q.[ = 9 t.. u X.'.5X+.6XGXgX0 ; J.z.; %     - 8 S K C.u.H V FXb dX",
"w.w.b U.c 0.6...<   @ # u :XaXm = v 5.| 9 r.< t eXL.v.E.=.K I y :XH.o.  .     * 9.8.}.5X-.j.j.H.K c.",
"$Xd.*.*.wXoXv h k .   % w >.OX).U <.: o X M.O.) g.o.h S f H nXJXXXR.G # .     O (.j.0Xx T m r v %X=.",
"k.` Z x.i h.G.s.>XV.@ ; W ! vXy.M.b.d o > r 3.J y 9.3 + T ,.#.K J.& # O .   . % 1 qX' E + d A i 8.<.",
"E E f $ $ m 9 H.k.hXR >.@.+.$.SXx c.ZXo S j.V { u X.9 X : b `.xXs &   . .   * ).*.s.n 6 X 9 ' 9.9.HX",
". * X.+ X + <X:.H  XF.! L.;X*XvX&..XCXS =..X5.F * t.9 X $ b i.s.o.*     . O u fX/ 3 o d 8.I s V.. @ ",
"    < 9.a , S :.u.S.+XN w q j w W a. X.XOXr f 0 * y e X | 2 &.` HX.   . . . k A.gXw.+ p i 3.<   . . ",
"O . @ k 9 o 7 K j.x.^.q.O . 7.W ; N.^ +.c 4 a  .# - ~.+ 4 T.^ <.q.k y @ % w g.*.e x.' fXU . @       ",
".   . * 8 Y MX*.Z b o 1 e.& q g W.z.[ Z.<.4 X 1 j & r.> m U.S.2 q.D y # G W.@.j.P ] 1 e 0 * . O . . ",
"  .   . < c .XI.Z e o >  .. @ y n.;X[ 8XU.7 X 9 r.* q + 7 k.S.2 q.D O B ;X6X5XK.Q.$ X , 0 *   .   . "
};
