/* XPM */
static char *result[] = {
/* columns rows colors chars-per-pixel */
"50 50 243 2 ",
"   c #130107",
".  c #1D0206",
"X  c #140109",
"o  c #1D040B",
"O  c #1F0510",
"+  c #1E0810",
"@  c #240306",
"#  c #2B0206",
"$  c #250807",
"%  c #2C0806",
"&  c #24050C",
"*  c #2B050B",
"=  c #25080B",
"-  c #2B080C",
";  c #340206",
":  c #3B0206",
">  c #3C0906",
",  c #33040A",
"<  c #3B020A",
"1  c #33090C",
"2  c #240611",
"3  c #290411",
"4  c #270910",
"5  c #320811",
"6  c #430206",
"7  c #4C0205",
"8  c #430A06",
"9  c #4D0906",
"0  c #430209",
"q  c #4C030A",
"w  c #43090D",
"e  c #4C0A09",
"r  c #540506",
"t  c #5B0406",
"y  c #520806",
"u  c #5B0B05",
"i  c #530409",
"p  c #5B0409",
"a  c #550B09",
"s  c #5D0B0A",
"d  c #441108",
"f  c #58140B",
"g  c #620405",
"h  c #6B0405",
"j  c #650B06",
"k  c #6C0C05",
"l  c #630509",
"z  c #6B0409",
"x  c #650B0A",
"c  c #6B0B09",
"v  c #720506",
"b  c #7A0507",
"n  c #740C06",
"m  c #7B0D06",
"M  c #720309",
"N  c #7D0509",
"B  c #74090B",
"V  c #7C0B09",
"C  c #6D1207",
"Z  c #64130A",
"A  c #641408",
"S  c #6A1209",
"D  c #761105",
"F  c #7B1306",
"G  c #74140A",
"H  c #7C140A",
"J  c #751A0A",
"K  c #7D1C09",
"L  c #710E10",
"P  c #691110",
"I  c #850905",
"U  c #8B0B06",
"Y  c #850A09",
"T  c #8F0A09",
"R  c #9B0D06",
"E  c #950D09",
"W  c #841405",
"Q  c #8C1306",
"!  c #8C1B06",
"~  c #841309",
"^  c #8B150A",
"/  c #811A0B",
"(  c #8C1D0A",
")  c #961204",
"_  c #9A1506",
"`  c #921B06",
"'  c #9D1B06",
"]  c #94140E",
"[  c #9C150C",
"{  c #931B0B",
"}  c #9B1C0A",
"|  c #8B1410",
" . c #951912",
".. c #951D13",
"X. c #AD0D08",
"o. c #B20F05",
"O. c #A31305",
"+. c #AA1305",
"@. c #A31C05",
"#. c #AC1B04",
"$. c #A3150B",
"%. c #AB140A",
"&. c #A31C0B",
"*. c #AC1B0A",
"=. c #B91206",
"-. c #B31C05",
";. c #BB1B06",
":. c #B71509",
">. c #B41C0B",
",. c #BB1C09",
"<. c #A21D10",
"1. c #86210B",
"2. c #8B220B",
"3. c #8E2F0B",
"4. c #9D2106",
"5. c #93210C",
"6. c #9B220B",
"7. c #982C0B",
"8. c #9F3106",
"9. c #972711",
"0. c #A32106",
"q. c #AB2C06",
"w. c #A4240B",
"e. c #AD230A",
"r. c #A52B0A",
"t. c #AD2A0A",
"y. c #B22306",
"u. c #BB2605",
"i. c #B42D05",
"p. c #B4240C",
"a. c #BB240A",
"s. c #B42A0A",
"d. c #BB2B0B",
"f. c #AE300A",
"g. c #B83C07",
"h. c #BE330C",
"j. c #B9380D",
"k. c #AB2316",
"l. c #B12B10",
"z. c #BE2911",
"x. c #B73612",
"c. c #C31807",
"v. c #C61E07",
"b. c #D31A07",
"n. c #C21B12",
"m. c #E31909",
"M. c #C22505",
"N. c #CC2506",
"B. c #C32A06",
"V. c #CC2B06",
"C. c #C3240C",
"Z. c #C9230B",
"A. c #C42B0B",
"S. c #CD2C0A",
"D. c #D42C07",
"F. c #DC2C06",
"G. c #D3210A",
"H. c #D9270A",
"J. c #D52B0B",
"K. c #DB2C0B",
"L. c #C53605",
"P. c #CD3006",
"I. c #C23A07",
"U. c #CE3B05",
"Y. c #C3320B",
"T. c #CB320A",
"R. c #C43A0A",
"E. c #CC3B0B",
"W. c #D33506",
"Q. c #DC3506",
"!. c #D23A05",
"~. c #DB3A07",
"^. c #D3330B",
"/. c #DB330B",
"(. c #D33A0B",
"). c #DC3A0A",
"_. c #C72F10",
"`. c #D92E10",
"'. c #C13411",
"]. c #CC3311",
"[. c #C83811",
"{. c #E52B07",
"}. c #E62D09",
"|. c #EE2E0B",
" X c #F92A0B",
".X c #E43606",
"XX c #EC3B06",
"oX c #E43409",
"OX c #EB330C",
"+X c #E33C0C",
"@X c #EC3B0A",
"#X c #F43906",
"$X c #FE3B05",
"%X c #F63709",
"&X c #FE340C",
"*X c #F23D0A",
"=X c #FC3E09",
"-X c #E22810",
";X c #EC3911",
":X c #F03210",
">X c #CD410A",
",X c #D34206",
"<X c #D7470C",
"1X c #DC440A",
"2X c #DA4A0B",
"3X c #DA4612",
"4X c #E54506",
"5X c #EB4206",
"6X c #ED4B07",
"7X c #E24708",
"8X c #EC430A",
"9X c #EB4C09",
"0X c #F04407",
"qX c #FC4405",
"wX c #F44C06",
"eX c #FD4C05",
"rX c #F2460C",
"tX c #FB440B",
"yX c #F54B0A",
"uX c #FE4B0A",
"iX c #E75106",
"pX c #ED530A",
"aX c #EB5809",
"sX c #F45206",
"dX c #FF5205",
"fX c #FD5C07",
"gX c #F2530B",
"hX c #FD530B",
"jX c #F35A0A",
"kX c #FB5B0A",
"lX c #E04311",
"zX c #ED4110",
"xX c #FA4610",
"cX c #EF610A",
"vX c #FF6405",
"bX c #FC6C05",
"nX c #F4630B",
"mX c #FE6109",
"MX c #FF6B09",
"NX c #FD7E06",
"BX c #FF750D",
"VX c #FC8608",
"CX c #FA9009",
/* pixels */
"D.r.s 6 - $ $ 2 $ - $ x +Xu & - * * * 5 , , k %X$XdXsX] i , < q x oX} ; - & & 2 2 & 2 2 = = - d V pX",
"iXO.m D y 6 % ; 6 : 6 0.Q.q = * - & - - , # k :Xc.Q.p.I ^.h.'.3X2XF.U * - = & & 2 - & $ = & 9 Q A.CX",
"VX@XQ.U.' b B ) #.d.U.MXsX{ < @ @ @ * % # : y.|.g U #Xt.2.J x r.6XG.R > * = $ & & & & & @ 7 i.aXVXVX",
"D ! V.sXwXF.XXkXsX!.I.i.i.(.T.w.~ t 6 : m C.%X Xm.{.h.9 # # & ; c.dXD.j ; @ o & * $ $ < H 2XjX~.@.D ",
"@ o : j q.wXvXiXD < ; # # 0 G w.^.@X(.U.oX&.p N b.XXi 1 < 1 1 1 t.uX4XW.e.c A q < : z y.gX(.c 6 < o ",
"= = $ & # ` fXL.< = $ & & o & @ , G (.tXI @ # 2 < A.a < 1 1 - a '.U t F *.A..XJ.M.N.4X3XQ : & 4 & - ",
"& & & $ $ 6 ~.U., $ = & & & & = & @ p ,.; * - ; @ w.] # ; ; q x.H # & 2 & < p ^ F.vXjXv # & & & $ & ",
"o o & & & o W /.6 & - & & & $ o $ * u ) * @ 2 * o k 8Xw.( 6.1XR.; - 3 - * & $ , v 5XV.6 $ - & & o & ",
"o & o 2 & & 0 D.j o $ & & & & & & # n ~ @ & & & o a kX4X^.gXMX` # - - & $ & 3 = : B.p.@ * 2 2 2 o + ",
"+ o + & = . 6 +X*.; o $ & & & $ = : $.~ o 3 & 3 X Z a.q 6 m zXm * * 2 & & & $ - # 5.} & & & & & + o ",
"+ o o & & & J tX(.s.H 7 # & @ * 7 ` oXk o 3 & & X Z Z @ - # A.H . - 3 & & & & - o ` a.# - & o O o o ",
". . & o % p A.{ < f e.T.p.{ ^ $.C.0X$Xm & & & 2 X J G & 1 & &.S o * & $ - & - - @ @.V.; - $ & & o o ",
"$ o @ # g M.(.# o o & d.6.x C ~ -.@X$XR @ 3 & & X K ^ + 1 # [ S @ - & & 3 - * - 7 7X6Xl @ & $ $ & $ ",
"; : j 4.1XMXcXa o o < &.6 . o @ ; n H.C.; + & &   H ~ # 1 # >.5.; - % - 2 - # c ^.yXgX/.C # # $ ; ; ",
"B.T.8X@X!.L.V.s.W { !.r.@ & 2 = 3 # : w.B # $ $   G $.6 < k qXyXT.} z i e y B }.v.g i m Z.>.v h ) y.",
"` F z 7 # ; # ; s / R.p.< * & & - - & : } i : 6 7 $.%X} ' @Xd./ ( W.OXW.-.;.|.,.< $ $ o : &.@XtX,._ ",
"o o o o o + o o X o @ ] s o # 3 & - * * ( ).y.>.>.>.(.jXMXN.6 * o < ~ J.hXyXG.j - 5 * 5 = # } /.q # ",
"* & & 2 2 O + + + & X x ^ @ $ & & & & & J E.G w % @ 0 c ).:.$ * , * * < ) yXN.0 * 5 3 - # & r s.< 1 ",
"* * - @ o @ o o o & o ; a.c O @ & & * # ( e X @ & & & * l >.6 * 5 1 1 - < `.T., 1 3 1 3 , * 9 Z.y % ",
"5 * & & & o o o 2 @ @ o *.:Xc q 6 ; # j 6.* & - & @ $ - & ^ | @ - - 5 1 ; p.F.; 1 1 * 5 1 - r H.p ; ",
"1 - # & & o o o o o X 8 Y./.a.$.$.>.w.Q.{ o - & & & & & o q n.6 & 5 * , $ } &Xe - 1 1 1 5 < n #XY , ",
"i 6 < ; ; < > : 0 6 m _.( # * * - B F.=X` & * & & o & & 2 o E } # * # ; 6 *.S.[ # , 1 < w t =.dXF.z ",
"S.v.e.$.e.$.......=.&XH o & 2 * 2 o : ] Y.8 o @ & O 2 o & + r -X6.V ` p.S.J.} H.,.t 0 a h X.@X4XyX8X",
"=Xp.^.#XH % * # $ o ] x @ & & 2 2 * + @ H p.; # @ o o & & & i :.pX@X(.6.s > 1 0 ' `.;.o.b.z.C q f >X",
"c.< ] *.o . o o & X s L X o @ & & - * & 6 }.B.< o O & 2 o & 0 V.fXm # & 2 * - - # V }.wXtXb , ; * N ",
"6X1XwXXX6.( c * @ . T ] @ @   o + # * 2 i }.uXS.i * X X o o q 1XqXp & - - 3 % = 1 6 b.XX%X}.A.@.I n.",
"eX0X;._ ^ ~ s.T.E O.*X=XH.d.&.~ q * $ # H dXM.R [ k.w.( x U !.fXqXV.p # & @ o < p e.XXp._ O.%.b.$X$X",
"$XO.6 : , * q .XvX@Xq.H G J K 6._.<.z ^ zX@.; & # a w.oXuXfXeXc.#.a.z.e.! / ~ @.lX/.h : : < < t X..X",
">.^ & 5 5 - 7 J.(.M < ; & o O o 8 *.|.qX-.< * - o o o 7 A.fX-.7 : ; : S { >.oXfX4Xt # - 3 5 < < 6 g ",
"s ,.q < : g -.eXE < - # & * - * & q W.oXq * # 3 = & $ @ t .Xh ; * & & o o @ 0 ! A.# * * 1 * 3 - # - ",
"e kX1Xd.T.4XBXmXN , 3 * * & - - < i W.) # # & 2 2 & $ @ 1 r.t - 3 & o 2 & $ o * k.~ @ * - 3 * - , 1 ",
"w.R.r._ ~ j K A.e.* & * * 3 * 1 6 m 0XN @ $ & 2 2 o & & * } t * 2 2 @ & 2 2 = o p $.< $ - - * - % 0 ",
"6.0 , ; # o @ 6  .2.# ; 2 & - ; a 1XmXM.0 $ @ + o o & o # } p $ 2 2 o 2 + & & & : w.P $ # ; < 0 p e.",
"# & $ 2 & 3 = = 0 <.] i 8 ; q ( h.g.g.2Xa.q @ o & 2 & $ 6 u.l * 2 & o O o + & & # 7.aXj.} ` W } iXh.",
"* * 2 & & & & 2 $ 6 `.a.^ w.h.9.9 # # < w.].p @ o 2 o # i /.j @ 2 o o + 2 2 2 = . 3.yXB.j.E.2XnXNXW ",
"= & & & 2 & & & - @ ~ vXkXT.A @ o & & o & r.t.o 3 < < 6 t .Xg o & & + + 2 = & o # Y.G o $ # ; ^ hX/ ",
"# $ & & & o & & & * g gXu.7 @ & & & & o o t A.j i i i M ].}.7 & & & o 2 2 & + ;  ./ # = 3 = = @ } a.",
"< * & 2 2 & 2 - - < { [.6 - * & & 2 2 2 - e A.6XE.h.>.T.7.+.6 # @ & & $ & & ; *.5.@ & = & 3 - $ , n.",
"H % @ 2 2 2 = & $ p 3X2.# $ & & 2 o 2 & - u ^.} f f Z ..i T < $ @ @ & & o ; a.E.< & & & & & & & & s ",
"*.6 * @ o * 1 # 6 +.9Xl & & & & + 2 o = @ ! w.. X 2 o l uXQ.h < * # ; ; 7 p.,X0 & = & & - & 2 $ @ - ",
"r.Y.U n h h v Y a.uXW.p $ & & 2 & 2 & 2 # l.A o - - s U.4X(.^.`.p.&.$.:.^.8XZ @ - @ & & & 4 - $ & # ",
"8.BXmX8X+XQ.F.rXuXdXM.6 * & & & 2 2 2 & 6 l.< 3 # 7 '.1.6 < 9 / 5.} w.7X9XS.f # # * & @ & & 2 & $ , ",
").P.F u 9 9 a n M.eX8Xp $ * & & & & = @ e a.> & @ ( (   $ = & @ @ & & 0 } hX5.. % $ $ - - - - * 2 # ",
"a.; o @ o o o & 7 ) wXB.; = - = & & - & 8 _.t ; < t.S $ * * & = & & 3 $ < >XnX2.e 8 < & @ @ & $ @ 6.",
"h = - $ & & & $ # $ u +X*.; , - - * * , a ,X^.d.].xX/ @ - @ & 3 4 - - - < !.VXkX6X9X3Xd.Q x a r [  X",
"7 * $ & & & 2 2 2 & @ ! uX#.s ; # ; ; 6 U hXh.G s r.( @ & - & 2 3 - * * ( 9Xy.T I ~ Q &.S.@X@X#XeXF.",
"r - & & & + & 2 - 3 % z aXbX6XY.0.} &.T.kX6Xi ; # ( k * 3 - 3 = 2 2 o ( J.c ; - & o & @ < l ^ ~.uXb.",
"t # - & & + o & = 4 % t iXNX<Xd.i.q.f.q.I.rXw.e < 6.C @ * - = 3 - @ / H.h , $ & - & 2 = = & & p K.OX",
"W 8 % = & & & = & = = y pXL.6 ; * * ; 3 < W gX>.< 3.H ; * * - 3 2 8 ;XI * 3 - 2 2 = - 4 - - - , H 8X",
"s.C ; = = & = & 2 - - y 8XD & 1 3 * 3 1 * # @.tX:.~.e.6 1 % - 1 # 5.H.q 2 - - 2 2 2 & 2 2 & - 1 c 5X"
};
