/* XPM */
static char *result[] = {
/* columns rows colors chars-per-pixel */
"50 50 256 2 ",
"   c black",
".  c #0F7C7F",
"X  c #0F7B7E",
"o  c #118E94",
"O  c gray1",
"+  c #0E797D",
"@  c #117C80",
"#  c #060707",
"$  c #128F96",
"%  c #0A787C",
"&  c #0D8A90",
"*  c #108082",
"=  c #0E8C92",
"-  c #037376",
";  c #129191",
":  c #149096",
">  c #0B7679",
",  c #129197",
"<  c #128B8B",
"1  c #0D8D91",
"2  c #088990",
"3  c #07878E",
"4  c gray24",
"5  c #2E2F2F",
"6  c #2D2C2C",
"7  c #131414",
"8  c #0A8A8C",
"9  c #178789",
"0  c #108184",
"q  c #117D81",
"w  c #0D7C7E",
"e  c #11797E",
"r  c #383A3A",
"t  c #161616",
"y  c #73CED2",
"u  c #158287",
"i  c #0B7E80",
"p  c #10797D",
"a  c #007072",
"s  c #373737",
"d  c #313231",
"f  c #212020",
"g  c #0E8E94",
"h  c #0E8D8C",
"j  c #1F878B",
"k  c #118988",
"l  c #06777A",
"z  c #353434",
"x  c #1D1D1D",
"c  c gray5",
"v  c #0A0B0B",
"b  c #7BCCD0",
"n  c #41AFB2",
"m  c #259E9F",
"M  c #119094",
"N  c #149293",
"B  c #078789",
"V  c #137E82",
"C  c #0A7A7D",
"Z  c #077478",
"A  c #101010",
"S  c #86D9DD",
"D  c #74C7CC",
"F  c #4BB6B9",
"G  c #30A5A9",
"H  c #2BA1A7",
"J  c #2B9EA2",
"K  c #2B8E93",
"L  c #098B91",
"P  c #108E8E",
"I  c #02858A",
"U  c #108485",
"Y  c #027677",
"T  c #292B2B",
"R  c #7FD6D9",
"E  c #7BD2D6",
"W  c #67C1C7",
"Q  c #38ABB0",
"!  c #2B9D9F",
"~  c #239B9B",
"^  c #159198",
"/  c #1B9394",
"(  c #168D94",
")  c #238F91",
"_  c #118E91",
"`  c #238B8F",
"'  c #0A6266",
"]  c #484646",
"[  c #434343",
"{  c #051B1C",
"}  c #87D5DB",
"|  c #5DC2C6",
" . c #29A1A2",
".. c #24989F",
"X. c #11959B",
"o. c #1D989A",
"O. c #2E9398",
"+. c #11878C",
"@. c #1B8287",
"#. c #A4E6ED",
"$. c #98DFE4",
"%. c #8EDCDF",
"&. c #8ED7DC",
"*. c #7BCED4",
"=. c #6DCDD0",
"-. c #6AC6CA",
";. c #63BDC0",
":. c #5CB5BA",
">. c #52B1B5",
",. c #2FAAAA",
"<. c #39A7A9",
"1. c #3FA2A6",
"2. c #259CA4",
"3. c #2FA0A2",
"4. c #1E98A0",
"5. c #23969A",
"6. c #1C9599",
"7. c #179698",
"8. c #158B8F",
"9. c #048A8B",
"0. c #128688",
"q. c #068483",
"w. c #087C81",
"e. c #0A7175",
"r. c #0A6E70",
"t. c #3F3F3F",
"y. c #052425",
"u. c #B9FDFF",
"i. c #A4EDF3",
"p. c #95DBDE",
"a. c #84D2D4",
"s. c #5DC0C2",
"d. c #36A3A9",
"f. c #30A4A4",
"g. c #38999D",
"h. c #2F999C",
"j. c #229497",
"k. c #1C8B8E",
"l. c #19858A",
"z. c #0A8389",
"x. c #178184",
"c. c gray35",
"v. c #535352",
"b. c #064F51",
"n. c gray29",
"m. c #083436",
"M. c #211919",
"N. c #A7F5F7",
"B. c #97E4E9",
"V. c #9FE3E6",
"C. c #91DDE3",
"Z. c #87DCDF",
"A. c #7DD9DC",
"S. c #81CED2",
"D. c #6DC8CE",
"F. c #74CBCC",
"G. c #6ABCC1",
"H. c #48AFB6",
"J. c #54ABB1",
"K. c #4DABB0",
"L. c #40AAAC",
"P. c #0D9195",
"I. c #0C5D60",
"U. c #064143",
"Y. c #252525",
"T. c #1A1B1B",
"R. c #130E0E",
"E. c #ABF1F5",
"W. c #8FD5D9",
"Q. c #76D2D7",
"!. c #73C4C8",
"~. c #6DC2C8",
"^. c #58BCC1",
"/. c #56B6B7",
"(. c #44B6B7",
"). c #48AEB0",
"_. c #46A6AC",
"`. c #4BA4A9",
"'. c #39A1A3",
"]. c #379CA2",
"[. c #299B9C",
"{. c #1C8E96",
"}. c #0C9191",
"|. c #088E90",
" X c #3F6E71",
".X c #294747",
"XX c #273B3C",
"oX c #172F30",
"OX c #052E2F",
"+X c #2A2727",
"@X c #232323",
"#X c #141212",
"$X c #010E0E",
"%X c #ADF6FC",
"&X c #93E2E7",
"*X c #8DE2E5",
"=X c #53B8BB",
"-X c #5AB0B6",
";X c #33A7AD",
":X c #25A2AA",
">X c #17989F",
",X c #037F7F",
"<X c #165658",
"1X c gray30",
"2X c #194A4D",
"3X c #064547",
"4X c #0A3A3C",
"5X c #0F2E30",
"6X c #0D292A",
"7X c #122324",
"8X c #1B2423",
"9X c #271F1F",
"0X c #0D0303",
"qX c #B5FFFF",
"wX c #9DEFF1",
"eX c #97E8EC",
"rX c #6CD1D4",
"tX c #83C8CA",
"yX c #6DA4A8",
"uX c #1E9FA1",
"iX c #479CA0",
"pX c #179C9C",
"aX c #327676",
"sX c #6B6767",
"dX c #1D3D40",
"fX c #352224",
"gX c #C4FFFF",
"hX c #A8EAEE",
"jX c #61CAD0",
"kX c #80B9BD",
"lX c #80ACB1",
"zX c #4A9395",
"xX c #619194",
"cX c #3B8689",
"vX c #2A7A7D",
"bX c #177478",
"nX c #187072",
"mX c #14686B",
"MX c #166469",
"NX c #636464",
"BX c #2F5C60",
"VX c #0B5959",
"CX c #615757",
"ZX c #264F53",
"AX c #384749",
"SX c #124343",
"DX c #220E10",
"FX c #B7F2FA",
"GX c #8EC2C7",
"HX c #70B3B5",
"JX c #29848B",
"KX c #4F7B80",
"LX c #3D5759",
"PX c #404D4E",
"IX c #303636",
"UX c #423132",
/* pixels */
". X . e . tXd.../ = o o M 9 e X . > h.&Xo.= o _ U p u 1 / N.N.6.< q Y :.p.1.a.n L : o o < e . X . X ",
"X . @ - `.G.w.;X7.= o o $ _ V + . % ) B.4.& : ; 9 e w., } A.%.~.B a J.W.u a :.Q.9.8 o M < e . . X . ",
"X . X % !.h.- J ^ = o o o M 9 e V Y K.u.=.2 3 B ,XZ '.Z.y }.; a.-.;.p.* % x.m y E <.( 8 k e w X . X ",
"X . + q b ` + O.P _ o o o & ; u a K hX*X*XZ.=.s.s.S.b G ..J B P a.gX_.Y X 8.H., F R %.E j.% @ X . . ",
". . + V S.j x.K q.N o = g :Xk.<XG.V.H.2 4.^.| | >.g.8 L P ).3.}.j.$.9 > / Q s.J I |.m D.W.u % . @ . ",
"+ . X q S.O.K V * ; & 7.>.KX7  XD 5.L o 6.4.I z.e.Z < ^ 8 <.Q ..].&.].h.H 6.& d.H o.; 8 p.J.% @ % + ",
"V + > @ #.K.. . q _ P./.PX  $X+.3 & : & J / M k @ @ < $ 1 ~ o.h u p.rX|.o g o o o.~ ! ` E E j K j l.",
"K j @.D u.} q - - 9.[..X    { = , $ & 2. .h _ * X + < $ & o.~ h k B.N.>.3 & o o = h i a >.C.> C u ` ",
"> ) tXp.j.F.$.`.1.1.XX  #   { & $ & ..f.h $ < + . + B , 1 ! / q.s.} ,.%.W H 1 g ( 0 @ Z ].u.D k.l a ",
"&.#.b l.Y * i.u.W.AX  O O   { = = 6.G P o ; 0 + X + 0.: L m , ^.$.m I 7.D.%.D g q p @ a D u.hX#.} b ",
"W O.Y + @ e &XJ.y.  O O O O O ' X.d.N g M k + . X . % 2 J | B.E...|.: = 2 1 D S.k l Y K.C.].x.) J.W ",
"@.> + X > @.%.m.  O # O O O   b.pXj.& g ; * + . . - O.y C.E *.i.n 3 $ $ o P 0 -X$.D b S.9 - C l - - ",
"~ k 8 8 0.5.xX#   O O   O     aXjX2.pX6.* > @ % Y :.&.K.uXH I L.V.! & $ o M 9 a g.qXR C w @ p @ * * ",
",.N o $ }.) 8X  O O   O O O   .XeX#.-.j j k.w 0 ~.a.u - i '.~ q.=XS P.o o o _ u w.S g.- e w 0 8.N _ ",
"d.( o ( P.HXaX3X$X      O   O   MX,.V._.8.JXvXyXG.0 % @ + < G M 2 &.>.B : $ o : & b h.* 0.h M , o o ",
"(...2 8 ;.W.pXX.0 3XO       # O O OXiXlX XLX6 IXU.U.e.. p > 2.=XM H.} 2 & L = = ^ A. .1 , $ o o $ g ",
"<.3.Q F.E.J z.o , >Xb.          # M.r n.z 4 s [ +X6Xr.0 * i :XQ [.F &XG <.,.m 6.g b <.3 ( $ $ o I 7.",
"Q.S E.gXwXJ N & 1 o +.{   O t 5 z d r T T s d 4 c.[ oX4XSX4X<X* B ,.B.m 6.o.~ ! G | Z.7.3 3 3 o.^.S ",
"n ].` K.$.f.d.! ` / q dXz x 1XsX4 d n.v.[ r c.v.c.c.v.] v.M.f T 5XvXS , & = 1 & ; 4.-.%.=.| y &.y (.",
"Z C % a W L.l @.@.bXdXr d 7 # x x Y.s c.c.sXc.1X1Xn.] t.x t.n.r 6 M..X, N ( $ , , g B L.E qX&X..3 w.",
"@ X q - ).;.- + w m.m.y.  t t           c Y.d [ ] 5 T.x A 4 NX4 ] r #Xm.9 l.l.< 8.< ) /  .$.) % @ X ",
". X @ Z '.;.l @ X > C b.7Xt t.z     O         A T 4 ] z T.7 ] t.] d s R.OX* X + p p K C G.`.a q X . ",
"X X @ - 1.;.Z X 0 r.oX6 t.5 # +Xz O O     O O     #X6 t.t.7 T [ r 5 4 r R.OX* . + x.k.U R l.+ . . . ",
". X q - >.b a * r.oX] NX1X4 6 c T.#               7 7 A @Xr @X4 s 6 5 s s R.OXq . @ x.0.R 9 + . . X ",
"X . @ % j B.H.r.oX[ n.[ z s s f                   O A 5 5 x s 4 r 4 @X7 d 4 R.OXZ k.@.x.*.u > X . X ",
". X . @ Z aXxXXX] v.s 5 r T x A               O O O O f 4 6 f 5 r 4 f   c 5 d t 7X<X> 8.S l.i q X . ",
"X X p * I.f O 6 v.n.z 6 f t v # O           O O   v # A 5 d z 5 +Xd T.O     #Xx 6 Y.6X<Xa.k.VXr.@ X ",
". X . % .X6 7 d s 4 5 t c # # # O # #   # # O c f t O v T r 5 6 z Y.O t yX2X$XO v t f f XXy.# m.U X ",
". X * I.[ x c 6 d f 7 A       O O   # O O c @X+X6 v O # 7 T z z 6 7   # XXtXiX' U.{ # # #XM.R.{ ' + ",
"+ + % dXt.A O 7 7 v # # 4X' y.# M.x x x Y.+XT 6XO   O   v t @Xf 7 #   v   8XkXQ.W *.GXkXZX{ T.f { r.",
"* 9 r.AX4   # #   O # I.X.X.o ' 5X5 s x 7X5Xb.+ y.      # 7 A t v     c A   $XBXzX'.*.u.H b.t f U.i ",
"j 9 2Xn.6 # Y.v   # I.>X: = = X.& mXyXlXcXl 0 . e.U.y.{ O c t v       # A v     8Xm.x.p.9 r.oX9XT.nX",
"C bXT [ s z 7 A 0X XQ f.G G ..: 9.rXi.Z.&.j % X q * 0 mXc #Xt #   O       # # c CXZX{.&.V i e.3X7XMX",
"8. Xd ] CXfXM.R.5X!.>X= $ ^ ~ f.Q Z.G l O.W % w X + X U VXv c #     $X3X' I.' 2Xr 2Xz.C.>.w.i K j % ",
"W  Xd sXUXDXfXc e.=.5.+.8.o 1 |.F R $ ( Y K.iXl @ X . P P.cX.X    BXu P.X.X.X.P.e.nX2.F E.R ;.:.% C ",
"s.U.M.[ fXDX0X4XB /.`.a V < : g 1 E 2._ w j.W C . + 0 ; 2 y (.' ' jXn [.j.5.m m ,.Q {. .i.*XS B.D :.",
"q.b.9X9X0X0Xy.* % K } ) - V {.|.N S ;X}.U u W V . . < : q./.F 9.,.L.3.{.! F n ~ L I o b ).8 P ` `.g.",
"0.SXr T   { U * p % O.a._.Z ,X7.*.=X .; k Z /.'.a i ; $ 9.y Q 6.3.i e._.*.W ~.S D.;Xy ^.I ( o 1 i ` ",
"' XXv.8X  I._ > . X l j D D ;.E F h G : < > ` !.:.[.9.B H.y ^ 3.U - J.*.l.l Y {.s.wXqXH.3 : $ , ;  .",
"b.9X5   y.P U + . X @ % Y b #.5.2 ^ H o h i > u -XC.R A.V.! m j.- h.} C > q @ i q.G N.$.4.L 2 8 ; ) ",
"m m.  6X+., k + X . X @ - _.-.z.$ ( 5.g ; 0 e l 9 #.%X%XE.uXd.k Z !.1.- @ . . w < 2 D.u.i.R *.,.4.zX",
"3 3 0 H uXI 1 9 + X X @ > O.;.3 g ! / g ; U + j W.>.>XX.D D.~ w O.F.w.. X . . p +.8 R %X-.n (.F.-.o.",
"F s.rX=.E | ! P * e . @ - ).~.q./ H o o o k.e.:.-Xw.P L L } =X,Xb 1.l @ X . X @ q.n $.3.2 3 I [.:.F.",
"n <.J J  .n y | N C + Y @.V.G.a < 5.= o $ B h.b i +.M $ 2 <.C.-.!.% @ . X . X q N Z.f.B : 1 2. .8 H ",
"z.B 1 = = 3 ; F.n ! j ).#.FXp.J.J m P o 2 n E O.Z 0.; o = 7.wXN.) % . X X . p ,X=.| 2 : o ; f.+.+.z.",
"X p 0.: o : 9.F R Q.a.V./.g.1.G.&.y }.8 D.y N % p * ; o = ^ eX| w.e . . X @ > L.} M o 1 8 ~ ) C X + ",
". . + +., o 2 F i.A.^.u a V 9 - @.S.Q.y ~.9.1 k e w < $ = ^ %.Q z.X w X X X * %.d.I : o.3.h.+ . X X ",
". X + 0 ; o & -.n 2.I h @ X ` @.- 9 S %X4.& , 8.@ w k $ & 2.S H h * w X @ - -X=.8 J f.<./ X X . . . ",
"X . X p < L L.=. .7.o N 0.% V ` K 1.5.eX:X& o ; u + U , 3 :XA.^ h i w @ l K #.(.G m N h k e X . X X ",
". X . X + 4.y ;X3.& o $ _ X + w K g...*XH & o ; U p V $ L Q A.^ h . @ % g.i.N.F ( = o M k e . X . X "
};
