/* XPM */
static char *result[] = {
/* columns rows colors chars-per-pixel */
"50 50 247 2 ",
"   c #020102",
".  c #0C0304",
"X  c #090807",
"o  c #08080A",
"O  c #0B0B0B",
"+  c #130103",
"@  c #1C0205",
"#  c #1D0905",
"$  c #140209",
"%  c #1D040B",
"&  c #110B0C",
"*  c #1E0A0C",
"=  c #0F0D11",
"-  c #1F0510",
";  c #0A1415",
":  c #08191C",
">  c #131313",
",  c #1B1314",
"<  c #131B1C",
"1  c #1C1C1C",
"2  c #240305",
"3  c #2B0206",
"4  c #250807",
"5  c #2C0806",
"6  c #24050C",
"7  c #2B050B",
"8  c #25090B",
"9  c #2B080C",
"0  c #340206",
"q  c #3B0205",
"w  c #380805",
"e  c #33040A",
"r  c #3B030A",
"t  c #33090B",
"y  c #3F0A09",
"u  c #28140B",
"i  c #240611",
"p  c #2A0411",
"a  c #250A10",
"s  c #350911",
"d  c #221314",
"f  c #241A1B",
"g  c #29181B",
"h  c #351916",
"j  c #1E211E",
"k  c #31221F",
"l  c #161F24",
"z  c #232323",
"x  c #292424",
"c  c #242629",
"v  c #252A2A",
"b  c #2C2C2C",
"n  c #37292B",
"m  c #2F3435",
"M  c #343434",
"N  c #3A3737",
"B  c #3C3B3B",
"V  c #440206",
"C  c #4C0205",
"Z  c #430A06",
"A  c #4E0905",
"S  c #430209",
"D  c #4B0309",
"F  c #430A0B",
"G  c #4C0A09",
"H  c #540506",
"J  c #5B0405",
"K  c #520906",
"L  c #5B0C05",
"P  c #530309",
"I  c #5B0409",
"U  c #550B09",
"Y  c #5C0B09",
"T  c #471308",
"R  c #581607",
"E  c #411912",
"W  c #571B13",
"Q  c #630405",
"!  c #6B0505",
"~  c #650A06",
"^  c #6B0D05",
"/  c #630509",
"(  c #6C040A",
")  c #640A09",
"_  c #6C0A0A",
"`  c #730506",
"'  c #7B0504",
"]  c #750D06",
"[  c #7C0D06",
"{  c #74080A",
"}  c #790809",
"|  c #64130A",
" . c #6A1309",
".. c #681508",
"X. c #761304",
"o. c #7B1305",
"O. c #781D03",
"+. c #75130A",
"@. c #7C130B",
"#. c #741809",
"$. c #7C1B09",
"%. c #661411",
"&. c #4D2112",
"*. c #6E2B09",
"=. c #672312",
"-. c #462B2A",
";. c #423D3F",
":. c #3E4040",
">. c #434343",
",. c #4A4848",
"<. c #4C4D4C",
"1. c #524A4B",
"2. c #4B4F50",
"3. c #515151",
"4. c #555153",
"5. c #5C5C5C",
"6. c #676567",
"7. c #890705",
"8. c #830C06",
"9. c #8A0C05",
"0. c #840909",
"q. c #9B0E04",
"w. c #841305",
"e. c #8D1306",
"r. c #8D1B06",
"t. c #84140A",
"y. c #8B1408",
"u. c #821A0C",
"i. c #8B1D0B",
"p. c #951305",
"a. c #991305",
"s. c #9D1904",
"d. c #9A140C",
"f. c #921809",
"g. c #931B0C",
"h. c #9B1C0A",
"j. c #911610",
"k. c #B10E09",
"l. c #A71607",
"z. c #A41C05",
"x. c #A31C0B",
"c. c #AC1C0B",
"v. c #B31E07",
"b. c #BB1C05",
"n. c #B61808",
"m. c #8A240B",
"M. c #93210C",
"N. c #9B220A",
"B. c #992809",
"V. c #9F3106",
"C. c #972711",
"Z. c #A52105",
"A. c #AD2D06",
"S. c #A3240B",
"D. c #AC230B",
"F. c #A52B0A",
"G. c #AD2A0A",
"H. c #B32506",
"J. c #B42D06",
"K. c #B5240C",
"L. c #BA260A",
"P. c #B72808",
"I. c #BB2B0B",
"U. c #AF3108",
"Y. c #BD330B",
"T. c #B8390B",
"R. c #B12B10",
"E. c #B73612",
"W. c #C51A08",
"Q. c #D31A07",
"!. c #E31909",
"~. c #C32405",
"^. c #C92606",
"/. c #C32A06",
"(. c #CC2B05",
"). c #C9230B",
"_. c #C42C0B",
"`. c #CF2C0C",
"'. c #DB2B06",
"]. c #D4260A",
"[. c #DB2C0B",
"{. c #C53605",
"}. c #CD3006",
"|. c #C13907",
" X c #CE3B05",
".X c #C2320B",
"XX c #CB330A",
"oX c #C53A0A",
"OX c #CD3D0D",
"+X c #D43407",
"@X c #D93907",
"#X c #D3320B",
"$X c #DB330B",
"%X c #D3390B",
"&X c #C72F10",
"*X c #C13411",
"=X c #CC3311",
"-X c #C83811",
";X c #E12A06",
":X c #E62D09",
">X c #ED2E0A",
",X c #F92A0B",
"<X c #E53506",
"1X c #ED3A06",
"2X c #E4340A",
"3X c #ED3008",
"4X c #E43C0C",
"5X c #EB3C0A",
"6X c #F53906",
"7X c #FD3D05",
"8X c #F23D09",
"9X c #F03210",
"0X c #CD410A",
"qX c #D54409",
"wX c #DB440A",
"eX c #DA4A0B",
"rX c #DA4612",
"tX c #E64607",
"yX c #E34906",
"uX c #ED4B07",
"iX c #EC440A",
"pX c #EB4C09",
"aX c #FE4206",
"sX c #F34D06",
"dX c #FD4D05",
"fX c #F2450C",
"gX c #F44A0A",
"hX c #FF4B0A",
"jX c #E75106",
"kX c #EB5609",
"lX c #F45206",
"zX c #FF5205",
"xX c #F3530B",
"cX c #FC540B",
"vX c #F85B0A",
"bX c #E64211",
"nX c #FA4610",
"mX c #FF5210",
"MX c #EF610A",
"NX c #FF6405",
"BX c #FE6108",
"VX c #F86708",
"CX c #FF6D09",
"ZX c #FD7E06",
"AX c #FF790B",
"SX c #FC8608",
"DX c #FA9009",
/* pixels */
"].F.Y S 7 2 6 6 4 5 6 ) 5XL 4 9 9 7 9 t t e ! 6X7XdXkXd.D e r D ) 2Xl.0 8 8 6 i i 6 p i 4 8 9 T } kX",
"jXz.o.X.K Z 5 e Z q V Z.@XD 4 8 7 p 6 7 t 3 _ 9Xb.<XH.7.#X.X*XrXeX[.9.7 p 4 6 i 6 6 i 4 4 7 G e._.DX",
"SX5X'. Xs.' { p.v.P.0XVXlXg.D q 2 @ 7 8 3 q H.,XQ 7.6XR.m.#.) G.uX].a.q 7 8 8 4 6 6 4 6 6 C J.kXAXSX",
"X.r.(.lXsX;X1XvXlX X{.J.J.%XN.2 . C V V [ _.>X,X!.;XY.K e 3 8 3 W.dX}./ 0 2 % 6 7 4 4 r o.eXvX@XS.X.",
"@ 6 0 ~ A.sXNXjXX.r 0 3 3 q #   R iX X+X2Xx.I } Q.1XH t r t t e H.hXtX+XD.] L D 0 q ( K.xX X_ V r % ",
"8 8 6 6 3 f.BX{.r 4 6 8 6       @ @.%XnX7.6 3 6 r _.U r t t 5 U *Xe.I o.c._.4X[.^.^.yXbXe.r 6 i 8 8 ",
"6 6 4 7 4 V @X Xr 8 7 6         . 2 I b.0 3 7 t @ D.d.3 e e D E.@.3 8 6 6 r J e.'.NXkX` 3 8 8 6 4 6 ",
"% 6 6 4 6 % o.2Xq 6 6     X     . 3 L a.6 6 6 7 @ _ iXS.i.N.eXY.0 8 p 7 7 i 8 7 ` 8X(.V 8 6 6 6 % 6 ",
"% % i 6 6 6 S (.^ @               2 X.t.6 7 6 6 $ Y vXiX}.xXCXr.7 p 7 6 6 8 p 8 q Y.D.6 7 i i i % % ",
"% - - 6 6 4 V 4Xx.+               q d.y.@ i 6 i $ | L.C V [ bX8.3 7 6 6 7 6 4 9 3 g.x.6 7 6 6 % % - ",
"% % % 6 6 @ #.hXO.            X   X.:X_ % i 6 6 $ %...6 9 3 _.@.# 9 i 7 6 6 8 9 2 r.L.3 9 6 @ - % % ",
"% # % % t I _.f.+                 R aX0.% 7 6 6 $ +.+.4 t 6 x. .% 7 8 6 6 6 7 9 6 z.(.0 7 4 6 6 % % ",
"4 6 2 3 Q ~.%X3 % 4 $ 2             X.8.2 % * , = =. .% t 3 d.| 6 8 4 6 p 7 9 7 C tXuXQ 4 6 4 6 6 4 ",
"0 r ^ N.wXCXMXU @ % r x.2             g n :.B B :.x 4 0 t 0 ).N.0 7 5 7 8 9 7 _ #XsXxX[.^ 5 7 4 0 0 ",
"~.XXiX5X+X{.(.R.y.g. XF.2       O v b M N b M N B 3.N 8 2 Z B.|./.z._ D G C { :XW./ P [ ).n.` _ p.v.",
"r.w.( V 3 3 3 q Y u.oXK.3 z z f 5.5.b :.>.>.M <.2.5.5.<.>.<.< k &.B.2X'.v.L.3Xb.r 4 8 % q x.8X8Xb.s.",
"% @ 6 $ % - % % $ % 2 t.-.2.M = 1 b z b <.5.6.6.<.<.<.,.>.z >.:.M l h H.cXxXQ.~ 7 s 7 p 6 3 h.$XC 3 ",
"p 7 i 6 i - - i - - @ 5 T +   1 X         O 1 M :.>.M z 1 O 3.5.N ,.v o 8.hX).V 9 s s 9 7 4 I P.S p ",
"7 7 4 6 % % % % % 6 @ 0 c.w > z >.1             O z B >.N > z ,.:.:.M v   Y.$Xt t p 9 7 7 7 C W.H 5 ",
"p 9 6 6 6 6 6 6 i 6 6 6 h N >.z O N 1               O b B B = M :.M M >.c u z.q t p 9 s s 9 Y './ 5 ",
"r 7 7 4 6 % $ $ % 6 + f 2.5.<.B b o >               = > > z M b :.M m n B c 4 q t t t t r t ' 1X0.e ",
"H S 0 e 0 r r V V 0 f ,.>.B N M M O                   O M m j B N :.N ; 1 B c O 3 0 t e F J n.zX[.! ",
"}.).D.x.D.z.g.%.F h 2.3.m M M 1 > o                     1 B b z n M M X   > b z 1 * 0 I } k.2XtXgXiX",
"6Xn.#X6Xo.8 6 b ; c ,.>.N z , O X X                 = X > b M N b b z X     o O z b z y q.h.T V Y 0X",
"W.r f.c.% @ g m O n M N j > X o X     O X   X X < M 1   X z N b M n ;   + 6 @ .   X ; : j O   @ p 0.",
"iXyXsX4XS. .N c   z c > O         O O o & o < M x >       > z M c 1 X   o $ 4 t 5 3 A R , z 1 d ) W.",
"dX6Xb.a.r.W <.>   X o     R N.w.0 o z m v z f d Y 2       o > > > O     =   X 3 J H.8Xv.' 0 < f (.7X",
"7Xa.V q 3 c <.  > ;     4  .u.N.=Xh.G W =.5 3 6 0 0 +     X > > O       > X     E B.~ 0 C 3 1 b f.<X",
"c.y.7 t @ >.B z j O o + 3 6 $ - F c.3X7Xb.V 7 p * 6 4 V L   > >     o     O O   >.g 3 9 p e 6 > 0 Q ",
"Y g.D 0 f ;.,.1.> 1 . 6 p 9 p 9 6 C +X<XD 3 7 7 6 6 4 3 J R ; >         . + $ 6 -.g 2 7 t 9 p 3 7 7 ",
"U *.E.H.n 6.4.g n , @ p 7 6 7 9 r P +Xp.3 7 6 i i 6 6 2 t S.5 X     . - 8 4 4 t +.Y 3 7 7 9 7 7 t t ",
"N.U.Z.p.@ 1.n d O X 6 7 7 7 3 t V ] fX0.2 4 6 i i % 6 4 7 h.) 4 $ @ 6 i i i 8 % ) c.0 8 p 9 9 7 5 V ",
"M.S e e , n i . +  .0 0 8 6 7 0 U wXBX(.V 4 4 % % % 6 % 3 s.I 3 p i 6 i i 6 6 6 q N.%.3 3 e 0 V I D.",
"3 6 4 % b ;.X   0 D.j.P Z e D i.T.T.T.eXL.C 2 % i i % 3 D L./ 6 i % % - % - 6 8 3 B.MXJ.h.f.r.h.jXY.",
"7 3 6 , 3.N   . 7 V #XP.i.S.Y.C.D 3 3 r N.=XI 6 % - 6 3 K $X~ 6 i % % * - i 6 8 @ m.cXY.Y.OXwXMXZXw.",
"4 6 6 & m o   % 7 6 9.BXcX}.| 2 6 6 6 % 6 F.G.@ p r r V H <XQ @ 6 - - - i 6 9 % 3 *X+.% 6 3 0 y.mXu.",
"7 6 6 @   . % 7 6 7 Q xXP.D 6 6 6 6 6 % % I _.~ P P P ` =X:XC 6 6 6 % 6 i 6 % e g.u.3 8 a a 8 6 h.K.",
"r 3 6 i 6 6 i 4 9 0 g.-XC 5 2 6 6 i i i 8 G _.uXOXY.c.#XB.l.V 7 6 6 2 6 6 6 e D.M.6 6 6 9 6 7 2 e W.",
"+.7 4 6 i i 6 7 7 J rXi.3 7 4 6 i - % 6 5 ) #Xh.R W ) g.P 9.r 4 4 6 6 6 % 0 L.XX0 i 8 8 6 4 6 7 6 Y ",
"c.C 7 6 % 7 t 7 V l.pX/ 6 6 6 i - * 6 6 6 r.S.@ $ i % / hX$X( S e 3 0 0 V K.qXV 4 6 6 6 6 6 6 6 6 t ",
"S._.9.} ~ ! { 8.L.hX+XJ 4 6 6 i 6 i 6 - 3 R.| % 7 7 I  XyX+X$X#XK.x.l.b.%XpX) 6 t 6 6 6 6 9 6 8 6 3 ",
"V.AXBXiX4X2X'.fXhXzX~.C 7 6 6 i i i i 6 F K.r p 3 G *Xm.V r G $.M.g.x.yXpX`.Y 5 5 7 4 6 i 6 6 6 4 3 ",
"wX}.o.L A C U ] ~.dXfXJ 4 7 6 6 6 6 6 6 D L.w 7 6 u.i.+ 6 8 6 6 6 % 6 V h.mXM.@ 3 8 4 7 9 7 9 5 8 7 ",
"L.q @ 4 % % % % C e.uX/.e 4 9 8 6 7 7 4 Z &XJ 0 S U...3 7 7 7 8 6 p 9 8 r oXBXm.G V e 3 6 4 6 6 3 M.",
"! 4 7 6 6 8 6 6 4 2 L 4Xc.0 5 5 9 7 7 t U qX+XI.=XnX$.6 7 6 6 p p 9 9 9 q  XSXvXiXpXrXI.e.~ I P d.,X",
"D 7 6 6 6 6 6 i 6 7 6 r.hXk.Y 0 3 3 0 V 7.cXY.+.Y F.i.6 8 6 6 i 8 7 7 7 i.pXH.0.8.y.y.x.`.5X5X8XhX;X",
"U 5 4 6 6 i * i 7 p 5 ( kXCXpXXXZ.h.x.XXvXuXP 0 3 i.^ 3 7 7 8 8 7 i @ i.`.{ 0 5 % 6 6 2 r ) y.+XhXQ.",
"J 5 6 6 6 - % 8 8 p 4 J jXZXeXP.J.A.U.A.oXfXF.D q N. .3 9 9 p p p 6 i.[.! e 6 8 7 8 8 i 8 4 6 I [.2X",
"w.Z 9 6 6 6 6 6 6 9 8 H kXXXV e 3 7 e p 0 w.xXc.r C.+.3 8 5 9 p 6 r _.9.3 p 7 i i 7 8 p 9 9 p e o.uX",
"J. .0 4 7 6 8 i 6 9 6 K iXo.6 9 p 7 p t t 3 z.aXn.@XD.C t t 7 t 3 m.R + i 7 i a a i i 6 8 8 9 t _ iX"
};
