/* XPM */
static char *result[] = {
/* columns rows colors chars-per-pixel */
"50 50 253 2 ",
"   c #150003",
".  c #1C0104",
"X  c #1D040B",
"o  c #230305",
"O  c #2B0206",
"+  c #2B0806",
"@  c #24050B",
"#  c #2B050B",
"$  c #25090C",
"%  c #2A090D",
"&  c #340306",
"*  c #3A0104",
"=  c #34040B",
"-  c #3B020A",
";  c #360A0D",
":  c #260811",
">  c #350A12",
",  c #2E141A",
"<  c #371716",
"1  c #3D2329",
"2  c #440105",
"3  c #4C0103",
"4  c #410309",
"5  c #4B0809",
"6  c #590707",
"7  c #4D120D",
"8  c #421C19",
"9  c #670706",
"0  c #770806",
"q  c #6F170F",
"w  c #7A1206",
"e  c #472319",
"r  c #582B1B",
"t  c #5C3418",
"y  c #682E1B",
"u  c #641E21",
"i  c #4A2928",
"p  c #542D27",
"a  c #5C3326",
"s  c #472B31",
"d  c #582D30",
"f  c #5A3839",
"g  c #673828",
"h  c #763D26",
"j  c #6A3937",
"k  c #703635",
"l  c #6C402B",
"z  c #79442B",
"x  c #6C4339",
"c  c #754A34",
"v  c #784835",
"b  c #7D5239",
"n  c #583C44",
"m  c #6E3F46",
"M  c #5F4449",
"N  c #63464B",
"B  c #67464A",
"V  c #794849",
"C  c #7A5446",
"Z  c #724D52",
"A  c #7D4D51",
"S  c #6F5055",
"D  c #745355",
"F  c #7C5455",
"G  c #7B5659",
"H  c #745A5B",
"J  c #7B5A5D",
"K  c #785B63",
"L  c #8B0C06",
"P  c #891507",
"I  c #981706",
"U  c #AE0C04",
"Y  c #A71806",
"T  c #B71A05",
"R  c #9B210A",
"E  c #922A16",
"W  c #A82609",
"Q  c #B72609",
"!  c #B9340A",
"~  c #B33317",
"^  c #98352A",
"/  c #AC3D2E",
"(  c #C81B0A",
")  c #C82606",
"_  c #D92A08",
"`  c #C93608",
"'  c #D73609",
"]  c #CB341F",
"[  c #E72A07",
"{  c #E93909",
"}  c #F83C07",
"|  c #894A2A",
" . c #95502B",
".. c #854B3A",
"X. c #974C37",
"o. c #825235",
"O. c #895739",
"+. c #965A35",
"@. c #AA4D38",
"#. c #A65D35",
"$. c #8E623B",
"%. c #976239",
"&. c #A86539",
"*. c #AE6B3C",
"=. c #B56B38",
"-. c #AE7035",
";. c #B97639",
":. c #DA460A",
">. c #C94312",
",. c #EA4507",
"<. c #F74A07",
"1. c #E95408",
"2. c #F85609",
"3. c #E74C18",
"4. c #FC6508",
"5. c #FE7B09",
"6. c #CF4B25",
"7. c #E85320",
"8. c #CB6F2E",
"9. c #C67B37",
"0. c #85484C",
"q. c #8B5748",
"w. c #945948",
"e. c #824D53",
"r. c #8B4A54",
"t. c #924A50",
"y. c #845255",
"u. c #8A5555",
"i. c #875B57",
"p. c #865359",
"a. c #8B535A",
"s. c #8D5A5B",
"d. c #945B54",
"f. c #965D58",
"g. c #B35B45",
"h. c #8D6449",
"j. c #986545",
"k. c #946859",
"l. c #A56A43",
"z. c #B56D49",
"x. c #A87445",
"c. c #B87A45",
"v. c #A6675A",
"b. c #865C62",
"n. c #915A61",
"m. c #886569",
"M. c #96696C",
"N. c #92766E",
"B. c #876C75",
"V. c #936D73",
"C. c #997677",
"Z. c #A37A6E",
"A. c #C47846",
"S. c #C47D5D",
"D. c #BB8234",
"F. c #FA8B07",
"G. c #C6863A",
"H. c #C58C3B",
"J. c #D48839",
"K. c #CA943D",
"L. c #CB963E",
"P. c #D8993B",
"I. c #E49B36",
"U. c #DAAB3D",
"Y. c #EAB03F",
"T. c #BA8549",
"R. c #B58953",
"E. c #BB8955",
"W. c #9D817E",
"Q. c #AD8A71",
"!. c #C88946",
"~. c #CB9343",
"^. c #CB9649",
"/. c #CD9A4D",
"(. c #D59A45",
"). c #D29C4C",
"_. c #CC8E52",
"`. c #C99755",
"'. c #D49A53",
"]. c #D9A744",
"[. c #D5A34C",
"{. c #DAAC4B",
"}. c #DCB349",
"|. c #CEA558",
" X c #D8A856",
".X c #CCB35C",
"XX c #DBB55A",
"oX c #E3B444",
"OX c #E5B947",
"+X c #F1AF51",
"@X c #E6B858",
"#X c #D29D61",
"$X c #CBA466",
"%X c #D6AA63",
"&X c #CBB46E",
"*X c #DAB667",
"=X c #E7B768",
"-X c #E8B26D",
";X c #EFCA55",
":X c #E8C559",
">X c #FAEB5C",
",X c #DDC469",
"<X c #D9C070",
"1X c #E7C868",
"2X c #F4CA69",
"3X c #ECD468",
"4X c #F3D868",
"5X c #F2DB6B",
"6X c #E8CA76",
"7X c #F5CB78",
"8X c #EDD379",
"9X c #F4D877",
"0X c #FBE765",
"qX c #FFF26B",
"wX c #F9E475",
"eX c #FBEF79",
"rX c #957D85",
"tX c #9A7C82",
"yX c #A57D84",
"uX c #988087",
"iX c #9D838B",
"pX c #9D8792",
"aX c #A58387",
"sX c #A5858C",
"dX c #A5898D",
"fX c #BA9A89",
"gX c #A48B93",
"hX c #A48A94",
"jX c #AA8D93",
"kX c #AC9396",
"lX c #B29694",
"zX c #B49999",
"xX c #BDA297",
"cX c #B49DA7",
"vX c #B7A3AC",
"bX c #B9A6B0",
"nX c #CAB38B",
"mX c #ECD788",
"MX c #F3DD89",
"NX c #E8D393",
"BX c #E0D89E",
"VX c #F6E788",
"CX c #EDE293",
"ZX c #F3E393",
"AX c #F6E995",
"SX c #F2E8AC",
"DX c #F9F6AA",
"FX c #FAF7B4",
"GX c #FCFCBD",
"HX c #FBFCC3",
"JX c #FBFCC5",
"KX c #E6F0D0",
"LX c #E7F1E1",
/* pixels */
"_ W 6 2 + + $ $ + + $ 9 { 6 $ % # # @ = < 8 q 3.3.7.7.^ 6 - * 3 9 { Y = # @ @ : : : @ : $ $ # 7 w 1.",
"1.I w w 5 4 + & 2 & 4 W ' 2 $ + @ < f V C h.q.v h v C w.w.O.@.6.:._ L @ : @ @ # @ @ @ @ $ + 5 P ` F.",
"F.{ [ ` Y 0 0 I Y ! >.4.2.I 2 < x C c c l e < z v.h < < g b c w.8.] I * # o $ o $ $ @ @ o 3 ! 2.5.F.",
"w P ` 2.<._ { 2.1.>.` Q Q >.@.$.c r e b k.h.g k j.v g h.x.o.e e k l.@.q & @ X 1 > o $ - q :.2.' Y w ",
"@ o & 9 W 1.4.,.E S > @ ; C b t q.k.r b $.l q.l g l q.l h.q.e k.O.r b j.E 0 7 H i & 9 Q 2.` 9 2 = X ",
"$ $ $ @ O I 4.` j tXs : C c p p z b g b g e a O.w.o.g e g o.l o.z p p c g.` 6.W.@.) ,.:.L ; @ : $ X ",
"@ @ o $ o 3 ' >.Z iXS c l l v.h.h.c c b b r a z %.z t r b $.c c $.j.Z.| g C i.iXt.4.2.0 # $ $ @ $ $ ",
"X X @ @ $ . w 6.b.jXtXg 8 g z o.z b r c j.g l | $.| z g %.b t o.o.O.| h e g uXkXp.6._ - + @ @ @ @ @ ",
"X $ X : @ @ 2 @.m.V.kXx b g c v h b c t z %.O.O.x.O.+.%.| t b +.| +.b l h.b zXN.m.g.Y @ $ : @ : X X ",
"X X X @ $ . 5 f.b.F cXm.$.h.a r h | T.j.c.%. .;.[.-. .%.T.$.T. .| y h &.T.k.vXh.m.v.I @ # @ @ X X X ",
"X X X : @ o u M.G v dXC.g l t $.nX$X&.$XNX`.|.*X1X$X|.E.NX|.-.$XmXT.h o.| N.xXO.q.M.E = # @ X @ X X ",
"X X X X # 9 / m.x t i.aXa r z $XGXJX$X=.AX*XVXGXFXGXAX*XCX;.$XHXDX2X-.| z &XZ.g c M.^ 2 @ @ @ @ X X ",
"$ X O O 9 ) g.B.V.m.B.jXk.a T.*X-XVX%X!.%X6X7XGXHXHX9X1X*X_.%XMX6X*X/.| Z.nXQ.Z.N.N.M.u X $ $ $ @ @ ",
"& 4 9 R :.4.&.K m.B.m.B.N.g T.SXE.G.NXBX/.=X!.=XMX=X!.*X/.BXNXJ.!.SX`.+.Q.Q.W.Z.V.J K / 0 # O o O = ",
") ` ,.{ ` ` E s p d p d d z #.;.=.;.9.G.9.J.G.I.I.I.(.I.P.I.I.J.H.J.9.=. .| g k d p d q ( T 0 0 I T ",
"P P 9 2 O O p J j m k i.x | $XmXCXZXMXMXZXZXVXZXVXVXAXAXAXAXAXAXAXZX=X-.%.v...0.k i.B X = Y { <.T Y ",
"X X X X X   n yXy.0.0.yXy.h R.-XAXGXHXJXHXGXHXHXHXHXHXHXHXJXHXHXDX6X X#.l.fXw.u.u.yXZ # : O I ' 2 : ",
"# @ : @ : . n tXb.M.A C.e.| &.x.[.,XAXFXHXHXHXGXGXHXHXGXHXGXAX9X:X(.D.=.w.fXu.Z.k.C.Z # + o 6 Q 4 > ",
"# # @ @ @   N yXG J A yXA  .&.x.&X*X,X1X6XMXFXGXGXHXGXVX8XwX3X,X6X^.9.=.d.lXu.i.G yXG @ = : 5 ( 6 + ",
"# # @ @ @ . N hXe.V e.sXF | +.c.|.*X,X{.8.Y.DXJXGXHXDX;XI.:X,X,X*X^.=.=.q.kXu.V 0.sXK # > # 6 _ 6 & ",
"; = @ @ @   M dXe.n.e.sXA | #.R.`..X*XXXJ.oXDXGXGXHXDX+XP.XX,XXX'.`.&.#.q.kXu.n.e.sXK & = ; 0 } L - ",
"6 - & = & * B gXA e.e.sXA +.*.E.z.!.%XXXP.+XDXJXGXHXFX:XP.XX%X_.A.`.z.=.d.lXa.p.A hXK * 5 6 T <._ 9 ",
"` ( Q Y Q I t.hXa.0.p.sXG %.c.E._.z.A.|.).;XDXJXGXGXDX;X{. XA.A.T._.c.c.q.kXs.0.r.hXJ 3 9 U { ,.3.,.",
"} Q _ { w o N hXn.0.p.dXy.%.c.&.#X%X%X=X].2XDXJXHXHXFX3X{.=X*X%X%Xl.;.c.q.lXs.t.a.hXf.U _ Q 0 5 9 ` ",
"( - I Y X   M gXp.0.r.hXp.+.R.c.-.z.c.^.U.3XSXJXGXJXFX3X[.`.c.l.*.c.`.*.d.lXi.t.r.iXv.,.<.0 = = : L ",
",.:.<.{ W P 0.pXa.0.p.dXu.l.|.~. X^.!.T.P.5XDXJXGXGXFX3X(.D.!.!.{.[. Xc.d.lXs.r.a.hXv.[ } [ ) Y L T ",
"<.} T I P L w.hXp.0.e.jXi.x.$X;.H.K.^.}.{.3XDXJXFXKXDX5X].{.~.H.H.;.|.R.d.zXs.0.p.hXv.T Y Y U ) } } ",
"} Y 2 - = @ B kXp.0.p.dXs.x.|.G.~.(.(.H.}.0XDXHXJXJXDX5X}.D.!.).K.G.'.R.f.zXs.0.p.kXG = - - - 6 U { ",
"T P @ > > o B jXn.r.e.gXm.&.|.H.).XX XP.oX5XFXHXGXFXDX3X{.G.). X).H.).c.f.zXp.r.r.kXH # : = > = 4 9 ",
"6 T 5 = ; 9 t.gXa.t.p.jXs.*..XL.{.{.{.].OX5XZXSXFXBXAX3X{.K.).[.[.K. XT.f.zXa.t.p.hXH o > = = # # # ",
"7 2.,.Q ` ,.A.hXa.0.y.gXu.*..XL.L.}.:XU.OX5X9XmXZXNXmX3X}.L.}.}.~.L.|.c.f.zXd.t.p.jXH o = % # # # = ",
"W ` R I P 9 0.hXa.s.y.kXi.&.[.L.L.,X1XU.oX4XwXMXMXMX8X1XU.L.,X1XL.H.[.;.v.zXa.n.p.jXH o % : % + # 4 ",
"E 4 = = #   N jXp.V e.jXu.*.|.K.G.{.:XU.oX4X7XVXVXNXSX,X].L.}.[.D.!./.c.d.zXi.0.e.jXJ o O # & 4 6 W ",
"= : @ @ @ @ N jXp.r.e.jXu.*.|.H.[.G.}.U.oX4X+X4XwXSXLX6X[.P.P.D.~.!./.T.d.zXy.a.r.hXv.! R I P Y 1.! ",
"+ # @ @ @   N sXm.C.e.jXf.l.|.G.XX{.@XU.Y.3X+X2XVXLXKX,X].P. X(. XG./.c.f.lXi.M.m.pXv.) ! ` :.4.5.P ",
"@ @ @ @ : . N gXG A V kXf.&./.D.|.@XXX[.OX3X+X;XDXLXBX1X{.~. X X|.;.^.*.f.zXe.A e.dXJ o @ # # P 2.P ",
"# @ @ @ :   N gX0.V 0.jXk.&.).T.#X'. X+X+X4X+X+XAXKX3X1X{.).'._.`.c.^.=.d.lXy.V e.gXD o : $ $ @ I Q ",
"- + @ @ : . N jXV k 0.jXs.l.[.;.!.~. X{.oX4X+X+X3XVXwX3X].(._.T.c.=./.z.s.lXu.k m jXH X % : # o = ( ",
"w # + : : X N sXm.M.F gXf.&.^.~.=X X[.OXOX3X+X2X9X0X5X1X}.{.!.'. X!.!.=.d.kXp.m.M.sXH X @ $ @ + @ 6 ",
"Y 2 : @ @ . B sXB.iXm.dXf.#.!.~.8.8.J.oXOX3XwXwXeXwXVX1X}.U.8.8.=.G.!.&.d.dXm.iXB.gXH @ @ @ : @ @ = ",
"W ` I 0 9 9 0.tXn m f dXd.&._.H.9.8.J.OXOX3X3X9X9XVXwX9XoX].8.8.8.G.!.&.q.jXf N f uXJ o $ $ # $ @ # ",
"R 5.2.,.{ [ g.iXm.B.F aXu.&.!.K.G.J.I.OXOX1XwX9X7X2X9X2X{.{.!.9.=.!.!.&.q.W.G B.m.sXH X @ @ @ @ @ = ",
":.` w 6 5 3 j tXhXvXB.V.0.#.!.H.'.@X:X:X].:X9X7X2X7X7X@X].}.XX X`.G.A.&.0.V.B.vXpXC.S % + $ : # : = ",
"Q * X . X   n C.tXhXrXiXC.j.A.H.|.{.{.OX].;X7X=X=X7X7X:X].(.)././.;.;.l.M.aXuXkXpXV.V.s X $ @ + : W ",
"9 + # $ @ X s Z Z Z H D F q.;.9.!.J.K.].I.:X-X-X-X-X7X+XP.(.G.9.!.;.z.+.F F D Z Z V B ^ L 9 6 6 I [ ",
"5 # @ @ @ X i B N B B Z g +.;.-.9.K.[.@XI.OX@X+X=X-X2X+XI.}.^.G.;.*.=.#.j D Z Z N B n E _ { ,.} <._ ",
"6 O @ @ @ X n J m.uXiXpXV X.=.T.|.XX{.Y.I.oX0X0X0X4X4XOXI.Y.}. X`.c.=.X.V iXiXiXm.K H : = 9 P ' <._ ",
"6 O # @ @   n m.tXcXvXvXG h *.9.P.U.oX;X4X0X>X0X0X>X0X>X;X;XoXL.J.9.z.h V vXvXcXyXK K , @ @ @ 6 _ [ ",
"w 5 + $ $ . n m.tXbXbXvXJ g #.A.@X2XeXqXqXqXqX0XeXqXqXqXqXeXVXwX%Xc.#.h F bXbXbXaXb.K , @ : % = w ,.",
"W q & + $ o s n S B.B.V.X.u t W.nX&X&X.X.X.XXX;X+X+X=XXX.X.X&X<XnXS.~ p f B.B.B.K M n , @ @ % ; 0 ,."
};
