/* XPM */
static char *result[] = {
/* columns rows colors chars-per-pixel */
"50 50 256 2 ",
"   c #0F7B7F",
".  c #118E94",
"X  c #0D7A7C",
"o  c #129095",
"O  c #0A8B91",
"+  c #09777B",
"@  c #047477",
"#  c #36A3A7",
"$  c #0E8B8B",
"%  c #A5848B",
"&  c #117C81",
"*  c #7B4C4E",
"=  c #FEFFC4",
"-  c #158488",
";  c #CC9751",
":  c #6F402B",
">  c #FDFDBF",
",  c #128F91",
"<  c #06878C",
"1  c #148083",
"2  c #A0797C",
"3  c #947278",
"4  c #895960",
"5  c #D39E4A",
"6  c #DEB046",
"7  c #AB7344",
"8  c #8B494F",
"9  c #CC8F3F",
"0  c #28A0A2",
"q  c #92797F",
"w  c #815154",
"e  c #CB904A",
"r  c #BE7639",
"t  c #A78C90",
"y  c #7C5D60",
"u  c #81474C",
"i  c #F9F9C3",
"p  c #FAFAB7",
"a  c #1E878B",
"s  c #12797D",
"d  c #E1BD56",
"f  c #653625",
"g  c #21999E",
"h  c #159599",
"j  c #9D8A8E",
"k  c #9A7276",
"l  c #936C74",
"z  c #8E666B",
"x  c #856367",
"c  c #915C5B",
"v  c #D0A258",
"b  c #875258",
"n  c #DFB450",
"m  c #AB6B3E",
"M  c #9B5537",
"N  c #90482D",
"B  c #83D7DB",
"V  c #78D2D7",
"C  c #FBF5A5",
"Z  c #F5D879",
"A  c #9D7876",
"S  c #6B7676",
"D  c #047073",
"F  c #FFF06D",
"G  c #DEBF64",
"H  c #D5AC61",
"J  c #8A5855",
"K  c #894E52",
"L  c #D5A751",
"P  c #E3BA48",
"I  c #663F3F",
"U  c #C38A3D",
"Y  c #955031",
"T  c #7A4427",
"R  c #5B2F1F",
"E  c #4A2318",
"W  c #F9F9BF",
"Q  c #5BB6BA",
"!  c #2E9699",
"~  c #208C8F",
"^  c #AA868F",
"/  c #AE8C89",
"(  c #A78282",
")  c #E6C973",
"_  c #F0D365",
"`  c #BC7C49",
"'  c #DCA445",
"]  c #C3833C",
"[  c #7E5038",
"{  c #774834",
"}  c #663B2D",
"|  c #96DEE3",
" . c #51ADB2",
".. c #2D9DA0",
"X. c #AC8F96",
"o. c #099094",
"O. c #F6E276",
"+. c #DAB662",
"@. c #C08B4D",
"#. c #D4A443",
"$. c #8D5E43",
"%. c #D19542",
"&. c #CB8941",
"*. c #BB8041",
"=. c #84472B",
"-. c #763B25",
";. c #74CCCF",
":. c #72C7CB",
">. c #409697",
",. c #1E9397",
"<. c #298D92",
"1. c #508A8E",
"2. c #087F81",
"3. c #F1DB6B",
"4. c #DCAA5A",
"5. c #D9B055",
"6. c #D29D3E",
"7. c #83523C",
"8. c #B6693B",
"9. c #915836",
"0. c #81CBCF",
"q. c #65BDBF",
"w. c #3FADB1",
"e. c #86B983",
"r. c #AB8882",
"t. c #43767A",
"y. c #5F7074",
"u. c #F8E763",
"i. c #E7CC61",
"p. c #D4974C",
"a. c #815B4A",
"s. c #704745",
"d. c #C77C43",
"f. c #7D4242",
"g. c #E5AD3F",
"h. c #88593E",
"j. c #CC973D",
"k. c #5C3C3D",
"l. c #A96436",
"z. c #583435",
"x. c #895132",
"c. c #4F2E23",
"v. c #8FD9DD",
"b. c #68C0C6",
"n. c #F8F3B5",
"m. c #B2A0AA",
"M. c #BA9BA3",
"N. c #F0E59D",
"B. c #A49094",
"V. c #0A8486",
"C. c #FAEA85",
"Z. c #2C7B7D",
"A. c #EBCF7B",
"S. c #637C7B",
"D. c #F4D072",
"F. c #887171",
"G. c #EDB46D",
"H. c #97696B",
"J. c #F1CA63",
"K. c #EBC260",
"L. c #CB985F",
"P. c #ECC355",
"I. c #DAA253",
"U. c #AB7950",
"Y. c #DAAB4C",
"T. c #E2B443",
"R. c #D99B42",
"E. c #C89342",
"W. c #99633B",
"Q. c #B57035",
"!. c #B9FDFF",
"~. c #A1F1F3",
"^. c #A1E6ED",
"/. c #92E3E7",
"(. c #82D1D4",
"). c #59C0C5",
"_. c #47B6B8",
"`. c #48A5A9",
"'. c #B099A3",
"]. c #FAF39A",
"[. c #EBD997",
"{. c #F1DE88",
"}. c #9D7E85",
"|. c #FDED65",
" X c #704E52",
".X c #E5BF4E",
"XX c #9D6D4B",
"oX c #E5A138",
"OX c #A15E33",
"+X c #D07930",
"@X c #ABF4F9",
"#X c #84B7B9",
"$X c #F3EEAF",
"%X c #F9EB96",
"&X c #F2D585",
"*X c #278385",
"=X c #6F8684",
"-X c #F8E17F",
";X c #F5CF7B",
":X c #EBC175",
">X c #DBBE74",
",X c #356D6D",
"<X c #CDA050",
"1X c #F7A44E",
"2X c #9B6446",
"3X c #753B38",
"4X c #D78B35",
"5X c #BB7E32",
"6X c #C5672D",
"7X c #682D1E",
"8X c #A1D6D8",
"9X c #91CED2",
"0X c #95A19E",
"qX c #5F9F9D",
"wX c #7F8589",
"eX c #3E8386",
"rX c #237C81",
"tX c #546D70",
"yX c #CAA968",
"uX c #C2915A",
"iX c #B58655",
"pX c #69CBCF",
"aX c #93C2C3",
"sX c #80ACAE",
"dX c #BDA8AB",
"fX c #86C19E",
"gX c #629194",
"hX c #978582",
"jX c #B9977C",
"kX c #D6B577",
"lX c #776C71",
"zX c #F2C96C",
"xX c #A47C6C",
"cX c #666965",
"vX c #86685C",
"bX c #F8C05A",
"nX c #2F5B5A",
"mX c #505759",
"MX c #E19533",
"NX c #C67C2F",
"BX c #E3F0E6",
"VX c #DFE5B0",
"CX c #94C99B",
"ZX c #C2A488",
"AX c #C6A066",
"SX c #90674E",
"DX c #F3F0D3",
"FX c #A9C9D1",
"GX c #9DB9BE",
"HX c #C2E5B7",
"JX c #BFE3B4",
"KX c #93CBAA",
"LX c #9ED19D",
"PX c #6DB19D",
"IX c #E3DF89",
"UX c #E8AD5D",
/* pixels */
"      s   0.# g ,.O . . o - s     + ! /.h O o.o.$ & - o.g ~.~.,.$ & @ Q v.# (.w.O o . . $ s         ",
"    & @ `.q.2.# h . . . o , 1 s   @ ,.^.>.1.=XS cXcXS S.0XaX8Xb.$ D  .9X1 D Q V < < . o $ s         ",
"      + :.! @ ..h . . . . o - X 2.*X=XhXa.: f R -.=.7XR f : a.j qXq.v.1 + 1 g ;.V # , < $ s X       ",
"    X & 0.~ X ! , , . . o O $ *XS.a.f E [ [ c.E $.U.} E } $.: E { / qX+   , _.o Q B v.V ,.+         ",
"    X 1 0.a 1 <.V.~ t.. O g >.vXT [ s.c.h.XXXX{ f } f $.XXXX} c.[ -.7.S ~ w.).>.,Xo.0 :.v.- +       ",
"X   s & (.! <.1 V.eXF.! ).sX$.E E h.$.E h.} E 7.7.{ h.: E h.} } XX: E : F.! o.gXlX,., $ |  .+   + X ",
"1 X +   ^. .    1 y.k #X0X[ : a.: [ : 7.7.R c.R x.9.T c.c.: $.{ { [ [ h.-.y *XwXz >.0 ~ (.V a <.a - ",
"<.a 1 :.!.B & @ s y % q : E : 2X$.7.[ R SXh.R : x.9.-.f f U.: : 7.$.2X2XR 7Xa.B.k tX2.D  .| + X - ~ ",
"+ <.0.| ,.:.| `.1.4 % t f } c.f [ { 7.R f T W.T 9.W.=.x.9.T R { x.9.x.: } f J m.H.lX1 @ # !.:.~ + D ",
"v.^.0.a @ 1 ~.!.0X4 y '.vXXX[ { f 7Xx.W.T W.9.N 7 @.OXY W.x.x.7 =.=.T $.U.U.r.t * l Z.D :.!.^.^.B ;.",
"b.! @ X &   | Q lXJ * X.F.: { E T iXm m yXkXiX*.E.n *.7 AXyX@.l.iX@.-.T m =.M.xXa.H.t.w.| # 1 <. .b.",
"- + X X + - B eXx s.f H.}.R R -.AX> n.U.v n.+.%X$XN.n.) >XN.Q.kX= C ; =.T $.dXh.: J q :.- @ X + D @ ",
"g $ $ $ - ,.0.S z y a.vX^ * R 7 H [.].v Q.A.K.].= = > ) ) 4.r A.C ) +.OXT jXZXSXa.z 3 t.&   s   1 1 ",
"# , . o O ..F.4 l q q q q A : yXn.; p.[.[.v ) 4.%XC ;X4.) yX$XkX9 >X$Xl.U.ZXjXr.( 3 l 4 ,X2.1 , o , ",
"# . . . O (.gXz.c.z.z.z.z.I -.m L.Q.r v ; +X9 NXMXoX4X&.R.R.UXI.NX; p.Q.M 9.{ 3XI z.z.mXrX$ o o . . ",
"_.g O < q.9Xh mXs.z.3X} s.} =.L.>X>X) G :XA.) A.D.D.D.Z Z Z D.A.;X) :X; Y 2X7.f.3XI  XrXh . . . o . ",
"# 0 w.;.@X..< y.2 w f.u 2 * T L.[.p = = = = > > = = = = = = = = > C &Xe N jXxX8 f.H.2 rXo o . . < h ",
"V B @X!.~..., tXk 4 H.u 2 * N OX*.+.A.C = = > > > > i > > = p %XZ i.9 ] Y r.xXc H.z 2 *XO < < g ).B ",
"w.# ~  .| # # S 2 y y * ( * Y OXU.+.+.G A.{.$XW > > = p N.C.3.i.i.G r &.N r.A J 4 z % #XV ).;.v.;._.",
"@ X + D b.`.@ S % * u * % * Y OXiXH >XG Y.+XP.p > > = ].oXg.i.) G +.r ] N ( A u u z j qXV !./.g < 2.",
"&   & @  .q.D S % w b w % * N M uX; G G 5.+XP.p W p i ].oXR.G ) L v ` Q.N ( A K K z B.Z.0 | ~ + &   ",
"    & @ # q.@ S % w 4 w % * 9.l.uX` ; +.5.4XJ.p W W i ].oX#.+.+.d.; ` *.N ( A b w z B.D b.`.D &     ",
"    & @ `.q.@ S ^ b u b % * W.7 uX` 8.d.4.R._ p i > i ].6 5.; d.8.L.` e Y ( 2 8 u l j Z.B a X       ",
"    & D  .0.D S ^ 4 8 b % w m 7 7 H H H G R.3.p i > i C P 5.+.v H L.l.; M ( 2 K 8 3 j Z.V - X       ",
"      + a | >.y.^ b 8 b % w W.@.8.Q.` @.; #.3.p i W i C .X5 uX` ` m ` ; Y ( 2 8 8 l j Z.V - X       ",
"      & @ # ^.wX% 4 8 b t w 7 L.5 L &.U U ' O.p i > i C P.9 *.] e L ; H M r.2 K 8 l j Z.B a X       ",
"        X - /.0X% 4 u b t J 7 v 5XU j.5 n 6 O.p W W W C d ' L 9 E.5XU H M / 2 K u 3 j eX/.a +       ",
"        X a (.=X^ 4 u b t J 7 v ] %.5 %.j..XO.p W W W C i.#.5Xp.%.9 U H M / 2 K u k hXsX~.- X       ",
"      & @ ! :.y.X.4 8 b t c 7 ; 9 5 4.4.#.T.O.p i n.n.C d 6.9 4.I.9 9 v M / A K 8 3 j 8X/.&         ",
"X X   X @ V Q tXX.4 8 b t J 7 L E.L Y.Y.6 T.3.N.n.$X[.%Xd 6.%.#.I.5 E.H M / A 8 8 3 B.8XQ @ &       ",
"1 - 2.s q.@XB wX^ 4 8 K t K 7 L j.6.d d 6 P 3.&X{.N.&X{.d #.6.d 5 j.j.H M / A 8 8 3 B.9X..@ &     X ",
"a   # v.;.# 0 =X^ 4 c w t J m <Xj.6.i.i.6 6 3.C.{.-X&XZ n 6.Y.3.5.U E.<XM / A J c l B.aX~ X       a ",
"@ ! B ..$ .., S.^ b s.w t K 7 <XE.U Y.P T.T._ D.C.{.[.N.5.6.6.n U ] e v M / 2 u f.l B.#X- +   X <.a ",
"& 0.! < o o h =X^ 4 c u t J 7 <X9 5 9 6 T.P J.1X-X{.DXi n #.R.%.] 5 U v Y / A K c l j aX_.2.X <.a + ",
"q. .< h . . O S.% z k w t c 7 <X&.5.Y.n 6 P J.1X_ C BXVXn #.5 L I.5 ] v Y / k z H.l j qX@XB b.Q + X ",
"Q V.o . . . O S.% w * * X.c m e @.H G G n P J.1X_ i BXIXd #.5 4.4.; *.; Y / k * * l j >.~./.B | :.Q ",
"+ $ . . . . $ S.^ w f.u X.c m p.*.; p.I.' .XJ.1XbXN.VX_ d ' e &.@.` r ; Y r.A u f.l j #Xw.$ , ~ `.>.",
"- . . o . o $ S.^ * 3Xf.X.c m 5 5Xe 5 I.6 P J.1XbXZ C.O.d #.5 e @.r 5Xv N r.k f.3Xz X.>.O . . O 2.~ ",
", . . o . o V.y.% 3 }.x t c l.e e I.p.4X.XP _ bX3.O.3.O.d 6 %.d.e ; U e N r.3 3 }.q X.>.o.. o o , 0 ",
"h h . O . o 2.y.( x 3 y % c l.&.9 6X+X4XP P _ O.O.C.O.-Xd 6 %.6X6Xr &.*.N ( F.x F.F.t #X0 O O O , 0 ",
"0 ..# g . o V.y.2 k.I k.% J m e 9 +X+X4XP P _ _ Z Z -X-Xd 6 %.6X6Xd.] e =.2 x k.k. X% 8X@X(.V # h Q ",
"< < h # g < O y.( q j x A K l.&.9 &.' 6 .Xg.J.Z Z zXzXZ n 6 L 5 d.] ] d.=.k z q hXq % 9XpXw._.;.b.g ",
"_.).pXpXV )...cX2 X.dX3 k J OXU U L G K.P.' K.;X:XzX;XD.Y.' n 5.L E.] *.=.k 3 X.m.}.k 1.o.< < ..Q ;.",
"w.# 0 0 0  .wXx x 3 q q q 3 2Xr &.L ' ' 6 ' i.;XG.G.:XZ 6 R.%.9 p.e r m c 2 3 q q l x x Z.o.0 0 < 0 ",
"V.< O O O O nXk.k.I I I s.I 9.r r d.NX9 6 MX.XG.G.G.G.D.g.6.%.r r r 8.8.{ s.s.I I I k.k.rXo.# - - V.",
"  s - o . o , mX X Xy y y I Y 8.Q.@.5 n P.MXg.K.K.K.G.K.oXoXn p.e *.l.8.-.* x x y  X X,Xo.g <.X   X ",
"    X $ o , ,.S y 3 '.'.'.* N 7 @.5.n T.g.g.P.|.|.|.|.u.T.g.g.' 5 ; ` m -.k m.'.t x y 1.0 ! X       ",
"    X 1 , . ,.S y }.m.m.m.w -.8.r j.6 P._ u.|.u.u.u.u.u.|.u._ d j.r 8.M f }.dXm.'.z y gXh           ",
"      s $ O # q * 2 M.M.M.w 7XM L.&XC.F F F F F F F F F F F F C.%X:X7 N 7X3 M.M.M.4 4 t.$ s         ",
"        X g ;.1.t.t.1.1.1.,XnX,XPXKXCXHXCXe.e.e.e.e.e.e.e.LXJXfXfXfXeXnXtXGXFXsX1.t.t.*X$ s         "
};
