/* XPM */
static char *result[] = {
/* columns rows colors chars-per-pixel */
"50 50 256 2 ",
"   c black",
".  c #107B7F",
"X  c #0E7B7E",
"o  c #0D7A7D",
"O  c #020303",
"+  c #108E95",
"@  c #128E95",
"#  c #139097",
"$  c #108D93",
"%  c #117A7E",
"&  c #0B787B",
"*  c #0E7C7F",
"=  c #117C80",
"-  c #118F95",
";  c #060606",
":  c #040505",
">  c #0D8B91",
",  c #087679",
"<  c #118A8A",
"1  c #07888F",
"2  c #127D81",
"3  c #168286",
"4  c #027174",
"5  c #118F90",
"6  c #04868A",
"7  c #128083",
"8  c #0E7F81",
"9  c #333232",
"0  c #129093",
"q  c #0C8D90",
"w  c #037577",
"e  c #067277",
"r  c gray18",
"t  c #088B90",
"y  c #131413",
"u  c gray4",
"i  c #2C9D9F",
"p  c #1D999A",
"a  c gray25",
"s  c #171818",
"d  c #101110",
"f  c #1D9B9F",
"g  c #199594",
"h  c #0D8D93",
"j  c gray27",
"k  c #3D3D3C",
"l  c #343535",
"z  c #1B1A1A",
"x  c #0D8B8E",
"c  c #108E8D",
"v  c #1F878B",
"b  c #0D868A",
"n  c #1C8488",
"m  c #383737",
"M  c #212120",
"N  c #0D0C0D",
"B  c #050000",
"V  c #78D2D7",
"C  c #73CFD2",
"Z  c #2C9FA2",
"A  c #189599",
"S  c #1F8E91",
"D  c #248A8F",
"F  c #118585",
"G  c #393A3A",
"H  c #2A2828",
"J  c #041718",
"K  c #8FDDE1",
"L  c #6BC7CB",
"P  c #3FA0A5",
"I  c #179298",
"U  c #119295",
"Y  c #129292",
"T  c #068A8C",
"R  c #148589",
"E  c #108285",
"W  c #097D7E",
"Q  c #11787B",
"!  c #2D2C2C",
"~  c #2A2524",
"^  c #96DFE4",
"/  c #72C9CC",
"(  c #4AAEB2",
")  c #35A7AE",
"_  c #38A6A8",
"`  c #2FA4A4",
"'  c #289DA3",
"]  c #269E9F",
"[  c #259A9A",
"{  c #11969A",
"}  c #119398",
"|  c #258E91",
" . c #109190",
".. c #0B888E",
"X. c #0B8B8B",
"o. c #17878A",
"O. c #0A8288",
"+. c #0F7174",
"@. c #0A3C3D",
"#. c #A8F2F6",
"$. c #A4E6ED",
"%. c #7ED7DC",
"&. c #81D0D2",
"*. c #7ACCD0",
"=. c #3CA9AD",
"-. c #2FA4A9",
";. c #26A1A8",
":. c #2297A0",
">. c #138B90",
",. c #0C8383",
"<. c #0C5255",
"1. c #09292A",
"2. c #252626",
"3. c gray14",
"4. c #1E1D1D",
"5. c #0D1616",
"6. c #B7FFFF",
"7. c #95E5EA",
"8. c #9DE0E4",
"9. c #8BDADE",
"0. c #84D5DA",
"q. c #6DCACE",
"w. c #6BC1C7",
"e. c #5CC1C5",
"r. c #4BB7BA",
"t. c #45B3B3",
"y. c #3EAFB0",
"u. c #4EABAF",
"i. c #36A3A8",
"p. c #2CA3A3",
"a. c #359FA3",
"s. c #3A9A9F",
"d. c #1C979D",
"f. c #22969A",
"g. c #2F9298",
"h. c #1F9597",
"j. c #2D8E93",
"k. c #169092",
"l. c #057A7B",
"z. c #106C6E",
"x. c #075C5F",
"c. c gray36",
"v. c #074E50",
"b. c #2A2B2A",
"n. c #92E1E4",
"m. c #96DBE0",
"M. c #90D6DB",
"N. c #89D4DA",
"B. c #7ED3D7",
"V. c #7BCED3",
"C. c #74C4C9",
"Z. c #5FC4C7",
"A. c #65C1C6",
"S. c #59BFC5",
"D. c #50B7BA",
"F. c #61B4B9",
"G. c #44AEB3",
"H. c #55ABB1",
"J. c #2DA0A7",
"K. c #27A0A0",
"L. c #188D96",
"P. c #0E8E8B",
"I. c #0E8989",
"U. c #057C82",
"Y. c #09777E",
"T. c #5B5A5A",
"R. c #555555",
"E. c #0A4446",
"W. c #1A3434",
"Q. c #063133",
"!. c #ABF6FC",
"~. c #A7EBF0",
"^. c #85DCE0",
"/. c #85D8DD",
"(. c #89D0D5",
"). c #6CCDD0",
"_. c #66BEC2",
"`. c #63BABE",
"'. c #59B5B9",
"]. c #53B1B7",
"[. c #44A7AC",
"{. c #30A8A7",
"}. c #4CA3A7",
"|. c #239B9F",
" X c #2F999C",
".X c #2E9799",
"XX c #168E8C",
"oX c #018486",
"OX c #048684",
"+X c #006E70",
"@X c #4C4848",
"#X c #223C3D",
"$X c #1E2C2D",
"%X c #000E0F",
"&X c #A4F0F4",
"*X c #9DEFF1",
"=X c #8CE2E8",
"-X c #85C9CD",
";X c #79C8CD",
":X c #5FBFC1",
">X c #6DBBC1",
",X c #59BABF",
"<X c #5BBEBE",
"1X c #45B4BA",
"2X c #5AAFB5",
"3X c #16969B",
"4X c #1E8084",
"5X c #048081",
"6X c #0E575A",
"7X c #55514F",
"8X c #4C4C4C",
"9X c #0B494C",
"0X c #153D3E",
"qX c #102122",
"wX c #021E1F",
"eX c #261516",
"rX c #100A09",
"tX c #B8F7FD",
"yX c #9FE4E6",
"uX c #7AD6D8",
"iX c #76CBCB",
"pX c #6EC2C9",
"aX c #38AEB3",
"sX c #239EA4",
"dX c #459BA0",
"fX c #5E9297",
"gX c #259195",
"hX c #2A7478",
"jX c #086366",
"kX c #226464",
"lX c #156062",
"zX c #1B4547",
"xX c #2B4243",
"cX c #2A3736",
"vX c #150F0E",
"bX c #C6FFFF",
"nX c #B1FAFD",
"mX c #99E8EC",
"MX c #78BEC3",
"NX c #6AA7A6",
"BX c #669E9F",
"VX c #215558",
"CX c #1C100F",
"ZX c #47C2BE",
"AX c #82B9BB",
"SX c #439092",
"DX c #398486",
"FX c #5E7476",
"GX c #3F6A6A",
"HX c #436769",
"JX c #495F62",
"KX c #405556",
"LX c #3B4E4F",
"PX c #364B4B",
"IX c #424B47",
"UX c #48393A",
/* pixels */
". . * % * -Xi.:.g > - @ - o.% X . ,  Xn.d.$ + 5 F Q 3 q g #.&XA < 2 w F.m.P (.G.t # @ 0 < % . X . X ",
"X . = e }.>XU.) A > @ @ - 5 7 o . & S 7.f > # Y o.% U.} N.%.K w.OX4 H.(.3 +XF.V T T + 0 < % . * . * ",
"X . X Y.C..X4 Z I $ + + @ U o.= 7 w u.6.).1 1 6 W e i.^.C  .0 &.L `.M.7 & 3 ] C B._ k.T I.% X X . X ",
". . o 2 V.D & g.c 5 + @ @ q < o 4 j.~.=Xn.9.q.e.:X&.*.-.|.Z 6 5 &.bX( w o >.t.U D.%.9.V h.& . . . . ",
". . & 7 &.v 3 | ,.0 + + t d.p..X`.8.1X1 f S.S.e.].s...t c ( a.q |.AX<.= p ) <X' 6 q K.L M.3 & . = . ",
"o . % = &.g.j.2 8 0 $ 5 A.n.K /.>X[ t $ d.:.6 O.4 , < # x _ y.:.a.-XqXJ hXf x i.-.p k.X.m.u.& . & o ",
"7 o & . $.u.* . = 0 t A.&.f.} # 6 > - > Z g U < % . < - q [ p X.3 7.fX    v.{ $ p ] ] D B.V v j.v n ",
"j.v 4XC.6.0.2 w , oXK.n.A ..$ $ - - x ' Z P.5 8 X o < - > p p P.F &XNX  :   v.{ h X.W 4 ].^ , o 3 D ",
", | -Xm.h.iX^ }.P ( mX!.' ..# $ @ > |.` x - < o . o b # q i g OX<X=Xz.  O :   v.A 7 = e s.tX/ S l.4 ",
"M.$.*.n w 7 &XtX^ m.^.7.8.-.h - > h.-.c $ Y E o X o R # t ] } ,X^ ;.<.  O O O B E.8 = 4 / 6.~.$.N.*.",
"_..Xw o = . ^ ].b # h > <Xn.q @ @ _ g h U < o . . . Y.1 Z Z.7.#.' t 1.  O O O     E.l.u.K s.3 | H.A.",
"n , o o & n N.S h $ + $ q ^ t.oXg f...$ 5 8 o . . e g.C K V V.~.G.b wX  O O : ;     fX0.F w o & 4 4 ",
"[ I.X.X.I.S 9.d.h - @ @ > =.yX/ S.;.3Xh.7 & 2 X w F.M.u.f J.oX=.yXi J   O     O :   $XQ W = % = 7 7 ",
"{.k.+ # t _ K # $ - @ + @ x f :X7.$.L v D v 4 * pX0.>.l.,.i.[ 5XZ.BX  : O O O O       @.2 o 7 >.U 5 ",
"i.L.+ L.t (.<X1 @ - + + + - 1 { ) i 8.P 8 g.u.-Xw.z.v.6Xe ,.) f * $X  O   O     %XGX4X+.F c 0 # + + ",
"1X:.1 T _.(. .5 @ @ + + $ 0 X.a.|.U.2XnX*XN.;XDXwX#X! b.xX#XhXVX:   ; O   O   Q.O.^.{.+ # - + @ - + ",
"{.p.aX/ #.Z ..# @ + + @ - h  .a.# R D ~.C.% 4 <.2.j a k m k a m 4.d     O   1.I } *._ 1 L.# @ $ 6 A ",
"V 0.#.bX*XZ k.x h $ $ > > I _ p } +.6XxXW.#XW.9 R.R.l G r b.r l r a G z     lXp.` e.9.A 1 1 ..p ,X/.",
"G.a.D ( ^ ` _ i | S I :.=.].p +.@.M 9 M r 7X8Xc.c.T.T.T.a T.T.j r 8XR.! b.8XVXb g :.L K ).S.C 9.C 1X",
", o & +Xw.[., n 4X3 3 h.p aXz.s ~ m k c.r z G m a @Xj c.R.j l z s d : : y H cX9X>.- I.[.uX6.=X:.1 U.",
"= % 2 w ( `.e o o o & o U +.s ~ a j j c.4.y 4.H k @X! 4.u O         s r : J 6XE.+.5 S S K.^ S Y.= % ",
"* X = e P _., = . . X 8 jX5.~ G l j a 9 N 9 j j 2.d           O   M k M M W.<.& = Q j.o >X}.4 2 X * ",
". X = e P `.w = . % E x.5.~ k m ! k a s r G 2.z u     O     O   z 9 u 4.j j 9 0Xe 3 v E 0.o.o . . . ",
". X 2 4 ( V.w % . E x.5.3.G H ! 9 G m ! 9 s s s u   O       O   u u 2.G k R.c.m @.% n 3 B.R o . . X ",
". * % & n m.P W o v.5.~ a 4.N b.a G G 3.3.a M : O O               ; b.9 l l k 8Xm 0X% o.%.R & . . X ",
"X . 8 7 l._ 8.hX1.M 3.b.y   : b.m l 3.H l l u O : O O             : d s r 9 r k c.k 1.Q.BXS & . . X ",
"X 8 <.@.jX6XPX! H M N B O wXO z r H 9 9 9 2.; N u   O             ; ; N d 4.! a @Xa y CXKX3 o . * . ",
"8 8 J B d z vXvXB %XJ E.z.x.O ; H m ! l l s : : 2.r d ; ; ; : N   : ; ; B d s r m 9 3.d k lX8 . . X ",
"+.@.5.M z y qX1.v.Q # { 9Xu O O y 2.9 r z u O   u z H r y ; ;   ; N   : %XB N N M ! s : l #X+.8 . X ",
"z.J M d Q.NXF.e A { b @.B N ;   ; y z s y :   O   wX@.3.~ H H r ~ y xXSXn 0X: ; ; u :   H a x.E % . ",
"Q W.~ 5.H.6.K ( +.E.J   : d ;     u y d d O B   J z.< x.9X1.W.#X0Xx.A.V 3X>.9XO B   y   y 7XzXX . & ",
"lXrX2.fX*.a.` dXLXm B ; u ;   O     N s ; : E.v., 3 | o.,.,...O.6 y.^ J.1 @ 3X<.: ; z 3.z j l x.E n ",
"jXkXMX` c i g E JXj 5.qXJ J O     O N y vX@.O.F * o = D v h.} f e.9.r.$ @ $ - { Q.rXd 4.@Xk 9 Q.D v ",
"8 B.i 1 0 # f | zXHXE > >.$ z.1.O   ; u zXe.& & % X X 8 XXY e.K q.sXJ.q # @ $ # = %XM eXUXT.7XcX2 o ",
"`.H.6 I @ + $ + b q.sXb >.- { { kX5.Q.+.W u.dX, = X * XXq G.;Xd.p D.p T h h $ > { <.CXeXeX@X7XqX, o ",
"F.O.U @ + + + # 6 '.}.+X2 < 0 + } iX;.} o gXw.Y.. o E  .1 / y.6 U Z.=.i f.[ K.] {..XJ B eX~ ~ $Xw.,X",
"l.x @ + + + 5 XX, gX0.| w 2 L.q Y ^.) c F 3 A.7 . * c # OXD.r.OX` y.J.L.i r.t.f t 1 R $X  rX9 $XdXs.",
"F 0 $ - @ - c X . l..X(.[., 5Xg V.D.K.Y I., '.a.+X8 Y @ T C =.p p.W e [.V.w.w./.q.-.V }.  y IXG <.gX",
"$ $ @ - + - b Q * % , v / ;X:XV r.X.{.# < & D C.'.[ X.6 G.*.I Z F e H.V.R , w S :X*X6.1X1.B cXR.W.[ ",
"I A + > @ Y ,.o * X = & w *.$.f.1 I ;.- c 8 & 3 2Xn.%.uXyXi ] h.e  XN.o & 2 . W oX-.#.7.n %X  rX@.p.",
"] ' ) f $ 0 < o . * X 2 e [.L O.- k.f.h  .,.% , o.$.!.!.#.f i.< e C.P e 2 * . o < t L 6.#.MXFXkXI ,X",
"6 6 A -.f 6 h o.& X X = , g._...+ i g h 5 F o v M.].d.3X/ L [ W g.iXY.* . . . % < T B.!.A.t.ZXV L |.",
"D.S.).).uXZ.i c 7 % * 2 4 ( pX5Xg J.0 $ @ XX4 F.2XU.c t q 0.D.l.;XP , = X . X . OXt.8.i 1 1 oX X'./ ",
"y.) Z ' Z G.C e.k.o o w n 8._.+XXXf.> @ - 6  X*.* b U # 1 _ K L C.& = . X . . 2 Y ^.` b # q ' K.T J.",
"O.b q > > 1  ./ y.i v ( $.tXm.H.i ] 5 $ t t.B.g., F  .+ $ A *X#.S & . X X * % 5X).Z.1 L.+ 5 ` R R O.",
"% Q R # + # T r.%.V &.8.'.s.P >XM.C  .x q.C g Y.% ,.5 + $ } 7.Z.U.% * . X = , =.N.U $ q X.[ | o . o ",
"* * o < # 0 t r.~.%.S.3 4 2 R 4 n &.V C pXT q < % X c - $ I 9.) O.% X . X % 7 K i.6 # p Z  X& . . . ",
". . o 7 5 @ x L y.' 6 P.= X D 4Xw o./.nXf > # >.= o I.# > sX/.;.P.7 W X 2 4 2Xq.x ' ` =.g . X . * * ",
"X . X % < t =.q.p.A + Y b & 2 D j.P f.mX;.> + 0 3 o E # ..;.%.# P.8 X = , j.$.t.-.] Y x < Q X . X . ",
"* . * X o d.C ) p.x @ # 5 % o W | s.:.=X;.> @  .F Q 2 # > aX%.# P.* . & s.&X!.r.k.> + 0 < Q . . . X "
};
