/* XPM */
static char *result[] = {
/* columns rows colors chars-per-pixel */
"50 50 246 2 ",
"   c #020202",
".  c #0B0203",
"X  c #0D050A",
"o  c #080B08",
"O  c #0C0C0C",
"+  c #130204",
"@  c #1C0105",
"#  c #110807",
"$  c #150309",
"%  c #1D040B",
"&  c #140A0B",
"*  c #1A0B0D",
"=  c #10100F",
"-  c #0A0D11",
";  c #1C0D10",
":  c #0E1313",
">  c #131313",
",  c #1A1416",
"<  c #1D1718",
"1  c #171A1A",
"2  c #1C1C1C",
"3  c #240306",
"4  c #2B0206",
"5  c #260905",
"6  c #2C0806",
"7  c #24050C",
"8  c #2B050B",
"9  c #25080C",
"0  c #2A080C",
"q  c #330205",
"w  c #3A0105",
"e  c #3B0905",
"r  c #33030A",
"t  c #3B020A",
"y  c #34090B",
"u  c #31140E",
"i  c #240611",
"p  c #2A0511",
"a  c #220C11",
"s  c #290810",
"d  c #281519",
"f  c #221D1D",
"g  c #1E201F",
"h  c #37211E",
"j  c #191E21",
"k  c #1E2123",
"l  c #232424",
"z  c #292625",
"x  c #2D2925",
"c  c #252C2C",
"v  c #2C2C2C",
"b  c #352627",
"n  c #342C2D",
"m  c #322F30",
"M  c #2A3234",
"N  c #333333",
"B  c #383838",
"V  c #3C3C3B",
"C  c #430205",
"Z  c #4B0205",
"A  c #440B06",
"S  c #4D0A05",
"D  c #420209",
"F  c #4C020A",
"G  c #410E0A",
"H  c #4C0B09",
"J  c #540506",
"K  c #5B0405",
"L  c #530806",
"P  c #5B0C05",
"I  c #540309",
"U  c #5C0409",
"Y  c #550B09",
"T  c #5C0B0A",
"R  c #441108",
"E  c #581509",
"W  c #441C18",
"Q  c #620405",
"!  c #6B0505",
"~  c #650C06",
"^  c #6E0D06",
"/  c #630509",
"(  c #6C040A",
")  c #630A09",
"_  c #6C0C09",
"`  c #730506",
"'  c #7B0506",
"]  c #740E06",
"[  c #7B0D05",
"{  c #780709",
"}  c #740909",
"|  c #641206",
" . c #6C1105",
".. c #63140B",
"X. c #671609",
"o. c #771305",
"O. c #7B1306",
"+. c #74140A",
"@. c #7C130A",
"#. c #751909",
"$. c #7F1D09",
"%. c #720F10",
"&. c #691110",
"*. c #5E2E2D",
"=. c #443A39",
"-. c #3E423F",
";. c #3F3F40",
":. c #4D3F42",
">. c #3E4945",
",. c #434343",
"<. c #474647",
"1. c #4C4B4B",
"2. c #4E5353",
"3. c #545454",
"4. c #5B5252",
"5. c #5A5A5A",
"6. c #5D605F",
"7. c #5F6363",
"8. c #616161",
"9. c #6D696A",
"0. c #880906",
"q. c #8B0B06",
"w. c #840A09",
"e. c #980E07",
"r. c #851405",
"t. c #8C1306",
"y. c #8E1B06",
"u. c #841309",
"i. c #8A1409",
"p. c #821A0C",
"a. c #8B1D0B",
"s. c #961205",
"d. c #9A1606",
"f. c #941B06",
"g. c #9D1B04",
"h. c #95130D",
"j. c #9A140B",
"k. c #931C0B",
"l. c #9A1C09",
"z. c #951912",
"x. c #A41306",
"c. c #A31C05",
"v. c #AB1B03",
"b. c #A6150B",
"n. c #A9170C",
"m. c #A31D0B",
"M. c #AC1B0A",
"N. c #B71806",
"B. c #B41D05",
"V. c #8B220B",
"C. c #8A250A",
"Z. c #93210D",
"A. c #9B220B",
"S. c #972908",
"D. c #9F3106",
"F. c #972711",
"G. c #A42105",
"H. c #AB2C06",
"J. c #A4240B",
"K. c #AD220A",
"L. c #A52C0A",
"P. c #AD2A0A",
"I. c #B22506",
"U. c #B42D05",
"Y. c #BB2A04",
"T. c #B5240C",
"R. c #BB250A",
"E. c #B52B09",
"W. c #BB2A0B",
"Q. c #BE330C",
"!. c #B8390B",
"~. c #AE2A11",
"^. c #B12B10",
"/. c #B73612",
"(. c #C41A08",
"). c #D31A07",
"_. c #E31909",
"`. c #C32505",
"'. c #C32A06",
"]. c #CC2B06",
"[. c #C92508",
"{. c #C42B0B",
"}. c #CD2C0C",
"|. c #DB2B06",
" X c #D52909",
".X c #DB2C0B",
"XX c #C33706",
"oX c #C83507",
"OX c #CE3B05",
"+X c #C3320B",
"@X c #CB330A",
"#X c #C43A0A",
"$X c #CC3C0B",
"%X c #D33407",
"&X c #D3330B",
"*X c #DB330B",
"=X c #D33A0B",
"-X c #DB3908",
";X c #C13411",
":X c #CB3311",
">X c #C83811",
",X c #E42C07",
"<X c #ED2D0A",
"1X c #F92A0B",
"2X c #E43606",
"3X c #ED3A06",
"4X c #E4340A",
"5X c #EC3D0B",
"6X c #F63A07",
"7X c #FE3C06",
"8X c #F23C09",
"9X c #EC3911",
"0X c #F03210",
"qX c #CD410A",
"wX c #D64408",
"eX c #DC440B",
"rX c #DA4A0B",
"tX c #DA4612",
"yX c #E54406",
"uX c #EB4306",
"iX c #ED4B07",
"pX c #E44708",
"aX c #EC430A",
"sX c #EC4C09",
"dX c #F34D06",
"fX c #FC4C05",
"gX c #F64709",
"hX c #F2460C",
"jX c #FD4B0B",
"kX c #EA5608",
"lX c #F45306",
"zX c #FF5205",
"xX c #F2530B",
"cX c #FC540B",
"vX c #F75B08",
"bX c #F95A0B",
"nX c #E74311",
"mX c #FA4610",
"MX c #FF6405",
"NX c #FE6109",
"BX c #F86709",
"VX c #FD7E06",
"CX c #FF740C",
"ZX c #FE7D0A",
"AX c #FC8608",
"SX c #FA9009",
/* pixels */
" XL.P D 8 5 9 7 9 6 7 ~ 5XP 4 0 p 8 8 y r y ! 6X7XfXxXj.S r t F ( 2Xx.q s 9 7 p i 7 p 7 9 9 8 R [ kX",
"rXc.[ o.L D 6 q D w C G.-XF * 8 8 9 s 8 y 4 ^ 0X(.|.I.w.&XQ.;XtXrX.Xq.5 8 9 7 7 i 7 7 7 5 7 H t.{.SX",
"AX3X|.OXg.` } s.v.Y.qXBXlXk.t 3 7 5 8 8 4 w R.<XQ 0.6XT.V.#.~ L.dX[.e.t 7 5 7 7 7 9 7 9 7 I U.kXZXAX",
"O.y.].vXdX,X3XvXlXOXXXU.E.=X@XG.r.K t C [ {.<X1X_.,XQ.S 4 4 7 r (.zX%XK y 3 3 i 5 3 9 t o.rXbX-XG.o.",
"3 @ w ~ I.dXMXkXo.w r 4 4 D } J.&X5X=X%X2Xm./ { ).3XL y t y y y P.jXyX%XK.^ ~ H r w ( I.bX$X_ C t % ",
"9 9 9 9 4 y.vXXXw 9 9 9 7 9 % 4 r +.&XjXw.3 4 7 D {.Y t y y 8 Y ;Xw.P u.M.{.4X X[.[.uXtXt.w 7 i 9 7 ",
"7 7 7 8 5 Z -XOXt 9 7 9 7 7 9 7 7 3 Y N.w 4 8 y % J.h.4 q r F /.@.4 9 7 i t K t.|.MXlX` 4 9 9 7 7 7 ",
"% 7 % 9 7 % O.4XD 7 7 7 7 7 % 3 7 4 P j.7 7 7 8 % ^ aXJ.a.A.rXQ.w 8 s s 8 7 9 8 ` uX].C 7 7 7 7 7 7 ",
"% i % i 7 7 D ]._ % 7 7 9 9 % 9 7 3 ] [ @ s 7 7 % L bXyX&XcXCXf.4 s 8 7 7 9 0 9 w {.I.3 8 i 7 i % i ",
"% * i 7 7 % A 4XM.q 3 7 9 9 3 % + d u b , + 7 8 % ..R.I q P S.J r 8 7 7 7 7 7 0 4 k.l.7 8 7 7 7 % * ",
"% % % % 7 3 #.gX&XW.o.Z 4 8 + , v V <.8.5.N & & . ..| . g v M 2 + % p 7 7 7 8 0 7 y.R.4 9 9 % % % % ",
"% % 3 % 8 U {.f.t E J.$XP.q 2 3.,.2.8.8.9.5.N 1 - & X 1 N V V V >.2 . 7 s 7 0 0 3 c.].q 8 7 9 9 % % ",
"9 % 3 q Q `.$X4 * % 7 '.X.k B V ,.<.5.3.<.3.3.V <.B k n N m B -.>.B z * @ 8 0 7 F nXiXQ 9 7 7 7 9 3 ",
"w t  .y.XXBXBXP 7 4 4 q k M l v v <.,.V v l z N z l l v <.1.<.m m N N V m * 4 ] &XdXxX*X^ 4 4 7 4 r ",
"Y.{.jXC.# S.U.A.P 9 , M M l z -.B :.N n 2 > > O = 1 z 2.3.V N B v B N V 5.B d g.(.Q J [ [.B.` ( s.B.",
"f.u.K 4 O - 1 f x B V v l   1 V V >.V v 1 > > > 1 z B ;.<.c N B v V N B z <.3.V % + 3 7 w m.5XgXN.c.",
"3 % . > f 2 c c v 2 : o     o m N >.m m j > X - > v v B 3.V 1.N O l c N N V 6.7.1 l h 7 9 4 l.*XZ 8 ",
"8 7 * v X + + $ .     w ^ @ o N N V V c 1 = o . 1 N m >.B V :.> o O > < c V <.<.1 f 6.i 4 3 L T.D r ",
"8 8 * = @ 7 % % 7 % 9 5 A +   z N B V l >   o   > B V N m N <.o     o O & > l m >   1.,.3 y L (.S 8 ",
"p s 7 7 7 % 9 % % % .         = z B v 1 o     O O N B m V V 2.:               o O   f 3.a q L |.Q q ",
"t y 7 7 7 % $ $ & .     O     o > l 1 O .       o j ;.B N m ;.l         . @ .   = , # V z 4 ` 3Xw.r ",
"L t r q w t q b <.    O O       O > > o       . . > V >.V N v c         . c.#.. o z n =.<.4 (.fX*X( ",
"&X(.K.c.K.m.p.W N G H             > O   .     3 @ , N V :.B m V X         $.K.5 g 1 n 4.-.n '.iXdXaX",
"6XT. X6XO.8 8 3 + 3 h.T @ .     O =   @ | A.w 4 + g v N N V N 3.c           r 5 o n a =.9.5.e P T qX",
"(.t h.M.+ % % i 8 X T %.$ i +   o . 3 7 C <X`.D @ > n c n N N V N O         % y @ # % h <.z 4 r i ' ",
"iXpXdX3XJ.a._ 4 @ @ q.h.4 7 % + % 4 p 7 L ,XjX}.D > c N V V v m >.2   .       $ r +   & f z E v.w.(.",
"fX8XN.d.i.u.E.@Xe.x.5X7X XR.m.u.F 8 7 4 @.cXY.e._ W z -.,.<.<.-.B n O         @ K I.E   < ,.x v.7X7X",
"7Xx.C t r i F 2XNXaXH.u.+.#.p.A.:Xl.( i.hXc.w 7 4 C ; V B c g 2 v >.V 2 V >   O.nX-X^ . o <.2.d x.4X",
"M.i.8 y y 0 Z  X&X` t 8 7 % % % G n.<XjXB.t 8 p 9 % + V B N n l & 2 1.9.B   q lXuXK 4 7   & k 3 Z Q ",
") R.F r t Q B.fXe.D 8 8 p 8 s 8 7 F %X2XF 8 8 7 9 9 $ v ;.N 2 g c v N l     @ f.{.4 8 8 7   + 8 8 8 ",
"Y bXeXW.@XyXCXBX' r 8 8 8 7 8 s t J  Xs.4 4 7 7 i 7 + 1 v f m B z k v X     . 7 ~.u.3 8 y s s 8 8 y ",
"J.#XJ.d.u.~ p.{.J.8 i p 8 8 4 y C o.gX' 3 9 7 i i 9 @ # l l c 1 = 1 v & +   % i I n.w 7 0 s 0 6 4 D ",
"Z.D r r 7 % 3 C z.V.4 r s 7 8 q J eXNX].D 3 9 % 7 i % > l 1 = > 1 2 v . i . $ 9 w m.&.4 4 r r D U J.",
"4 s 7 7 p s 7 9 D m.h.J A q F a.Q.!.!.rXW.Z 3 % i % < :.  O z l x 2 z # % % i 9 4 S.kX!.A.k.r.c.kXQ.",
"7 8 7 8 7 7 7 p 7 C &XR.i.J.Q.F.S 8 8 r J.:XL 3 % % , a D u k N l f l $ i i 7 9 @ C.xXW.!.$XrXBXZXr.",
"9 7 7 i 7 % 7 i 8 7 t.vXvX@X..3 3 7 7 % 3 L.P.% p t q D ) @X0 l l 1 1 X i p 9 7 4 #X@.% 7 r r w.cXp.",
"4 5 7 7 7 7 7 7 7 8 Q xXY.F 3 7 % 7 7 i 9 Y {.~ I I I ` :X<XC > < l 1 + 8 7 % r k.u.3 9 9 9 9 3 j.T.",
"t 8 9 7 i i 7 8 8 t k.>XZ 8 7 7 i i i % 7 H '.aX>XQ.N.:XS.b.D * O l < @ 7 7 r K.Z.7 8 9 8 p 7 9 y (.",
"O.4 9 7 i 7 8 7 7 K tXV.4 8 7 7 i % i 7 6 T &Xl.E E ..z.L e.r 3   l , % 7 q R.@Xr 7 7 7 7 7 9 7 7 ) ",
"n.Z 7 7 % 7 8 y D v.sX/ 7 7 7 7 % i i 7 3 y.J.% % % % / jX-X( D + : # q C T.wXD 7 9 9 8 7 7 7 7 7 8 ",
"L.+Xq.[ ! ! ` w.R.jX&XK 7 7 7 p i i % i 4 ^.| % 8 8 U OXpX-X&X*Xg.=.*.N.=XaX) 7 8 8 7 7 7 0 7 9 7 4 ",
"D.CXNXaX-X*X|.gXjXzX`.C 6 7 9 7 7 i i 7 D E.D i 7 H Q.V.t t H @.f.R W eXsX}.E 4 6 4 7 7 9 7 7 7 5 q ",
"eX].O.P L L Y ] `.fXaXK 8 0 7 7 7 s 7 3 D W.e 8 7 a.a.% 8 5 7 7 7 7 3 D l.cXZ.@ 8 5 7 8 0 0 s 6 7 8 ",
"R.w % @ % % % % Z s.dX'.4 7 9 9 7 8 7 9 A :XK q C P.X.3 8 8 7 9 7 0 s 8 t qXNXV.H A r 4 3 7 7 7 7 A.",
"Q 7 8 7 9 7 7 9 7 3 Y nXM.q 4 6 8 8 0 q L wX&X{.:XmX$.7 8 7 7 s s 8 0 0 w qXAXvXaXsXtXW.r._ I J j.1X",
"S 8 7 9 7 7 i i 8 8 3 y.jXB.) r 4 r w C q.cXW.+.T L.i.3 9 8 7 p 8 s 7 8 a.sXI.0.w.u.t.m.&X3X5X8XfX.X",
"L 6 7 7 7 i i i 9 0 0 ! kXMXsX@XG.A.m.oXbXiXI r 4 i. .8 8 7 s 9 p 8 9 a.}.` r 4 9 % 7 3 r ) i.*XjX).",
"K 6 8 7 7 % % 9 7 s 5 K kXVXwXE.E.H.H.H.#XhXL.H t S. .3 0 8 s p p 7 @..X! y 9 0 8 7 9 s 9 7 3 U .X4X",
"u.A 8 9 9 % 7 9 7 s 9 L xXXXC r 7 4 r p r u.xXM.t S.@.q 9 8 0 p 7 e 9X0.8 s 8 p i 9 9 s 9 0 s r u.aX",
"I. .e 9 7 9 7 7 7 8 8 L aXo.8 0 p 8 p y y 4 c.jXN.*XK.C y 6 8 y 4 Z. XF p 7 s i i s 7 s 7 s s 6 ^ uX"
};
