/* XPM */
static char *result[] = {
/* columns rows colors chars-per-pixel */
"50 50 159 2 ",
"   c #676B73",
".  c #6C7077",
"X  c #60646B",
"o  c #6B6F76",
"O  c #64696F",
"+  c #6F747D",
"@  c #666971",
"#  c #63676D",
"$  c #646871",
"%  c #696E76",
"&  c #686D75",
"*  c #696C73",
"=  c #52555C",
"-  c #6D727C",
";  c #6F737A",
":  c #6A6E75",
">  c #62666E",
",  c #757981",
"<  c #666B72",
"1  c #61656C",
"2  c #6E727C",
"3  c #676B72",
"4  c #63676F",
"5  c #72777F",
"6  c #6B6F78",
"7  c #767B84",
"8  c #70747B",
"9  c #6D7279",
"0  c #6B7079",
"q  c #5C6168",
"w  c #575C63",
"e  c #70747F",
"r  c #72767D",
"t  c #696E74",
"y  c #5C5F66",
"u  c #727882",
"i  c #686F78",
"p  c #6A6E76",
"a  c #5F6168",
"s  c #595B61",
"d  c #575B61",
"f  c #535459",
"g  c #6F7178",
"h  c #5E6369",
"j  c #5A5E65",
"k  c #81858E",
"l  c #7E838C",
"z  c #717680",
"x  c #6B717B",
"c  c #6C7179",
"v  c #4C4F55",
"b  c #787C86",
"n  c #646A73",
"m  c #606369",
"M  c #54575E",
"N  c #7A7F88",
"B  c #5C626A",
"V  c #5F6065",
"C  c #4A4C52",
"Z  c #858A94",
"A  c #666D77",
"S  c #62656B",
"D  c #56595F",
"F  c #56575D",
"G  c #787E88",
"H  c #67696F",
"J  c #525156",
"K  c #4F5055",
"L  c #7B808A",
"P  c #797D85",
"I  c #747883",
"U  c #75787F",
"Y  c #75767C",
"T  c #71757C",
"R  c #6C6C72",
"E  c #626771",
"W  c #65676F",
"Q  c #64666D",
"!  c #5E636B",
"~  c #5B5F67",
"^  c #5C5E64",
"/  c #505359",
"(  c #8E939D",
")  c #7E8590",
"_  c #7E818A",
"`  c #696B71",
"'  c #60656E",
"]  c #66676D",
"[  c #5A5D64",
"{  c #505258",
"}  c #848B98",
"|  c #878C95",
" . c #808692",
".. c #7E8188",
"X. c #727984",
"o. c #78787D",
"O. c #898E98",
"+. c #7B828C",
"@. c #787F8B",
"#. c #757C87",
"$. c #7B7F86",
"%. c #7A7B81",
"&. c #59595D",
"*. c #4F4D50",
"=. c #47484E",
"-. c #717379",
";. c #6D6E74",
":. c #5A5F69",
">. c #555A61",
",. c #595A5F",
"<. c #565559",
"1. c #44454B",
"2. c #B4B4B6",
"3. c #838892",
"4. c #7B838F",
"5. c #84868D",
"6. c #747B85",
"7. c #7A7C83",
"8. c #757881",
"9. c #636367",
"0. c #585D66",
"q. c #3C3A3C",
"w. c #ADAEB2",
"e. c #828288",
"r. c #777A80",
"t. c #737378",
"y. c #676B75",
"u. c #65666B",
"i. c #484A50",
"p. c #47464A",
"a. c #363537",
"s. c #BEBFC2",
"d. c #7D7E84",
"f. c #707781",
"g. c #6D7480",
"h. c #5D5B5F",
"j. c #4E5158",
"k. c #4B4A4E",
"l. c #3C3D42",
"z. c #787B84",
"x. c #646B76",
"c. c #717073",
"v. c #404248",
"b. c #484546",
"n. c #979BA2",
"m. c #969598",
"M. c #7E7B7F",
"N. c #6A686D",
"B. c #413F41",
"V. c #A2A3A8",
"C. c #BBBBBE",
"Z. c #B5B7BD",
"A. c #AAA9AC",
"S. c #8D95A3",
"D. c #8F9197",
"F. c #262425",
"G. c #C4C6CA",
"H. c #8E8E91",
"J. c #E0DFE0",
/* pixels */
"1.k D.D.5.e.e.%.%.c 1.1.> ' v C j = d j.a.o B w s ; & M D a i.@ d M y   9 6   1.- 8.8 U e.7.g Y N B ",
"V  .^ @ ] ] : ;.S Y % a  .x E u % 4 & 0 f ,   j v = / = H O F i ~ q B X # 9 3 ,.k S 3 p 6 % & S r.+.",
"&.#.B u B 3 I o m 9.S s G i n $ ! h 4   *.  E E 0 - E < h 3 f & 1 y w [ [ # a ,.; j   + : ! X h 3 1 ",
"F 6.4 ] * D g * V S a y #.A x.A x.n + E q.l X.I z u u 2 - & F 2 $ :.d w w $ & D + X X j @ 2 d h i j ",
"f 7 j s g $ f u.a # h b.$.i $ @ < 3 -.0 b.c.R g g -.. -.7.W J U * * O 3   0 2 ,.u a ~ X h m B ~ & B ",
"f u q j ` . >.a a +.i.v m m = s ^ s F = C k.^ y =.B.9.D = M *.a 9.,.,.f h.9.^ a...A w X m [ % ! < B ",
"f % w   = M > 0.&.F $ k 2 z #.z 6 6 0 % c G ( c S.x h.3.f.i x.n < X < $ ! 1 + 0.J $.i 0.>.! y.>.> ~ ",
"K > v y X d ~ f.F.s Z : O : o t   < & t 9 l D l 5 7.  &._ c 6 &   @ O :   O   l i p.5.x B E 0.>.B d ",
"K ' =.= M j I 0.=   ,   O o . % & t t r r.J k z.X m U - &.P 2 0 % @ < & . # @ + Z 0.b.l A :.:.= :.w ",
"q.m a ` o t /   l $ t @ $ % 6 p   & 8 r.Q Q o.k h , m Y 5 ,.N - 6 $ y.0 6   < 9 8.} ! &.5.7.P 2 % d ",
"v.d v M y l.{ L X O % y.A i A i i X.+.p k O.:.o. .! 9 4 %.N y L g.A x x A x.A u U x  .w a.b.p.J s l.",
"{ > q h % D S u < #   % z - i - G P R Z W a +.4 M.) ! 5 X o.+.* ..5 e - 0 + u I x i + g.v.~ 0.d > v ",
"C w = = ~ K Q + t O & 6 + + 2 l ..s k * $ > -.n.<.M.) E 8 S Y _ V z.I + o , 7 z x p   - F w = w B = ",
"{ w = = q K @ : t O @ . 5 2 N k @ | @ & c E ( @ 4.z d. .q 8 ^ t.l Q ..u x T . . & O # 0 { s D w # M ",
"/ [ d D $ { O 6 %   Q : ; 7 l : k : E $ c O.H e L 4.$ %.) q . m t.4.a _ z o p * 4   1 % C d j D X M ",
"J a s [   D # & 0 % & p , l . O.. f.g.0 3.F e I i u  .A d.Z 4 6 X o.@.W l e + % X   ' % =.j X y # M ",
"J 4 y j 8 d B & 6 6 % z 7 o | t :   c 7.K e I + e b b } ~ 9. .' 7 X -.#.<._ X.+ 6 % > x 1.] X j * f ",
"D @ m 1 r.a ! 0 i 2 , , p Z ] 3 t   | v ~ +.0 ; G 5 . b  .' 7. .! % $ Y #.,.` X.i y.> $ v Q $ j p w ",
"@ x 4 3 ..V ' - x b , 3 ( . & * & k ] X.@.z p o N + $ , N Z e d.) p 5 m o.x.B.P g.y.4   C t - A #.o ",
"h.$.R c.e.K ' x X.b e ( ] o z $ O.X U L z u # 8 8.b % 8 G u O.I %._ X + 1 U u f 7 x & 0 J R H ] %.<.",
"=.*.F f ,.K x @.u + ( @ & 1 4 O.o e b 7 6.7 < @ , r O Q r 5 5 L 2 7.) > ; S Y @.M 5 A X.i.q.{ <.K C ",
"r 0 ; , ) d k , W O.` - x & O.o b L 8., 7 . 3 X g   1 1 . r 7 + ) $ R 4.h c s P f.B.5 ) w D 7 6 i 4 ",
"R 8.@ &.| V c.> | o . ; 0 | * G l p 8.7 r 5 9 d H > a z.; r ; r 6.@.- _ 4.~ & P = 0.f $.q J . D w d ",
"&.J + z . B.*.n.H 4 2 6 ( Q e 3.X.+ 8., T # 5 # o n @ 3 t U 9 ` 7 7 4.I Y l l i.% ( A s V = - >.1 / ",
"8 j.z c e l.| % y.' < Z ` #.N N G I r c r > > & @ X 3 # c 9 . @ : T I +.I t.p.- ..&.r.e q.^ + B @ / ",
"* j $ V  .J e.6.~ p 3.q Q O.8 8 7 5 r ; T z   ' O X Q > , @ 6 . o ; I @.( i.' ..^ W F S.v V z h = [ ",
"H # x 1 L i.<.O.@.k =.) S.[ r., r T * * 2 u 6.' # O # # @ 9 e   : ; k U C z _ X ; / 5 8 1.S 2 E 0.h ",
". & h = _ j.@.&.5.= p P 5.} J o.b 5 8 9 5 T b n O $ ' $ & 2 , ; : 7 $.a.9 N 1 % B e z.- > V - j X j ",
"3 4 B E  .^ Z 4.l.` k O S d.4.k.d.L 9 ; 8 ; b 9 O @   z 2 r p < , N v + U V - n G T p } d @ u B w = ",
"o.u.-.` m k.T L - u._ n 9 3 7.} V 5.N o 5 o U 2 . m t p   b 0 e P [ b Y X o > b . X L 7 v J H S ] V ",
"h.=.M s >.C ;.: , , ;.3.$ 5 V o.( ^ Y P g 8 c O 7 > W 0 ; ; L U ^ _ + j g # l z.. +.o + C =.d =.[ v.",
"d.A % + #.  g . c $.6.y k > - X o.} <.%., T 5 q 8.6 < G ; N 9 =.l g   3 y ..P ; N o * < C * n 1 1 $.",
"e.X < $ x ^ ;.o : o b f.N.Z n 8.> Y } { r.; g 2 o 4 @ r L 8 1.b g q t 4 N g . N o O h X { S [ d / W ",
"H.y w O u ,.9.c : t * r.G t.| 0 + 1 Y } = R g , % c - G ; = k r X 3 X k ;.$ $.* O X y q K y = j.M K ",
"m.w q t o { S 8 : S * * 7 _ t.| 6 T ] N.} { -., ; 8 +.8 f Z . h c :.k , # N ; O   1 j q J y / v = i.",
"m.w h < & >.] 3 * 1 @ 9 : P G t.| n : F o.} C %.L $.R / 3.* * : X l U 5 , o @ #   # q > 1.a j.v / C ",
"A.> . + % y : : 3 O . . o * L G N.Z > Q H o.@.k.5.R i.) : > . O 3.T ; T # 1 # O X X q j p.a v C / v ",
"V.[ - @ + V . ; 3 W ` - c   ; | w h.l q g 4 Y ) K *.} o 1 X X 5.Y + 8 O   $   $ X y >.D K O M / M j.",
"m.^ ] ;._ &.p ; # 1 # p ; t 9 7 } g.9._ E . 3 c.@.<.e.E . 4 Z u.7 2 & 6     . < X q >.q f R # s Q s ",
"M.p.b.*.<.a.9.9 m O # Q H 3 . 9 o l O N.( n ; [ g X.k.d.- Z r z r   . % % o 3 # 1 3 O o q.p.{ K { l.",
"H.= s y q i C R 9 t o 4 W 3 : @ W . 7 + u.O.! t ^ c.f.b.M.* r G # < 9 : : : O # O < 8 f B %   2 g.v.",
"n.C p.M F H X.K R 6.+ $ O . o * O T t ) i V Z :.@ = ( - q.r 8 # 1 X O % o % 1 h * ;.s < : = = = e :.",
"w./ f w q <.N.@.h.R ..z   9 - . . o <    .6 u.| ~ k ..k.X.u : > > < 4 + + 6 @ o o a.h o v d h y n & ",
"Z.~ y W 3 $ =.M.@ F.q.c.$.U z.r -.T ` ;.-.( c h.( ..J U ..P 2 0 p e , g g P 8 o d x.> 1 n { t 1 % * ",
"2.$ m o s H M q v.v.F.a.u.,.f v f &.<.F *.f   1.*.B.J s F k.K 4 m s V a.*.] a q.4 u q M W M y i - t ",
"w.y.f ^ n j.n 4.:.l.l.d G & $ $ ` + f.g.v A $ + 8 I e 2 #.! =.P 9 < r X   . +.>.a y.- 0 w r @   X., ",
"w.0 y   2 ! 6.i e :.q.. 5 # X O X & #.2 F +.p u.H R * W * e C . O # . . * < + D a 6 * 5 < V ` H 8 Z ",
"Z.  a H H g o $ [ ) v -.* # 1 O > < c x f 5 j # # F Q p S @ / 0 n * g W S . b D @ h # O < n ' ! N 5.",
"s.u e + 6 - 7 6.- #.1.2 A n 4 X q h 4 e p.. ~ m = 5 f m F 1 C i E 6   4   2 7 s *.. 4 & b 3.$.3.Z t.",
"J.C.G.s.Z.A.V.n.w.w.w.V.n.V.m.e.%.%.7.Y *.o.. ` ;.;.9.%.t.D.m.2.w.2.2.2.s.s.s.G.2.w.C.s.s.C.A.2.2.2."
};
