/* XPM */
static char *result[] = {
/* columns rows colors chars-per-pixel */
"50 50 97 2 ",
"   c #1E1C1E",
".  c #2B2929",
"X  c #353335",
"o  c #393536",
"O  c #36373B",
"+  c #37393D",
"@  c #3C3B3E",
"#  c #403936",
"$  c #413E3E",
"%  c #3C3D42",
"&  c #403E42",
"*  c #3F4347",
"=  c #3E414A",
"-  c #444144",
";  c #494546",
":  c #44464B",
">  c #494649",
",  c #47494E",
"<  c #4B4A4E",
"1  c #504E4E",
"2  c #464A50",
"3  c #4B4D53",
"4  c #514F51",
"5  c #4E5156",
"6  c #4E5259",
"7  c #525256",
"8  c #53555B",
"9  c #59575B",
"0  c #56595E",
"q  c #5A5A5E",
"w  c #565B62",
"e  c #5A5D64",
"r  c #565E6B",
"t  c #5A5F68",
"y  c #615F63",
"u  c #5D6066",
"i  c #5E626A",
"p  c #5F6771",
"a  c #626266",
"s  c #62656C",
"d  c #686669",
"f  c #65696F",
"g  c #6A696E",
"h  c #636770",
"j  c #666A72",
"k  c #6A6D75",
"l  c #676D78",
"z  c #6A6F78",
"x  c #706F72",
"c  c #6C7077",
"v  c #6D727B",
"b  c #727276",
"n  c #72757C",
"m  c #78777C",
"M  c #75787E",
"N  c #7A7A7E",
"B  c #817E7F",
"V  c #6E7581",
"C  c #727681",
"Z  c #757A83",
"A  c #7A7D84",
"S  c #767D89",
"D  c #797E89",
"F  c #7C8087",
"G  c #77818E",
"H  c #7D828B",
"J  c #7E8591",
"K  c #838387",
"L  c #82848C",
"P  c #87888E",
"I  c #818691",
"U  c #848A94",
"Y  c #8A8D95",
"T  c #848C99",
"R  c #898E99",
"E  c #8E9095",
"W  c #8D929D",
"Q  c #939397",
"!  c #95959C",
"~  c #999799",
"^  c #8D95A3",
"/  c #949AA4",
"(  c #9B9CA1",
")  c #9FA0A6",
"_  c #A1A3A7",
"`  c #A5A6A9",
"'  c #ADACAD",
"]  c #ACAEB2",
"[  c #AEB0B5",
"{  c #B3B3B5",
"}  c #BAB5B4",
"|  c #B6B8BD",
" . c #BABABD",
".. c #BDBEC1",
"X. c #BFC0C5",
"o. c #C7C8CA",
"O. c #E0DFE0",
/* pixels */
": L Q E L L K A N c : , f i 6 2 r 8 w 6 + k u e w c k w w u < j w 6 i j v v j , v Z n M H F c n F i ",
"u I e j s g k k s m l u J v j V j j j v 7 C k e 6 8 6 6 h s q l u i i i p v j e H s k k v k j s Z H ",
"q S u Z t g Z k a s s w S l j p i i j k 4 k h s c v h k s j 9 j i u w u w s i q v u j v c i i i j p ",
"9 Z f s k w b k t s y t S l l l l j v p % H Z Z C C Z v c j 0 v j u w w e s c 0 v s i u p v w i c u ",
"7 S e w b h 7 s t s a ; A z h h j j n l - b k b b n k n A s 7 Z j k s j k z c q Z u u i i i i u k u ",
"7 Z u t k z w y a H 3 3 a s 8 e e w q 8 3 < t u < - a q 8 w 3 a a q e 7 q a t o F k r i i u l i j u ",
"8 k e j 8 8 h t 9 9 h I n C A C l k l l z S W c ^ l q I V l j k j s k h s s v t 7 F k u 0 i l w p u ",
"5 s 3 i i w e C   e U k j k k k k j k k n K 0 H m A k w L c l k j j h k h f j J v : P l i p u w i w ",
"5 i 2 8 w e C e w j Z j h z z k k k k n A 4 H A a u Z c q A v c z h k k z s h n J u > J p u i 8 u w ",
"@ s s j c j 6 j G j k j h k z z k k n A a s A I i Z u m n q H v z h k l z k k z Z T i 8 I Z F v l w ",
": w 3 8 u * 5 H u f k k l l l z l C D z I R t A U u v h A D t H V l v z l l k C Z v J u o , : 5 0 * ",
"6 s u i j 0 f Z k f k l C V z v S A k U g y D h N J i Z a m D k D C C z z n Z C v l v v * u u w p 3 ",
"3 0 8 8 u 6 s v k h k z n n v H H w I k g h b / 9 A J h v s Z L y A Z C c Z S C v l j v 8 u 6 0 i 6 ",
"6 e 8 6 u 6 j k j f j c C v D L h Y f k z h R k H C A I u v e n H s D C v n c c l s s v 6 u 0 u s 8 ",
"7 e w 0 s 6 j c k j f k c Z L k I k j s z R g C D J h Z J u k a b J a H V c c j j j s l 2 w u 8 p 0 ",
"7 i e e j w s c v j k l Z L z R c C C z I 9 V Z l C J k K U f l s C D j H v V j f j i v , u i u s 0 ",
"7 s t t n e i l z z k C A k Y k k k c A 3 C C V n S A T t y I p A s b S 9 D Z V l k h l : f s u k 6 ",
"w j a a Z u i z l n C Z z U s j k j Y 3 i D c n D n b Z I h A J i l h n A e k Z l k h h 5 s s e k u ",
"k z h k D y i v z D Z j ! z k k k L h Z H C k k D n h Z D I C A I k C s m k % Z V k h k 3 k v k G k ",
"y A k x K 6 p v Z D C R g k C h T f C D n Z s n C D k n D Z R C A H u v s C C 9 Z z l l 7 k f f N 8 ",
"; 4 9 8 9 6 l H C v W g k f h R k C A A Z Z j j Z n f f n Z C H V A I s c f n D 9 C l Z 2 @ 5 8 5 3 ",
"n z n Z J e L Z h R g V v k Y k D D C Z A z j s c j s f c n Z n J j k H s c w A C & C L w w S v k p ",
"k Z h 9 Y y x s R k z z l R k S H z Z A C m v w f f u A n n c n C S v D H t k A 8 r 7 A t 7 c 0 u 0 ",
"q 4 n C k $ 3 / g h C z ! s n I C v C Z n s n h k j f j k M c k S Z J Z m H H , l W l e y 8 v w p 8 ",
"n 6 n v C % T l j h j U k S A A S Z M c n j f k j s k s v c c j c v Z H Z b , v H q Z V @ e V i f 5 ",
"k e h t I 4 K S u l I u s R n n Z M n v v v j s f s s i Z j c c c n Z H W 2 f H e f 9 ^ 3 a C u 8 u ",
"g s v f D 2 9 Y H H < H ^ e Z Z M n j c v Z Z p s s s j j v v k k v L C 3 C H i n 7 C n : s v h u u ",
"l k u 8 D 6 S 9 P 9 l A P T 7 m S M n c Z n S j j j s j c v Z v k Z H O c H f j u v A c f u v e u u ",
"k h a s U t U H % k L f s F G < A F c v v v A v f j j C c n k j Z A 3 v M u v h D n k T 0 f Z u u 6 ",
"m s n k a < n D c s H j c j A U a L F c M c Z v l s k k k S c n D e S m s l h D c f D Z 5 7 f s p u ",
"q , 8 e w 2 k k M Z k I j M u m W u n F c n c j A f f c c n H Z e H n e c s L A c H k n 2 , 0 , w * ",
"A k l n Z k c n c F S u L s v s M U 8 N Z n n u C k j S n D c , K k j k a D A c D k k k 3 c f p s F ",
"K a k s v t k k k k Z C g U k C s m T 7 Z n n z k j j m H n : A c e k j F c v F c s i p 5 s e 0 8 f ",
"E t e f Z q a n k k k N D b Y z n s n T 7 k b Z k c v S c 8 H n f k i H c s F j f p u u 5 u 8 6 8 5 ",
"Q w u k k 7 s n k s k k A D b R l n h g T 7 n Z c n H v 8 U c i v u I Z s F v j j s u u 5 u 6 5 8 2 ",
"~ e i j k w s k k s f b k A D b R h k 9 m T 3 Z H F k 8 I k k k i H M M Z c g s j s u p : u 5 5 6 5 ",
"` s k n k t k k k f c c k k H A f Y s s j m S < P k 2 I k s k j I n n n s f f f i i u u , i 5 3 6 6 ",
"_ u c k n u k n g f k n z k v U w e L t n j M L 7 1 Y k s s f L m n v j j h j j p u 0 w 1 f 0 5 8 5 ",
"~ u f k K q l z s s s k b k c S T V a H s k f b F 7 K s c h U s Z v k l j k l j i u 0 u 7 x p u i w ",
"B > ; 1 7 X a n s s f s f k c c c L s g W k n t c Z < A v U m C C j v k k v j s p j f c @ : 6 5 5 * ",
"Y 9 e t t l 3 k v c v s f j c g f c Z n f W u k t b C > N k n H s j c k k c s p f k b 8 u c j v V = ",
"( 2 , 8 9 g Z 3 c M v s s v c j j v k H k y U t f 8 ! c $ M v s s i j c c c s i k k 0 k c 8 8 8 v i ",
"] 8 7 e u 8 g S q g H M j v v c c c j k I k s Y t L H < Z Z c i s j f v v v j c k + u c 5 0 i u j k ",
"| e e h k k , A g . # x F M Z M b n k b n W c q ! F 7 M F S v v c M Z c c Z v c 0 j p s j 5 c p c j ",
"{ h a l w h w e * * . o s e 8 5 7 q 9 8 3 7 k : 4 & 7 w 8 < 7 s i e u o < f i @ f C u 8 f 8 u l v k ",
"] l 9 t k 6 h J u @ * 0 F j s s k v V V 3 l h n n C n n S p > F v j M i k c H 0 i l v c u v j j Z Z ",
"] c e k v a Z l V r + c M s s g u k S v 8 H x s g k k s k v 5 c s s c c j g n w i c k M k u k f c P ",
"| j a s j c v j w J 5 c k p p j f k z z 9 C t s s w s k s s 6 c j c v s p k F 0 f u p f f j p u F P ",
"..Z V V z V C S V S : n j k f s u u s v , c u i 8 m 7 i 8 s 5 k j k j j j v Z w < c f c Z P F P U b ",
"O...X.....) ( ( ] ] ] ` / ) Q L N N A M 1 N c g c c d A b E ~ { [ { { { X.....o.{ '  .X... .' { { } "
};
